<?xml version="1.0" encoding="utf-8"?>
<!-- Generator: Adobe Illustrator 23.0.1, SVG Export Plug-In . SVG Version: 6.00 Build 0)  -->
<svg version="1.1" xmlns="http://www.w3.org/2000/svg" xmlns:xlink="http://www.w3.org/1999/xlink" x="0px" y="0px"
	 viewBox="0 0 27 27" style="enable-background:new 0 0 27 27;" xml:space="preserve">
<style type="text/css">
	.st0{fill:#E4DDDA;}
	.st1{fill:#D6CCC8;}
	.st2{display:none;}
	.st3{display:inline;}
	.st4{fill:#CC297A;}
</style>
<g id="back">
	<rect class="st0" width="27.16" height="27"/>
</g>
<g id="not">
	<g>
		<polygon class="st1" points="13.5,1 17.67,9.45 27,10.81 20.25,17.39 21.84,26.68 13.5,22.29 5.16,26.68 6.75,17.39 0,10.81 
			9.33,9.45 		"/>
	</g>
</g>
<g id="_x31_" class="st2">
	<g class="st3">
		<polygon class="st4" points="13.5,1 17.67,9.45 27,10.81 20.25,17.39 21.84,26.68 13.5,22.29 5.16,26.68 6.75,17.39 0,10.81 
			9.33,9.45 		"/>
	</g>
</g>
<g id="_x32__x2F_3" class="st2">
	<g class="st3">
		<polygon class="st4" points="13.5,1 17.67,9.45 19.11,9.66 19.16,25.27 13.5,22.29 5.16,26.68 6.75,17.39 0,10.81 9.33,9.45 		"/>
	</g>
</g>
<g id="_x31__x2F_2" class="st2">
	<g class="st3">
		<polygon class="st4" points="13.5,1 13.5,22.29 5.16,26.68 6.75,17.39 0,10.81 9.33,9.45 		"/>
	</g>
</g>
<g id="_x31__x2F_3" class="st2">
	<g class="st3">
		<polygon class="st4" points="8.35,25 5.16,26.68 6.75,17.39 0,10.81 7.59,9.71 		"/>
	</g>
</g>
</svg>
