<?xml version="1.0" encoding="utf-8"?>
<!-- Generator: Adobe Illustrator 23.0.1, SVG Export Plug-In . SVG Version: 6.00 Build 0)  -->
<svg version="1.1" id="Layer_1" xmlns="http://www.w3.org/2000/svg" xmlns:xlink="http://www.w3.org/1999/xlink" x="0px" y="0px"
	 viewBox="0 0 330 83" style="enable-background:new 0 0 330 83;" xml:space="preserve">
<style type="text/css">
	.st0{fill:#2D2C2C;}
</style>
<g>
	<path class="st0" d="M20.9,46.5l-17-15.4l2.7-3l0.5,0.5c2.2,1.9,3.4,2,5.8-0.6l15.6-17.3c1.4-1.6,1.9-3.7,1.1-5.4l-1.2-2.5L29.9,1
		l13.3,12c5.6,5,13.6,12.7,6.8,20.2c-3.1,3.5-9,3.1-12.5,0.8c3.9,4.7,6.2,10.8,1.5,16C33.5,56.3,25.5,50.6,20.9,46.5z M31.3,31.4
		l-5.1-4.6l-6.3,7c-1.4,1.6-2.9,3.6-0.8,5.4l3.3,3c3.2,2.9,6.9,3.3,9.7,0.2C35.3,38.9,34.4,34.2,31.3,31.4z M42.2,17.6l-1.9-1.7
		c-1.9-1.7-3.7-0.6-5.2,1l-6.3,7l4,3.6c3.2,2.9,7.3,3.1,10.2-0.2C45.6,24.5,45.4,20.5,42.2,17.6z"/>
	<path class="st0" d="M54.3,70.3c-6.1-3.1-9.6-10-6-17c3.6-7,11.2-8.3,17.4-5.1c6.1,3.1,9.7,10,6.1,17
		C68.2,72.2,60.5,73.5,54.3,70.3z M63.7,51c-3.8-1.9-6.6,1.1-8.2,4.2c-1.8,3.5-3.6,10,0.8,12.3c3.8,2,6.7-1.2,8.3-4.3
		C66.4,59.8,68.1,53.3,63.7,51z"/>
	<path class="st0" d="M94.7,82c-6.8-0.2-13-5-12.7-12.8c0.2-7.9,6.6-12.3,13.5-12.1s13,5,12.8,12.8C108.1,77.8,101.6,82.2,94.7,82z
		 M94.9,60.5c-4.3-0.1-5.5,3.9-5.6,7.3c-0.1,3.9,1,10.6,6,10.7c4.3,0.1,5.5-3.9,5.7-7.5C101.1,67.3,99.9,60.7,94.9,60.5z"/>
	<path class="st0" d="M147.7,63.1c-4.4,2.9-10-0.5-14-3.4c-0.2-0.1-0.5-0.2-0.7,0c-0.1,0.1-0.2,0.2-0.3,0.3l-1.3,4.8l3.8,5.8
		l-6.2,4.1L112.2,49c-1.1-1.7-2.1-2.6-3.9-2.1l-3,0.8l-1.1-1.6l10.4-6.8l14,21.5l2.9-10.6c0.1-0.4,0.1-0.8,0-1
		c-0.2-0.3-0.7-0.4-1.2,0l-0.8,0.5l-1.7-2.5l11.3-7.4l1.3,2l-0.9,0.9c-1,1-1.8,2-2.2,3.3l-2.2,7.1c2.6,1.7,10.1,6.5,12.9,4.8
		c2.1-1.4,1.3-4.6,0.7-6.6l0.6-0.3C151.9,55.5,152.2,60.2,147.7,63.1z"/>
	<path class="st0" d="M184.9,17.1c-1.9,0.9-1.7,2.4-1.5,4.2l1.8,18.8l-7,3.5l-10.3-9.9l1.3,14.5l-7,3.5l-12.6-12.1
		c-1.4-1.3-2.4-2.3-4.2-2.2l-2.2,0.1l-1.1-2.2l9.1-4.6L165,44.2l-1.6-14c-0.1-0.4-0.1-0.6-0.2-0.9c-0.3-0.6-0.8-0.9-1.5-0.6
		l-1.7,0.9l-1.4-2.7l8.5-4.3L181,36.2l-1.6-14c-0.1-0.4-0.1-0.6-0.2-0.8c-0.3-0.6-0.9-0.9-1.5-0.6l-1.7,0.8l-1.4-2.7l9.4-4.7
		l1.3,2.7L184.9,17.1z"/>
	<path class="st0" d="M207.2,33.5c-6.6,1.8-13.8-0.9-15.9-8.4c-2.1-7.6,2.7-13.7,9.3-15.5s13.9,0.9,16,8.5
		C218.7,25.6,213.9,31.7,207.2,33.5z M201.1,13c-4.1,1.1-4.1,5.3-3.2,8.7c1,3.8,4.1,9.8,8.9,8.5c4.2-1.1,4.1-5.4,3.2-8.8
		C209,17.6,205.9,11.7,201.1,13z"/>
	<path class="st0" d="M241.8,13.4c-2.1,0.1-4-0.8-4.1-2.9c-0.1-1.2,0.6-2.4,1.8-2.4c0-0.7-1.3-1.2-2.7-1.1c-5,0.3-5.7,8.8-5.5,12.3
		l0.5,9l-7.4,0.4l-0.9-16.8c-0.1-2-0.5-3.3-2.3-3.8l-3-0.8l-0.2-2l11.9-0.6l0.6,3.3c1.8-3,4-4.1,7.3-4.3c3.7-0.2,7.3,1.5,7.5,5.6
		C245.4,11.4,244.1,13.3,241.8,13.4z"/>
	<path class="st0" d="M287.6,36.6c-3.9-0.8-5.3-3.9-4.4-8.3c0.6-2.7,1.5-5.4,2-8.1c0.4-2.1-0.1-3.7-2.8-4.3c-4.9-1-6.5,4.5-7.2,7.6
		l-2,9.6l-6.9-1.4l3-14.7c0.4-2.1-0.1-3.7-2.8-4.3c-4.9-1-6.5,4.5-7.2,7.6l-2,9.6l-7.3-1.5l3.4-16.5c0.4-1.9,0.3-3.3-1.3-4.2
		L249.7,6l0.4-1.9l11.6,2.4l-0.3,4.5c3.5-3.1,6.3-3.8,10.3-3c3.2,0.7,5.3,3,5.3,6.4c3.2-3.3,6.2-4,10.5-3.1c3.7,0.8,6.2,3.8,5.4,7.9
		c-0.6,3.1-1.8,6.7-2.4,9.8c-0.4,1.8-0.5,3.7,1.2,4c2.3,0.5,3.9-2.4,4.9-4.2l0.7,0.3C295.7,34.1,292.6,37.7,287.6,36.6z"/>
	<path class="st0" d="M296.5,38.7l1.5-4.5l20-11.4l-7.6-2.5c-2.5-0.8-4.1,0.8-4.9,2.9l-0.7,1.7l-3.2-1.1l2.9-8.9l22.6,7.5l-1.7,5.2
		l-19.8,10.7l8.5,2.8c2.5,0.8,4-0.8,4.9-2.9l0.7-1.7l3.2,1.1l-2.9,8.9L296.5,38.7z"/>
</g>
</svg>
