<?xml version="1.0" encoding="utf-8"?>
<!-- Generator: Adobe Illustrator 23.0.1, SVG Export Plug-In . SVG Version: 6.00 Build 0)  -->
<svg version="1.1" xmlns="http://www.w3.org/2000/svg" xmlns:xlink="http://www.w3.org/1999/xlink" x="0px" y="0px"
	 viewBox="0 0 330 120" style="enable-background:new 0 0 330 120;" xml:space="preserve">
<style type="text/css">
	.st0{fill:#641832;}
	.st1{fill:none;stroke:#B7B1BA;stroke-miterlimit:10;}
</style>
<g id="Layer_1">
	<g>
		<path class="st0" d="M31.7,72.8L16.1,58.6l2.5-2.8l0.5,0.4c2,1.8,3.2,1.8,5.3-0.5l14.3-15.9c1.3-1.4,1.8-3.4,1-5l-1.1-2.3L40,31
			l12.2,11c5.1,4.6,12.5,11.7,6.3,18.6c-2.9,3.2-8.3,2.9-11.5,0.8c3.6,4.3,5.7,10,1.4,14.7C43.2,81.8,36,76.6,31.7,72.8z M41.2,58.9
			l-4.7-4.2l-5.8,6.5c-1.3,1.5-2.6,3.3-0.7,5l3,2.7c2.9,2.6,6.3,3,8.9,0.2C44.9,65.8,44.1,61.5,41.2,58.9z M51.3,46.3l-1.8-1.6
			c-1.8-1.6-3.4-0.5-4.7,0.9L39,52l3.7,3.3c3,2.7,6.7,2.9,9.4-0.2C54.4,52.6,54.2,48.9,51.3,46.3z"/>
		<path class="st0" d="M62.4,94.7c-5.6-2.9-8.8-9.2-5.5-15.6c3.3-6.4,10.3-7.6,15.9-4.7c5.6,2.9,8.9,9.2,5.6,15.7
			C75.1,96.4,68,97.5,62.4,94.7z M71,76.9c-3.5-1.8-6.1,1-7.5,3.9c-1.6,3.2-3.3,9.2,0.7,11.3c3.5,1.8,6.1-1.1,7.6-4
			C73.4,85,75.1,79,71,76.9z"/>
		<path class="st0" d="M99.5,105.4c-6.3-0.2-11.9-4.5-11.7-11.7c0.2-7.2,6.1-11.3,12.4-11.1c6.3,0.2,12,4.5,11.7,11.8
			C111.7,101.5,105.8,105.6,99.5,105.4z M99.7,85.7c-3.9-0.1-5,3.5-5.1,6.7c-0.1,3.6,0.9,9.7,5.5,9.9c4,0.1,5.1-3.6,5.2-6.9
			C105.3,91.9,104.3,85.8,99.7,85.7z"/>
		<path class="st0" d="M148.2,88c-4,2.6-9.2-0.5-12.9-3.1c-0.2-0.1-0.5-0.1-0.7,0c-0.1,0.1-0.2,0.2-0.3,0.3l-1.2,4.4l3.5,5.3
			l-5.7,3.7l-15.4-23.6c-1-1.5-1.9-2.4-3.6-2l-2.8,0.7l-1-1.5l9.6-6.3l12.9,19.8l2.7-9.8c0.1-0.4,0.1-0.7,0-0.9
			c-0.2-0.3-0.6-0.4-1.1,0l-0.8,0.5l-1.5-2.3l10.4-6.8l1.2,1.8l-0.9,0.8c-0.9,0.9-1.7,1.9-2.1,3l-2,6.5c2.4,1.6,9.3,6,11.8,4.4
			c2-1.3,1.2-4.2,0.7-6l0.6-0.3C152,81,152.3,85.4,148.2,88z"/>
		<path class="st0" d="M182.3,45.8c-1.7,0.9-1.5,2.2-1.4,3.9l1.6,17.3l-6.4,3.2l-9.5-9.1l1.2,13.3l-6.4,3.2L150,66.4
			c-1.2-1.2-2.2-2.1-3.8-2l-2,0.1l-1-2.1l8.3-4.2L164,70.7l-1.4-12.8c0-0.3-0.1-0.6-0.2-0.8c-0.3-0.5-0.8-0.8-1.3-0.5l-1.6,0.8
			l-1.3-2.5l7.8-3.9l12.7,12.4l-1.4-12.8c0-0.3-0.1-0.6-0.2-0.7c-0.3-0.6-0.8-0.8-1.4-0.5l-1.5,0.8l-1.3-2.5l8.6-4.3l1.2,2.4
			L182.3,45.8z"/>
		<path class="st0" d="M202.8,60.9c-6,1.7-12.7-0.8-14.6-7.7c-1.9-7,2.5-12.6,8.6-14.2c6.1-1.7,12.8,0.8,14.7,7.8
			C213.4,53.6,208.9,59.2,202.8,60.9z M197.2,42c-3.8,1-3.8,4.9-2.9,8c1,3.5,3.8,9,8.1,7.8c3.8-1.1,3.8-4.9,2.9-8.1
			C204.4,46.3,201.6,40.8,197.2,42z"/>
		<path class="st0" d="M234.6,42.4c-1.9,0.1-3.7-0.8-3.8-2.7c-0.1-1.1,0.6-2.2,1.6-2.2c0-0.6-1.2-1.1-2.5-1
			c-4.6,0.2-5.2,8.1-5.1,11.3l0.4,8.3l-6.8,0.4l-0.8-15.4c-0.1-1.8-0.5-3-2.1-3.5l-2.8-0.8l-0.1-1.8l10.9-0.6l0.5,3
			c1.7-2.8,3.7-3.8,6.7-4c3.4-0.2,6.7,1.4,6.9,5.1C237.9,40.5,236.7,42.3,234.6,42.4z"/>
		<path class="st0" d="M276.7,63.7c-3.6-0.7-4.8-3.6-4-7.6c0.5-2.5,1.4-5,1.9-7.5c0.4-1.9-0.1-3.4-2.6-3.9c-4.5-0.9-6,4.1-6.6,7
			l-1.8,8.8l-6.3-1.3l2.8-13.5c0.4-1.9-0.1-3.4-2.6-3.9c-4.5-0.9-6,4.1-6.6,6.9l-1.8,8.8l-6.7-1.4l3.1-15.1c0.4-1.8,0.3-3.1-1.2-3.9
			l-2.5-1.4l0.4-1.7l10.7,2.2l-0.3,4.1c3.2-2.9,5.8-3.5,9.5-2.7c2.9,0.6,4.8,2.8,4.9,5.9c3-3,5.7-3.7,9.6-2.9c3.4,0.7,5.7,3.5,5,7.3
			c-0.6,2.8-1.7,6.2-2.2,9c-0.3,1.7-0.4,3.4,1.1,3.7c2.1,0.4,3.6-2.2,4.5-3.9l0.6,0.2C284.1,61.4,281.2,64.7,276.7,63.7z"/>
		<path class="st0" d="M284.8,65.7l1.4-4.2L304.5,51l-7-2.3c-2.3-0.7-3.8,0.7-4.5,2.7l-0.6,1.5l-3-1l2.7-8.1l20.8,6.8l-1.6,4.8
			L293,65.3l7.8,2.6c2.3,0.7,3.7-0.7,4.5-2.7l0.6-1.5l3,1l-2.7,8.1L284.8,65.7z"/>
	</g>
</g>
<g id="Layer_2">
	<g>
		<path class="st1" d="M138.5,103.1c0,0,51.5-52.5,168.3-26.7"/>
		<path class="st1" d="M137.6,104c0,0,54.6-49.2,169.7-16.4"/>
		<path class="st1" d="M137.1,105.3c0,0,57.2-46.1,170.3-6.9"/>
	</g>
	<line class="st1" x1="306.7" y1="76.5" x2="283.7" y2="81.3"/>
	<line class="st1" x1="306.7" y1="87.4" x2="278.9" y2="89.8"/>
	<g>
		<path class="st1" d="M46.9,28.2c3.6,1.2,36.3,58,114.8,12.1c10.2-6,19.9-10.9,28.9-15.1c3.1-1.4,6.1-2.7,9.1-3.9
			c55.2-22.7,86.5-13.6,86.5-13.6l-15.7,12.1c-61.6-2.4-76.1,4.8-76.1,4.8"/>
		<path class="st1" d="M45.8,27.1c3.7,0.9,40.9,54.8,115.4,2.6c9.7-6.8,18.9-12.5,27.6-17.4c3-1.7,5.9-3.2,8.7-4.7"/>
		<path class="st1" d="M45.6,27.1c3.8,0.5,46.6,50.1,115-9.9"/>
	</g>
</g>
</svg>
