<?xml version="1.0" encoding="utf-8"?>
<!-- Generator: Adobe Illustrator 23.0.1, SVG Export Plug-In . SVG Version: 6.00 Build 0)  -->
<svg version="1.1" id="Layer_1" xmlns="http://www.w3.org/2000/svg" xmlns:xlink="http://www.w3.org/1999/xlink" x="0px" y="0px"
	 viewBox="0 0 180 180" style="enable-background:new 0 0 180 180;" xml:space="preserve">
<style type="text/css">
	.st0{fill:#002B0A;}
	.st1{fill:#09671A;}
	.st2{fill:#02C41E;}
	.st3{fill:#094614;}
	.st4{fill:#1D3487;}
	.st5{fill:#25AB2D;}
	.st6{fill:#92FD99;}
	.st7{fill:#27937C;}
	.st8{fill:#0855E9;}
	.st9{fill:#FCFCFC;}
	.st10{fill:#0406FB;}
	.st11{fill:#1296CD;}
	.st12{fill:#1E66AF;}
	.st13{fill:#74EB7D;}
	.st14{fill:#191CFD;}
	.st15{fill:#011106;}
	.st16{fill:#276E38;}
	.st17{fill:#3CCB65;}
	.st18{fill:#B7FCB5;}
	.st19{fill:#12D72D;}
	.st20{fill:#2C36FD;}
	.st21{fill:#35B8EB;}
	.st22{fill:#386FFC;}
	.st23{fill:#3F4DFD;}
	.st24{fill:#858D89;}
	.st25{fill:#3BCA46;}
	.st26{fill:#CCEBFC;}
	.st27{fill:#5AD2FD;}
	.st28{fill:#49C690;}
	.st29{fill:#4790E1;}
</style>
<g>
	<g>
		<path class="st0" d="M180.6,149.4c0,6.6,0,13.2,0,19.8c-3.2-0.2-6.4-0.4-9.6-0.6c-0.4-0.8-0.8-1.6-1.2-2.4
			c-0.6-0.6-1.2-1.2-1.8-1.8c-0.4-0.8-0.8-1.6-1.2-2.4c-0.6-0.6-1.2-1.2-1.8-1.8c-0.4-0.8-0.8-1.6-1.2-2.4c-0.1-0.7-0.1-1.3-0.2-2.4
			c-3.2,3.2-5.7,1.1-8.5-0.2c0.9,1,1.7,2,2.7,3.2c-1.8,2.8-3.6,5.5-5.5,8.2c-1.5,2.3-4.7,3.2-7.3,2.2c-4.2-1.7-4.2-5.6-4.6-9.2l0,0
			c0.4-0.6,0.8-1.2,1.2-1.9c0.2-0.2,0.3-0.4,0.5-0.6c0.4-0.6,0.9-1.2,1.3-1.8c0,0,0,0,0,0c0.4-0.6,0.8-1.2,1.2-1.9
			c0.2-0.2,0.3-0.4,0.5-0.6c0.4-0.6,0.9-1.2,1.3-1.8c0,0,0,0,0,0c0.4-0.6,0.8-1.2,1.2-1.8l0,0c1.4,0.8,2.8,1.6,4.1,2.4
			c-1-2.1-2-4.1-2.9-6c0.6-0.4,1.2-0.8,1.8-1.2c0.8-0.6,1.6-1.2,2.4-1.8c0.6-0.4,1.2-0.8,1.8-1.2c2,0.4,4.9,0.1,5.7,1.3
			c2.3,3.4,3.7,7.4,5.4,10.9C170.1,151.8,175,149.6,180.6,149.4z"/>
		<path class="st1" d="M63,0.6c0.4,0,0.8,0,1.2,0C64,2.7,64,4.7,63.7,6.8c-0.6,4.5-0.1,5.5,4.2,7.1c0,0.4,0,0.7,0,1.1
			c-1.1-0.5-2.2-0.9-3.2-1.5c-2.2-1.2-5.5,0.3-5.8,2.9c-0.3,3.2-0.4,6.3-0.6,9.5c-4.2,0.9-8.4,1.9-13,2.9c0.8,2.5,1.4,4.4,2.1,6.3
			c0,4.9,3.9,5.7,7.3,7.2c0,0.4,0,0.7,0.1,1.1c-0.2,0.4-0.5,0.7-0.7,1.1C51.1,41,48,39.6,44,41.8c-4.3,2.3-5.2,5.9-6,9.8
			c-0.1,0.6,0.6,1.8,1.3,2.3c2,1.4,4.2,2.6,6.3,3.9c0,0.4,0,0.8,0,1.2c-1.6-1-3.4-1.8-4.9-2.9c-2.7-2-5.5-2.7-8.7-0.9
			c-0.3,1.8-0.5,3.8-0.8,5.8C30.8,62.9,30.4,65,30,67c-0.3,1.6,0.2,2.7,1.9,3c2.3,0.5,4.7,1,7,1.6c0,0.3,0,0.7,0,1
			c-6-0.6-12-1.3-17.9-1.9c-3.2-1.5-5.9,0.4-7.7,2.2c-1.2,1.2-0.5,4.1-0.7,6.3c-1.1,0-2.3,0-2.7,0c0.5-2.5,1-5.1,1.5-7.8
			c1.1-0.3,2.2-0.7,3.4-1c1.9-0.5,3.8-0.9,5.7-1.4c1.6,0.4,3.2,1,4.9,1.2c2,0.3,3.4-0.1,3.6-2.7c0.2-3.1,0.8-6.1,1.4-9.1
			c0.7-3.7,0.5-4-3.3-4.6c-1.2-1.7-2.5-2-4.2-0.7c-1,0.7-2.1,1.2-3,2c-1.1,1.2-2.1,1.3-3.6,0.6c-3.6-1.5-7.3-2.3-11.1,0
			c-1.3,0.8-3,1-4.5,1.4c0-0.4,0-0.8,0-1.2c7.9-1.4,8.9-2.5,9-10.3c0-1.1,0.2-2.2,0-3.3c-0.1-0.7-0.5-1.7-1-1.9
			c-2.6-1.2-5.3-2.1-8-3.2c0-0.4,0-0.8,0-1.2c1.3,0.4,2.7,0.7,3.9,1.3c4,2.4,7.9,2.5,12.1,0.5c1.5-0.7,2.2-1.4,2-3.1
			c-0.3-3.1-0.5-6.3-0.7-9.4c-0.8-0.2-1.6-0.4-2.4-0.8c-3.2-1.5-6.2-1.5-9.3,0.4c-1.6,1-3.7,1.4-5.5,2c0-0.4,0-0.8,0-1.2
			c0.7-0.1,1.4-0.2,2-0.5c4.6-2.5,9.1-4.1,14.4-1.6c1.3,0.6,4.8-1,5.4-2.4c1.2-2.7,1.6-6.1,1.2-9c-0.2-1.4-3.2-2.3-4.9-3.4
			c-0.1-0.1-0.2-0.1-0.2-0.2c-2-1.7-3.9-1.7-5.5,0.7c-1.5,2.2-3.4,2.2-5.7,1.2C5.2,9.7,2.9,9.1,0.6,8.4c0-0.4,0-0.8,0-1.2
			c0.8,0.2,1.6,0.2,2.3,0.5c4.6,2.4,8.9,3.2,12.3-1.8c0.2-0.2,0.5-0.4,0.3-0.3c2.6,1.5,5,3.1,7.5,4.3c1.1,0.5,2.7,0.5,3.8,0
			c4.8-2.2,4.8-2.3,4.3-7.5c-0.1-0.6,0-1.2,0-1.8c0.4,0,0.8,0,1.2,0c0.4,2.3,0.1,5.4,1.5,6.6c2.3,2,5.8,2.8,8.7,4.2
			c-0.8,3.3-1.6,6.5-2.4,9.8c-0.9,3.7,2.4,7.1,6.2,6.2c2.9-0.7,5.8-1.6,8.6-2.5c0.7-0.2,1.7-0.7,1.8-1.2c0.4-2.4,0.6-4.9,0.7-7.4
			c0-0.5-0.6-1.4-1.1-1.5c-4.6-1.2-9.2-2.3-13.9-3.4c1.2-3.6,2.4-7.2,3.6-10.8c0.4,0,0.8,0,1.2,0c-0.8,3-1.5,6.1-2.4,9.5
			c4.2,1.2,8.3,2.8,12.6,3.4c1.4,0.2,4.1-1.9,4.6-3.5C63.1,7.1,62.8,3.8,63,0.6z M28.7,52.3c4.2,2.4,7.3,1.1,8.7-3.3
			c1-3.1,1.4-5.8-1.8-7.8c-0.3-0.2-0.4-0.7-0.6-1c0.3-0.1,0.7-0.2,1-0.3c0.6,0.6,1.2,1.1,1.7,1.7c1.1,1.4,2.1,1.6,3.8,0.7
			c5.6-3.1,5.7-3.1,3.6-9.4c0.2-4-2.8-5.4-5.6-6.8c-0.7-0.3-2.3,0.1-2.6,0.6c-1.4,2.7-2.8,5.5-3.6,8.5c-0.3,1,1,2.4,1.5,3.6
			c0,0.1-0.2,0.3-0.1,0.1c-1.4-0.5-2.9-1.6-3.9-1.3c-6.1,1.6-6.9,3.1-6.2,9.3c0,0.2,0.1,0.4,0,0.6C24,50.8,26,51.9,28.7,52.3z
			 M21.6,39c2.7,0.7,9.5-2,10.6-4.4c1.2-2.5,2.1-5.1,3.3-8.1c-4-1.1-7.8-2.4-11.7-2.9c-1.4-0.2-4.3,1.5-4.3,2.3
			C19.5,30.3,18.4,35,21.6,39c-3.1-1.2-5.8,0.4-8.5,1.3c-4.4,1.4-1.9,5.1-2.1,7.6c-0.4,4.9,1.1,6.3,6.2,6.6c2.1,0.1,6.4-3,6.3-4.9
			C23.1,46.1,23.5,42.3,21.6,39z M36.3,25.5c0.7-0.8,1.8-1.5,2.1-2.5c0.9-2.6,1.3-5.4,2.1-8c0.6-1.8-0.1-2.9-1.6-3.6
			C38,11,37.1,10.5,36.2,10c-5.1-2.6-10.6,0.2-11.6,5.8c-0.2,1.4-0.6,2.7-0.6,4.1c0,0.8,0.5,2.2,1.1,2.4
			C28.6,23.5,32.2,24.4,36.3,25.5z"/>
		<path class="st2" d="M0.6,8.4c2.3,0.7,4.6,1.3,6.8,2.2c2.3,1,4.2,1,5.7-1.2c1.6-2.3,3.4-2.3,5.5-0.7c0.1,0.1,0.2,0.1,0.2,0.2
			c1.7,1.1,4.7,2.1,4.9,3.4c0.4,2.9,0,6.3-1.2,9c-0.6,1.4-4.2,3-5.4,2.4c-5.3-2.4-9.8-0.8-14.4,1.6c-0.6,0.3-1.3,0.3-2,0.5
			C0.6,20,0.6,14.2,0.6,8.4z"/>
		<path class="st2" d="M20.4,69c-1.9,0.5-3.8,0.9-5.7,1.4c-1.1,0.3-2.2,0.7-3.4,1l0,0c-3.6-2.6-7.2-5.2-10.8-7.8c0-2.2,0-4.4,0-6.6
			c1.5-0.5,3.2-0.6,4.5-1.4c3.8-2.3,7.5-1.5,11.1,0c1.5,0.6,2.5,0.5,3.6-0.6c0.8-0.8,2-1.3,3-2c1.7-1.3,3.1-1,4.2,0.7
			c-1,2.3-2,4.5-3,6.8C22.8,63.3,21.6,66.2,20.4,69z"/>
		<path class="st0" d="M180.6,170.4c0,3.4,0,6.8,0,10.2c-11.4,0-22.8,0-34.2,0c0-2.1,0-4.2,0-6.2c0-4.1,0.3-4.4,4.5-4.6
			c0.5,0,1,0,1.5,0c0.8,0.4,1.6,0.8,2.4,1.2c1.2,1,2.4,2,3.6,3c0.8,0.4,1.6,0.8,2.4,1.2c0.3,1.2,0.6,2.4,0.7,2.8
			c1.4-1.4,3.1-3,4.7-4.6c0.4-0.4,0.8-0.8,1.2-1.2C171.6,170.2,176.1,170.2,180.6,170.4z"/>
		<path class="st3" d="M180.6,85.2c0,3.4,0,6.8,0,10.2c-1.4,1-2.8,2-4.2,3c0,0,0,0,0,0c-0.8,0.6-1.6,1.2-2.4,1.8l0,0
			c-0.8,0.6-1.6,1.2-2.5,1.8c-0.2,0.2-0.4,0.3-0.5,0.5c-0.4,0.4-0.8,0.9-1.2,1.3c-0.2,0.2-0.3,0.3-0.5,0.5c-0.5,0-1,0-1.4,0
			c-2.2-3.2-4.3-6.3-6.5-9.5c0.4-1.1,0.8-2.1,1.2-3.2c0.4-0.6,0.8-1.2,1.2-1.8c0.6-0.8,1.2-1.6,1.8-2.4c0.4-0.6,0.8-1.2,1.2-1.8
			c2.5-2.2,5.2-1.6,8.1-0.8c1.5,0.4,3.1,0.2,4.7,0.2C179.9,85.2,180.2,85.2,180.6,85.2z"/>
		<path class="st2" d="M31.2,0.6c0,0.6,0,1.2,0,1.8c0.5,5.3,0.5,5.3-4.3,7.5c-1.1,0.5-2.7,0.5-3.8,0c-2.6-1.2-4.9-2.8-7.5-4.3
			c0.1-0.1-0.2,0-0.3,0.3c-3.4,5.1-7.7,4.2-12.3,1.8C2.2,7.4,1.4,7.4,0.6,7.2c0-2.2,0-4.4,0-6.6c4.8,0,9.6,0,14.4,0
			c0.1,0.7,0.1,1.3,0.2,2c0.2,0,0.4,0.1,0.5,0.1c0.2-0.7,0.3-1.4,0.5-2C21.2,0.6,26.2,0.6,31.2,0.6z"/>
		<path class="st4" d="M145.8,0.6c0.4,0,0.8,0,1.2,0c-0.4,1.6-0.9,3.2-1.2,4.9c-0.3,2.2-0.4,4.4-0.6,6.5c-0.5-0.2-0.9-0.3-1.3-0.5
			c-5.5-3.1-13.9-1.6-17.3,3.3c-2.1-1.3-4.2-3.3-6.5-3.7c-3.5-0.6-9.9,7-9.6,10.6c0,0.4,0.4,1,0.8,1.2c3.5,1.6,7,3.2,10.5,4.8
			c-0.6,2.2-1.2,4.4-1.8,6.6c-0.4,1.9-0.7,3.9-1.1,5.8l-0.2,0.2c-0.7-0.2-1.4-0.4-2.1-0.6c1.1-3.2,2.3-6.5,3.2-9.8
			c0.1-0.5-0.7-1.6-1.3-2c-2.6-1.5-5.2-2.9-8-4.1c-2.6-1.1-5.6,0.9-5.5,3.7c0.1,3,0.3,6,0.7,8.9c0.1,0.6,1,1.3,1.7,1.5
			c2.7,0.7,5.5,1.1,8.3,1.7c-0.6,0.4-1.5,0.7-1.6,1.1c-0.6,2.2-0.9,4.4-1.3,6.7c-0.2,0.6-0.4,1.3-0.6,1.9c-0.8,2.4-1.6,4.7-2.4,7.1
			c0.4-2.6,0.8-5.2,1.2-7.7c0.3-1,0.7-2,0.9-3.1c1.3-5.3,0.9-5.9-4.6-6.5c-0.4,0-0.8-0.1-1.2-0.1c-2.6,0.1-5,2.1-5.5,4.8
			c-0.7,2.5-2,4.9,0.2,7.3c-1.9-0.7-3.5-0.2-5.1,1.1c-0.5,0.4-1.4,0.5-2.1,0.7c0.5-0.6,1-1.4,1.6-1.7c4.1-1.5,3.4-5.4,4.3-8.5
			c0.1-0.4-0.2-1.4-0.5-1.6c-3.8-1.6-7.7-3-11.5-4.5c0.4-0.4,0.8-0.9,1.3-1.3c3,1.3,6,2.6,8.9,4c1.9,0.9,3.4,1,5.2-0.3
			c1.8-1.3,1.6-3,1.4-4.8c-0.3-2.9-0.5-5.8-0.9-9.4c-3-1.1-6.5-2.5-10-3.8c0.6-2,1.3-3.9,1.9-5.9c0.3-0.2,0.7-0.4,1-0.6
			c0,0.4,0.2,0.9,0,1.2c-1.5,3.4,0,5.2,3.1,6.3c0.7,0.3,1.5,0.6,2.1,1.1c1.7,1.2,3.2,0.9,5,0.1c4.2-1.7,3.4-6.1,5.9-9.5
			c-4.5-1.5-8.6-2.8-12.6-4.1c0.6-2.6,1.3-5.2,1.9-7.7c0.2-0.4,0.4-0.8,0.6-1.2c0.2,0,0.4,0,0.6,0c0,0.4,0.1,0.8,0,1.2
			c-0.3,2.2-1.5,5.1-0.6,6.5c1.1,1.7,4.2,1.9,6.3,3.1c3.2,1.9,6,1.1,8.9-0.6c1.4-0.8,1.7-1.6,1.3-3.1c-0.7-2.3-1-4.6-1.5-6.9
			c0.4,0,0.8,0,1.2,0c0.6,2.7,0.6,5.8,2,8c1.1,1.8,4.2,4,5.8,3.6c3-0.7,5.5-3.2,8.3-4.9c2.4,0.8,4.8,1.6,7.2,2.2
			c0.4,0.1,1.4-0.5,1.6-1C144.5,6,145.1,3.3,145.8,0.6z"/>
		<path class="st2" d="M0.6,27c1.9-0.6,3.9-1,5.5-2c3.1-1.9,6.1-1.8,9.3-0.4c0.8,0.4,1.7,0.5,2.4,0.8c0.2,3.2,0.4,6.3,0.7,9.4
			c0.2,1.6-0.5,2.3-2,3.1c-4.2,2-8.1,1.8-12.1-0.5c-1.1-0.7-2.6-0.9-3.9-1.3C0.6,33,0.6,30,0.6,27z"/>
		<path class="st2" d="M11.4,71.4c-0.5,2.7-1,5.4-1.5,7.8c0.4,0,1.6,0,2.7,0c0,0,0,0,0,0c0.2,0.4,0.4,0.8,0.6,1.2
			c-0.6,1.3-1.2,2.7-1.7,4c-1.1,2.8-2,5.7-3.1,8.5c-2.6-1-5.2-1.9-7.8-2.9c0-1,0-2,0-3c0.8-0.5,1.7-1,2.5-1.6
			C3,85.2,2.9,85,2.8,84.8c-0.7,0.1-1.4,0.3-2.2,0.4c0-6.6,0-13.2,0-19.8c1.4,0.7,2.8,1.3,4.1,2C7,68.7,9.2,70.1,11.4,71.4
			C11.4,71.4,11.4,71.4,11.4,71.4z M3.7,83.5c0.4,0.4,0.7,0.7,1.1,1.1c0.9-1.5,1.8-3,2.6-4.5C6.2,81.2,5,82.4,3.7,83.5z"/>
		<path class="st2" d="M0.6,121.8c0-3,0-6,0-9c1.7-0.3,3.5-0.5,5.2-1.1c3-1,5.8-0.7,8.5,1c2.1,1.3,4.4,2.2,6.7,3.2
			c-0.2,2.3-0.4,4.6-0.5,6.9c-0.8,0.1-1.6,0.2-2.3,0.4c-5.8,1.6-11.7,3.5-16.9-1.5C1.1,121.7,0.8,121.8,0.6,121.8z"/>
		<path class="st5" d="M180.6,55.2c0,3.6,0,7.2,0,10.8c-1.2,0.1-2.4,0.2-3.5,0.3c-4.2,0.5-8.4,0.9-12.6,1.4
			c-0.6-0.4-1.2-0.8-1.8-1.2c0-0.4,0.1-0.7,0.1-1.1c0.1,0,0.2,0,0.4,0c0.1,0,0.2,0.1,0.3,0.1c0.1,0,0.2-0.1,0.2-0.1
			c-0.1-1.7-0.1-3.3-0.4-5c-0.8-5.7,2.4-8.6,8.1-7.3C174.4,53.9,177.5,54.5,180.6,55.2z"/>
		<path class="st0" d="M180.6,118.2c0,2.2,0,4.4,0,6.6c-0.8,0.6-1.6,1.2-2.4,1.8c0,0,0,0,0,0c-1.6,1-3.2,2-4.8,3l0,0
			c-3.9,1.5-6.8-1.1-9.9-2.6c-0.4-0.2-0.9-1.2-0.7-1.7c1.5-4.7,3.1-9.3,4.6-13.8c2.4,0.9,4.5,1.8,6.6,2.6l0,0
			C176.2,115.4,178.4,116.8,180.6,118.2z"/>
		<path class="st0" d="M145.2,180.6c-4.2,0-8.4,0-12.6,0c0-1.1,0.1-2.1,0-3.2c-0.1-1.3-0.4-2.6-0.7-4c-4.3-1.3-8.4-4-13.3-2
			c1.2-1.3,3.3-2.4,3.6-3.8c0.7-3.4,0.6-6.9,0.8-10.4c3.9,0,7.9,0,12.4,0c-1-5.4-1.9-10.2-2.8-15c3.9-0.8,6.3-3,6.7-7.1
			c0-0.5,0.3-0.9,0.4-1.4c0,1.1,0.4,2.3,0.1,3.2c-1,2.4,0,3.6,1.9,4.8c1.9,1.2,3.6,2.7,5.4,4.1c0,0.2,0,0.4,0,0.6
			c-0.4,0-0.8,0-1.2,0c-2.1-1.6-4.2-3.3-6.4-4.8c-2-1.3-5.2,0.6-5,2.9c0.2,2.2,0.7,4.4,1.1,6.7c0.6,2.8,1.2,5.6,1.8,8.4
			c-4-0.4-7.9-0.9-11.9-1.2c-0.4,0-1.1,0.8-1.2,1.3c-0.3,2.5-0.6,5.1-0.6,7.7c0,0.7,0.5,2,1,2.2c3,1,6,1.7,9,2.6c0.2,0,0.4,0,0.7,0
			l0,0c0.8-0.6,1.6-1.2,2.4-1.8l0,0c1.2-0.4,2.4-0.7,3.6-1.2c2.6-1.1,4.8,0.2,4.8,3.1C145.2,175,145.2,177.8,145.2,180.6z"/>
		<path class="st6" d="M0.6,150.6c0-1.8,0-3.6,0-5.4l0.3,0c0,0,0.3-0.1,0.3-0.1c0.3-0.2,0.6-0.4,0.9-0.6c0.3-0.1,0.6-0.3,0.8-0.4
			c2.9-1.5,5.7-2.9,8.6-4.4c2.5,0.3,5,0.5,7.5,0.8c0.3,0.2,0.5,0.5,0.8,0.7c0,3.5,0,6.9,0,10.4c-3.5,1.1-6.9,2.2-10.4,3.4
			C6.5,153.5,3.5,152.1,0.6,150.6z"/>
		<path class="st2" d="M0.6,111.6c0-6.8,0-13.6,0-20.4c5,2,10,4,15.1,6.1c-1.9,4-3.4,7.6-5.1,11c-0.3,0.6-1,1.3-1.6,1.5
			C6.2,110.5,3.4,111,0.6,111.6z"/>
		<path class="st7" d="M180.6,10.2c0,7,0,14,0,21c-0.1-0.1-0.3-0.2-0.5-0.2c-3-1.7-6.1-3.4-9.1-5.2c-0.4-0.7-1-1.4-1.2-2.2
			c-0.6-3.1-1.1-6.2-1.5-9.3c-0.2-1.3-0.2-2.6-0.3-4.2C172.5,10.2,176.6,10.2,180.6,10.2z"/>
		<path class="st8" d="M44.4,180.6c-4.4,0-8.8,0-13.2,0c-0.2-1.4-0.4-2.8-0.6-4.2c-0.3-2.9-0.6-5.8-1-9.2c4.8-0.3,9.4-0.5,14-0.8
			c0.2,0.5,0.3,1.2,0.7,1.6c2.1,1.9,2.1,4,1.3,6.5C45,176.5,44.8,178.6,44.4,180.6z"/>
		<path class="st7" d="M102.6,180.6c-4.4,0-8.8,0-13.2,0c0-0.3,0-0.7,0.1-1c0.1-0.4,0.4-1,0.3-1.3c-1.8-3.3-3.7-6.5-5.6-9.7
			c0.7-0.4,1.4-1.1,2.1-1.2c4.2-0.1,8.5,0,12.7,0c0.2,0,0.4,0,0.5,0c0.4,0.2,0.9,0.5,1.3,0.7c1,1.2,2,2.4,3,3.5
			c0,0.4,0.1,0.7,0.1,1.1C103.5,175.3,103,178,102.6,180.6z"/>
		<path class="st1" d="M180.6,85.2c-0.4,0-0.7,0-1.1-0.1c-1.4-0.4-2.8-0.7-4.2-1.2c-2.3-0.7-4.5-1.6-6.7-2.4
			c-0.5-3.2-0.9-6.5-1.6-9.7c-0.5-2.1,0.1-3,2.1-3.2c3.8-0.5,7.7-1,11.5-1.5C180.6,73.2,180.6,79.2,180.6,85.2z"/>
		<path class="st2" d="M63,0.6c-0.2,3.2,0.1,6.5-0.8,9.4c-0.5,1.6-3.2,3.7-4.6,3.5c-4.3-0.6-8.4-2.2-12.6-3.4
			c0.9-3.4,1.6-6.5,2.4-9.5C52.6,0.6,57.8,0.6,63,0.6z"/>
		<path class="st5" d="M180.6,32.4c0,7.2,0,14.4,0,21.6c-3.5-0.7-7.1-1.4-10.5-2.3c-0.5-0.1-0.7-1.2-1-1.9c0.3-3.2,0.5-6.4,0.8-9.6
			c0.4-0.6,0.8-1.2,1.1-1.8c0,0,0,0,0,0c1-0.9,2-1.8,3-2.7c0.1-0.1,0.2-0.2,0.4-0.3c1.3-0.8,2.6-1.6,3.8-2.4l0,0
			C179,32.8,179.8,32.6,180.6,32.4z"/>
		<path class="st9" d="M15.6,180.6c-5,0-10,0-15,0c0-2.8,0-5.6,0-8.4l0.2,0.1c0,0,0.2-0.1,0.2-0.1c3-1.4,6-2.9,9.1-4.3
			c2.6-1.2,6.1-0.2,7.4,1.9C16.9,173.4,16.2,177,15.6,180.6z"/>
		<path class="st10" d="M145.2,12c0.2-2.2,0.3-4.4,0.6-6.5c0.2-1.7,0.8-3.3,1.2-4.9c4.8,0,9.6,0,14.4,0c0.2,1,0.4,2,0.6,3
			c0.2,1.3,0.3,2.7,0.5,4c-0.5,0.4-0.9,0.7-1.4,1.1c-0.4,0.2-0.7,0.5-1.1,0.7c-0.6,0.4-1.2,0.8-1.8,1.2c-0.5,0.5-1.1,0.9-1.6,1.4
			C152.9,12.1,149.1,12.1,145.2,12L145.2,12z"/>
		<path class="st11" d="M117.6,0.6c0.5,2.3,0.8,4.7,1.5,6.9c0.5,1.6,0.1,2.3-1.3,3.1c-2.9,1.7-5.7,2.5-8.9,0.6
			c-2-1.2-5.1-1.4-6.3-3.1c-0.9-1.4,0.3-4.2,0.6-6.5c0-0.4,0-0.8,0-1.2C108,0.6,112.8,0.6,117.6,0.6z"/>
		<path class="st0" d="M171,102.5c0.2-0.2,0.4-0.3,0.5-0.5c0.8-0.6,1.6-1.2,2.5-1.8c0,0,0,0,0,0c0.8-0.6,1.6-1.2,2.4-1.8
			c0,0,0,0,0,0c1.4-0.4,2.8-0.8,4.2-1.2c0,6.6,0,13.2,0,19.8c-2.2-1-4.4-2-6.6-3c0,0,0,0,0,0c-0.8-0.6-1.5-1.3-2.3-1.7
			c-4.4-2.6-4.6-3-2.4-7.9c0.2-0.2,0.3-0.3,0.5-0.5C170.2,103.4,170.6,103,171,102.5z"/>
		<path class="st11" d="M30.6,176.4c0.2,1.4,0.4,2.8,0.6,4.2c-4.8,0-9.6,0-14.4,0c0.6-3.8,1.1-7.5,1.7-11.3c0.1-0.2,0.1-0.5,0.2-0.7
			c1.2-0.6,2.4-1.1,3.6-1.7c1.5-0.2,3.1-0.4,4.6-0.6c0.6,1.5,1.3,3,1.8,4.5C29.4,172.6,30,174.5,30.6,176.4z"/>
		<path class="st12" d="M162.5,7.6c-0.2-1.3-0.3-2.7-0.5-4c0.2-1,0.4-2,0.6-3c5.9,0,11.9,0,18,0c0,3,0,6,0,9
			c-4.4,0-8.8-0.1-13.2-0.1C165.8,8.9,164.2,8.2,162.5,7.6z"/>
		<path class="st8" d="M134.9,7.3c-2.7,1.7-5.3,4.2-8.3,4.9c-1.7,0.4-4.7-1.8-5.8-3.6c-1.4-2.2-1.4-5.3-2-8c5,0,10,0,15,0
			c0.4,0.4,0.7,0.7,1.1,1.1C134.9,3.5,134.9,5.4,134.9,7.3z"/>
		<path class="st2" d="M67.8,13.9c-4.3-1.6-4.8-2.6-4.2-7.1c0.3-2,0.4-4.1,0.5-6.2c4.2,0,8.4,0,12.6,0c0,0.3,0.1,0.6,0.1,0.9
			c0.2,1.9,0.7,3.7,0.7,5.6c0,0.9-0.5,2.3-1.2,2.7C73.6,11.3,70.7,12.5,67.8,13.9z"/>
		<path class="st10" d="M63,180.6c-5.8,0-11.6,0-17.4,0c0.6-3.4,1.3-6.8,1.9-10.2c1.7,0,3.5,0,5.2,0c3.6,1.3,7.3,2.6,10.9,3.8
			C63.4,176.3,63.2,178.5,63,180.6z"/>
		<path class="st13" d="M0.6,171c0-6.4,0-12.8,0-19.2c1,0.4,2,0.7,2.9,1.2c2,0.9,4,1.9,6,2.9c0.4,3.4,0.8,6.9,1.2,10.7
			c-3,1.3-6.3,2.9-9.6,4.4C1,170.9,0.8,170.9,0.6,171z"/>
		<path class="st14" d="M63,180.6c0.2-2.1,0.4-4.3,0.6-6.4c0.8-0.8,1.7-1.4,2.3-2.3c1.7-2.2,3.7-3.2,6.4-2.6c1.6,0.3,3.3,0.6,5,0.9
			c-0.2,3.6-0.4,7-0.6,10.4C72.2,180.6,67.6,180.6,63,180.6z"/>
		<path class="st2" d="M2.9,144.2c-0.3,0.1-0.6,0.3-0.8,0.4c-0.3-0.2-0.6-0.4-0.9-0.6c-0.2,0-0.4,0-0.6,0c0-7,0-14,0-21
			c2.2,1.6,5.4,2.8,6.5,5.1c1.8,3.3,2.1,7.4,3.1,11.1c-1.3,0.7-2.6,1.4-3.8,2.2C5.2,142.2,4.1,143.2,2.9,144.2z"/>
		<path class="st0" d="M180.6,126c0,7.4,0,14.8,0,22.2c-1.4-1-2.8-2-4.2-3c-0.6-0.8-1.2-1.6-1.8-2.4c-0.6-0.8-1.2-1.6-1.8-2.4
			c-0.6-1-1.2-2-1.8-3c0-2.8-0.7-5.9,2.4-7.8c0,0,0,0,0,0c1.6-1,3.2-2,4.8-3c0,0,0,0,0,0C179,126.4,179.8,126.2,180.6,126z"/>
		<path class="st2" d="M0.6,37.2c2.7,1,5.4,2,8,3.2c0.5,0.2,0.9,1.2,1,1.9c0.2,1.1,0,2.2,0,3.3c-0.1,7.8-1.1,8.9-9,10.3
			C0.6,49.6,0.6,43.4,0.6,37.2z"/>
		<path class="st15" d="M173.4,129.6c-3.1,1.9-2.4,5-2.4,7.8c0,0,0,0,0,0c-3,1.4-6,2.9-9.2,4.4c1.6,3.2,2.9,6,4.4,8.7
			c0.3,0.6,1.3,1.3,1.8,1.1c3.3-1,6.5-2.1,9.8-3.2c-0.6-1.4-1-2.3-1.3-3.2l0,0c1.4,1,2.8,2,4.2,3c0,0.4,0,0.8,0,1.2
			c-5.6,0.2-10.5,2.4-14.7,4.5c-1.7-3.6-3.1-7.6-5.4-10.9c-0.8-1.2-3.8-0.9-5.7-1.3c0,0,0,0,0,0c-0.2-4.4-0.4-8.8-0.6-13.2
			c0-0.2,0-0.4,0-0.6c2.5-0.7,6.2-0.7,7.1-2.4c2.3-4,3.3-8.6,4.7-13.1c0.1-0.3-0.6-0.9-1-1.4c0-0.2,0-0.4,0-0.6
			c0.6-0.5,1.5-0.8,1.7-1.5c0.5-1.5,0.7-3,1.1-4.6c0.5,0,1,0,1.4,0c-2.1,4.9-2,5.3,2.4,7.9c0.8,0.5,1.5,1.2,2.3,1.7
			c-2.1-0.8-4.2-1.6-6.6-2.6c-1.5,4.5-3.1,9.1-4.6,13.8c-0.1,0.5,0.3,1.5,0.7,1.7C166.6,128.5,169.5,131.1,173.4,129.6z
			 M155.9,132.6c0.2,1.6,0.6,3.1,0.7,4.7c0.3,3.3,2.8,4.8,5.9,3.1c1.8-1,3.7-2,5.3-3.3c1-0.8,1.6-2.2,2-3.5c0.5-1.7-0.6-2.7-2.1-3.4
			c-1.5-0.6-2.8-1.5-4.3-2.1C159.5,126.7,156,128.8,155.9,132.6z"/>
		<path class="st5" d="M102.6,180.6c0.4-2.6,0.9-5.3,1.3-7.9c1.3-0.1,2.5-0.3,3.8-0.3c3.4-0.1,6.8-0.1,10.2-0.2l0,0
			c0.1,2.4,0.2,4.8,0.3,7.2c0,0.4,0,0.8,0,1.2C113,180.6,107.8,180.6,102.6,180.6z"/>
		<path class="st9" d="M102,1.8c-0.6,2.6-1.3,5.2-1.9,7.7l0.1,0c-0.2,0.2-0.4,0.4-0.6,0.6c0,0,0,0,0,0c-0.2,0.2-0.4,0.4-0.6,0.6
			c0,0,0,0,0,0c-0.2,0.2-0.4,0.4-0.6,0.6c0,0,0,0,0,0c-0.2,0.2-0.4,0.4-0.6,0.6c0,0,0,0,0,0c-0.2,0.2-0.4,0.4-0.6,0.6c0,0,0,0,0,0
			c-0.2-0.2-0.3-0.2-0.5,0c-0.4,0-0.8,0-1.3,0l0,0c-0.8-0.6-1.6-1.2-2.4-1.8l0,0c-1-0.6-2-1.2-3-1.8c0,0,0,0,0,0
			c-0.2-0.5-0.4-0.9-0.6-1.4c-0.2-1.1-0.3-2.3-0.5-3.4c0-0.8,0-1.6,0-2.4c0-0.3,0-0.7,0-1l-0.1-0.2c4.4,0,8.8,0,13.2,0
			C102,1,102,1.4,102,1.8z"/>
		<path class="st3" d="M118.2,180.6c0-0.4,0-0.8,0-1.2c0.2-2.6,0.4-5.3,0.6-7.9l-0.1-0.1c4.8-2.1,8.9,0.7,13.3,2
			c-0.2,2.4-0.3,4.8-0.5,7.2C127,180.6,122.6,180.6,118.2,180.6z"/>
		<path class="st4" d="M76.8,180.6c0.2-3.4,0.4-6.8,0.6-10.4c-1.7-0.3-3.4-0.6-5-0.9c-2.7-0.5-4.8,0.5-6.4,2.6
			c-0.7,0.9-1.5,1.5-2.3,2.3c-3.6-1.3-7.3-2.6-10.9-3.8c1.2-4.9,2.4-9.8,3.6-14.9c-2.5,0-4.9-0.3-7.1,0.1c-1.7,0.3-3.3,1.5-4.9,2.3
			c-0.8-1-1.6-2-2.4-3c1.8-0.2,3.6-0.5,5.4-0.7c3.4,0.1,6.8,0.1,10.3,0.2c-0.8,3.4-1.7,6.7-2.5,10.1c-1.4,5.5-1.3,5.4,4.1,7.4
			c2.4,0.9,4.2,1.4,6.3-0.9c1.9-2.1,2.5-3.7,1.3-6.2c-1-2.1-1.8-4.4-2.5-6.7c-0.5-1.8-0.8-3.6-1.1-5.4c4.2-0.4,8.4-0.7,12.6-1.1
			c0,0.2,0.1,0.5,0.1,0.7c-3.9,0.6-7.8,1.1-12,1.8c0.6,1.4,1.1,2.4,1.5,3.3c1,3.1,2,6.2,3.2,9.3c0.3,0.7,1.3,1.3,2.2,1.5
			c2.6,0.6,5.3,0.9,7.9,1.3c-0.2,3.8-0.4,7.6-0.7,11.3C77.6,180.6,77.2,180.6,76.8,180.6z"/>
		<path class="st2" d="M46.2,0.6c-1.2,3.6-2.4,7.2-3.6,10.8l0,0c-3-1.3-6.4-2.1-8.7-4.2c-1.4-1.2-1-4.4-1.5-6.6
			C37,0.6,41.6,0.6,46.2,0.6z"/>
		<path class="st12" d="M78,180.6c0.2-3.8,0.4-7.6,0.7-11.3c1.2-0.6,2.3-1.2,3.5-1.8c0.5,0.4,1,0.7,1.5,1.1c2,3.7,3.9,7.3,5.9,11
			c0,0.3,0,0.7-0.1,1C85.6,180.6,81.8,180.6,78,180.6z"/>
		<path class="st13" d="M88.9,4.2c0.2,1.1,0.3,2.3,0.5,3.4c-2.6,0.9-5.3,1.8-7.9,2.7c-0.3-0.1-0.7-0.2-1-0.2
			c-1.2-2.9-2.4-5.7-3.6-8.6c0-0.3-0.1-0.6-0.1-0.9c3.8,0,7.6,0,11.4,0c0.2,0.1,0.5,0.1,0.7,0.2c0,0.3,0,0.7,0,1
			C88.9,2.6,88.9,3.4,88.9,4.2z"/>
		<path class="st1" d="M0.6,111.6c2.8-0.6,5.6-1.1,8.4-1.8c0.6-0.2,1.3-0.9,1.6-1.5c1.7-3.5,3.3-7,5.1-11
			c-5.1-2.1-10.1-4.1-15.1-6.1c0-0.4,0-0.8,0-1.2c2.6,1,5.2,1.9,7.8,2.9c2.2,1,4.5,2,6.8,3.1c0.3-1,0.6-1.7,0.7-2.5
			c0.3-3.6,0.6-7.1,0.8-10.7c3.2,0,1.8,2.3,1.6,3.7c-0.4,3.3-1.1,6.5-1.7,9.8c2.3,0.3,4.1,0.6,5.9,0.8c1.9,0.1,3.8,0.1,5.7,0.2
			C28.1,97.6,28,98,28,98.4c-0.2,0-0.4,0-0.5,0.1c-2.9-0.2-5.9-0.6-8.8-0.6c-0.8,0-1.7,1.1-2.5,1.7c-1.3,2.7-2.5,5.4-3.9,8
			c-1,1.8-0.5,2.7,1.2,3.5c2.6,1.2,5.1,2.6,7.7,3.9c0,0.3,0.1,0.6,0.1,0.9l-0.2,0.1c-2.2-1.1-4.6-1.9-6.7-3.2c-2.8-1.7-5.5-2-8.5-1
			c-1.7,0.6-3.5,0.7-5.2,1.1C0.6,112.4,0.6,112,0.6,111.6z"/>
		<path class="st10" d="M134.9,7.3c0-1.9,0-3.8,0-5.7c0-0.3,0.1-0.7,0.1-1.1c3.6,0,7.2,0,10.8,0c-0.7,2.7-1.3,5.4-2.2,8
			c-0.1,0.5-1.1,1.1-1.6,1C139.7,8.9,137.3,8.1,134.9,7.3z"/>
		<path class="st15" d="M145.2,180.6c0-2.8,0-5.6,0-8.4c0-2.8-2.2-4.1-4.8-3.1c-1.2,0.5-2.4,0.8-3.6,1.2c4.9-3.6,4.9-3.6,1.9-9.3
			c0-0.1-0.1-0.2-0.1-0.3c0.2-0.2,0.4-0.4,0.6-0.6c0.4-0.2,0.8-0.4,1.2-0.6c0.5,3.6,0.4,7.5,4.6,9.2c2.6,1,5.8,0.1,7.3-2.2
			c1.8-2.7,3.6-5.4,5.5-8.2c-1-1.1-1.8-2.2-2.7-3.2c2.8,1.3,5.3,3.4,8.5,0.2c0.1,1.1,0.2,1.8,0.2,2.4c0,0,0,0,0,0
			c-1.5,0.3-3.8,0.1-4.5,1c-2.6,3.5-4.6,7.3-6.9,11l0,0c-0.5,0-1,0-1.5,0c-4.2,0.2-4.5,0.5-4.5,4.6c0,2.1,0,4.2,0,6.2
			C146,180.6,145.6,180.6,145.2,180.6z"/>
		<path class="st1" d="M10.2,139.2c-1-3.8-1.4-7.8-3.1-11.1c-1.2-2.2-4.3-3.4-6.5-5.1c0-0.4,0-0.8,0-1.2c0.2,0,0.5-0.1,0.6,0
			c5.2,5,11.1,3.1,16.9,1.5c0.8-0.2,1.6-0.3,2.3-0.4c0.4,0.4,0.8,0.9,1.2,1.3c-4.4,0.8-8.8,1.6-13.3,2.4c1.1,4.6,2.1,8.6,3,12.7
			C11,139.2,10.6,139.2,10.2,139.2z"/>
		<path class="st3" d="M180.6,67.2c-3.8,0.5-7.6,1.1-11.5,1.5c-2,0.3-2.6,1.2-2.1,3.2c0.7,3.2,1.1,6.4,1.6,9.7c-0.2,0-0.4,0-0.6,0
			c-0.2,0-0.3,0-0.5,0c-0.5-3.2-0.9-6.4-1.6-9.5c-0.3-1.5-1.1-2.8-1.7-4.2l0.2-0.1c4.2-0.5,8.4-1,12.6-1.4c1.2-0.1,2.4-0.2,3.5-0.3
			C180.6,66.4,180.6,66.8,180.6,67.2z"/>
		<path class="st3" d="M169,49.9c0.3,0.6,0.6,1.8,1,1.9c3.5,0.9,7,1.5,10.5,2.3c0,0.4,0,0.8,0,1.2c-3.1-0.7-6.2-1.3-9.3-2
			c-5.6-1.3-8.9,1.6-8.1,7.3c0.2,1.6,0.3,3.3,0.4,5c0,0-0.1,0.1-0.2,0.1c-0.1,0-0.2-0.1-0.3-0.1c-0.1-0.6-0.2-1.2-0.4-1.8
			c-0.1-1.4-0.1-2.8-0.2-4.2c-0.1-0.6-0.3-1.2-0.4-1.8c0-0.8-0.1-1.6-0.1-2.4c0.2-0.4,0.4-0.7,0.6-1.1c2-1.2,5.1-1,5.5-4.3
			C168.4,49.8,168.7,49.8,169,49.9z"/>
		<path class="st3" d="M167.4,9.5c4.4,0,8.8,0.1,13.2,0.1c0,0.2,0,0.4,0,0.6c-4,0-8.1,0-12.6,0c0.1,1.6,0.1,2.9,0.3,4.2
			c0.4,3.1,0.9,6.2,1.5,9.3c0.1,0.8,0.8,1.5,1.2,2.2c0,0.3,0,0.5,0.1,0.8c-0.8-0.1-1.7-0.2-2.5-0.3l-0.2-0.2l-0.1,0.2
			c-1.1,0.2-2.1,0.4-3.2,0.5c0-0.4,0-0.7,0-1.1c3.9-0.6,4-0.8,3.3-4.5c-0.7-3.7-1.2-7.5-1.8-11.2C166.9,10,167.1,9.7,167.4,9.5z"/>
		<path class="st4" d="M47.5,170.4c-0.6,3.4-1.3,6.8-1.9,10.2c-0.4,0-0.8,0-1.2,0c0.4-2,0.6-4.1,1.2-6c0.8-2.5,0.7-4.6-1.3-6.5
			c-0.4-0.4-0.5-1.1-0.7-1.6c0.1-0.1,0.2-0.3,0.4-0.4C45.1,167.5,46.3,168.9,47.5,170.4z"/>
		<path class="st15" d="M180.6,170.4c-4.5-0.2-9-0.2-13.2,1.8c0,0,0,0,0,0c1.2-1.2,2.4-2.4,3.6-3.6c0,0,0,0,0,0
			c3.2,0.2,6.4,0.4,9.6,0.6C180.6,169.6,180.6,170,180.6,170.4z"/>
		<path class="st1" d="M11.4,71.4c-2.2-1.3-4.4-2.7-6.7-4c-1.3-0.8-2.7-1.4-4.1-2c0-0.6,0-1.2,0-1.8C4.2,66.2,7.8,68.8,11.4,71.4z"
			/>
		<path class="st4" d="M18.5,169.3c-0.6,3.8-1.1,7.5-1.7,11.3c-0.4,0-0.8,0-1.2,0c0.6-3.6,1.3-7.2,1.9-10.7
			C17.8,169.7,18.2,169.5,18.5,169.3z"/>
		<path class="st16" d="M9.5,155.9c-2-1-4-2-6-2.9c-1-0.4-2-0.8-2.9-1.2c0-0.4,0-0.8,0-1.2c2.9,1.5,5.9,2.9,8.8,4.4
			C9.5,155.3,9.5,155.6,9.5,155.9z"/>
		<path class="st15" d="M131.4,180.6c0.2-2.4,0.4-4.8,0.5-7.2c0.2,1.3,0.5,2.6,0.7,4c0.1,1.1,0,2.1,0,3.2
			C132.2,180.6,131.8,180.6,131.4,180.6z"/>
		<path class="st15" d="M174,114c2.2,1,4.4,2,6.6,3c0,0.4,0,0.8,0,1.2C178.4,116.8,176.2,115.4,174,114z"/>
		<path class="st15" d="M180.6,97.2c-1.4,0.4-2.8,0.8-4.2,1.2c1.4-1,2.8-2,4.2-3C180.6,96,180.6,96.6,180.6,97.2z"/>
		<path class="st1" d="M0.6,85.2c0.7-0.1,1.4-0.3,2.2-0.4C2.9,85,3,85.2,3.1,85.4c-0.8,0.5-1.7,1-2.5,1.6
			C0.6,86.4,0.6,85.8,0.6,85.2z"/>
		<path class="st1" d="M180.6,32.4c-0.8,0.2-1.6,0.4-2.4,0.6c0.2-0.6,0.3-1.1,0.5-1.7c0.5-0.1,1-0.2,1.4-0.2c0.2,0,0.3,0.1,0.5,0.2
			C180.6,31.6,180.6,32,180.6,32.4z"/>
		<path class="st4" d="M162.6,0.6c-0.2,1-0.4,2-0.6,3c-0.2-1-0.4-2-0.6-3C161.8,0.6,162.2,0.6,162.6,0.6z"/>
		<path class="st15" d="M180.6,126c-0.8,0.2-1.6,0.4-2.4,0.6c0.8-0.6,1.6-1.2,2.4-1.8C180.6,125.2,180.6,125.6,180.6,126z"/>
		<path class="st1" d="M16.2,0.6c-0.2,0.7-0.3,1.4-0.5,2c-0.2,0-0.4-0.1-0.5-0.1c-0.1-0.7-0.1-1.3-0.2-2C15.4,0.6,15.8,0.6,16.2,0.6
			z"/>
		<path class="st4" d="M135,0.6c0,0.4-0.1,0.7-0.1,1.1c-0.4-0.4-0.7-0.7-1.1-1.1C134.2,0.6,134.6,0.6,135,0.6z"/>
		<path class="st17" d="M0.6,171c0.2-0.1,0.4-0.1,0.6-0.1c0,0.4-0.1,0.8-0.1,1.3c0,0-0.2,0.1-0.2,0.1l-0.2-0.1
			C0.6,171.8,0.6,171.4,0.6,171z"/>
		<path class="st1" d="M0.6,144c0.2,0,0.4,0,0.6,0c0,0.4,0,0.8,0,1.1l-0.3,0.1l-0.3,0C0.6,144.8,0.6,144.4,0.6,144z"/>
		<path class="st18" d="M102,1.8c0-0.4,0-0.8,0-1.2c0.2,0,0.4,0,0.6,0C102.4,1,102.2,1.4,102,1.8z"/>
		<path class="st18" d="M88.9,0.8c-0.2-0.1-0.5-0.1-0.7-0.2c0.2,0,0.4,0,0.6,0C88.8,0.6,88.9,0.8,88.9,0.8z"/>
		<path class="st3" d="M140.4,159.6c-0.4,0.2-0.8,0.4-1.2,0.6c-0.6-0.2-1.2-0.4-1.8-0.6l0,0c-0.6-2.8-1.2-5.6-1.8-8.4
			c3.4-1.6,6.8-3.2,10.3-4.8c0.4,0,0.8,0,1.2,0c0.2,1,0.4,2,0.6,3c0,0,0,0,0,0c-0.4,0.6-0.8,1.2-1.2,1.8c0,0,0,0,0,0
			c-0.4,0.6-0.9,1.2-1.3,1.8c-0.2,0.2-0.3,0.4-0.5,0.6c-0.4,0.6-0.8,1.2-1.2,1.8c0,0,0,0,0,0c-0.4,0.6-0.9,1.2-1.3,1.8
			c-0.2,0.2-0.3,0.4-0.5,0.6C141.2,158.4,140.8,159,140.4,159.6L140.4,159.6z"/>
		<path class="st15" d="M147.6,149.4c-0.2-1-0.4-2-0.6-3c0-0.2,0-0.4,0-0.6c0.6,0,1.2,0,1.8,0l0,0c0.9,1.9,1.9,3.9,2.9,6
			C150.4,151,149,150.2,147.6,149.4z"/>
		<path class="st15" d="M153,142.8c-0.8,0.6-1.6,1.2-2.4,1.8c0,0,0,0,0,0C151.4,144,152.2,143.4,153,142.8L153,142.8z"/>
		<path class="st15" d="M165,160.2c0.6,0.6,1.2,1.2,1.8,1.8c0,0,0,0,0,0C166.2,161.4,165.6,160.8,165,160.2L165,160.2z"/>
		<path class="st15" d="M168,164.4c0.6,0.6,1.2,1.2,1.8,1.8c0,0,0,0,0,0C169.2,165.6,168.6,165,168,164.4L168,164.4z"/>
		<path class="st15" d="M163.8,157.8c0.4,0.8,0.8,1.6,1.2,2.4c0,0,0,0,0,0C164.6,159.4,164.2,158.6,163.8,157.8L163.8,157.8z"/>
		<path class="st15" d="M166.8,162c0.4,0.8,0.8,1.6,1.2,2.4c0,0,0,0,0,0C167.6,163.6,167.2,162.8,166.8,162L166.8,162z"/>
		<path class="st15" d="M169.8,166.2c0.4,0.8,0.8,1.6,1.2,2.4c0,0,0,0,0,0C170.6,167.8,170.2,167,169.8,166.2L169.8,166.2z"/>
		<path class="st15" d="M140.4,159.6c0.4-0.6,0.8-1.2,1.2-1.9C141.2,158.4,140.8,159,140.4,159.6z"/>
		<path class="st15" d="M150.6,144.6c-0.6,0.4-1.2,0.8-1.8,1.2c0,0,0,0,0,0C149.4,145.4,150,145,150.6,144.6L150.6,144.6z"/>
		<path class="st15" d="M143.4,155.4c0.4-0.6,0.8-1.2,1.2-1.8C144.2,154.2,143.8,154.8,143.4,155.4z"/>
		<path class="st15" d="M154.8,141.6c-0.6,0.4-1.2,0.8-1.8,1.2c0,0,0,0,0,0C153.6,142.4,154.2,142,154.8,141.6
			C154.8,141.6,154.8,141.6,154.8,141.6z"/>
		<path class="st15" d="M142.1,157.2c0.4-0.6,0.9-1.2,1.3-1.8C143,156,142.5,156.6,142.1,157.2z"/>
		<path class="st15" d="M146.4,151.2c0.4-0.6,0.8-1.2,1.2-1.8C147.2,150,146.8,150.6,146.4,151.2z"/>
		<path class="st15" d="M145.1,153c0.4-0.6,0.9-1.2,1.3-1.8C146,151.8,145.5,152.4,145.1,153z"/>
		<path class="st19" d="M28.2,97.2c-1.9,0-3.8,0-5.7-0.2c-1.8-0.1-3.5-0.4-5.9-0.8c0.6-3.3,1.3-6.5,1.7-9.8c0.2-1.3,1.6-3.6-1.6-3.7
			c0,0,0,0,0,0c0-0.4,0-0.8,0-1.2c0.6-1.6,1.2-3.1,1.8-4.7c0.8-2.1,1.6-4.2,2.5-6.3c6,0.6,12,1.3,17.9,1.9c0.2,1.2,0.6,2.3,0.7,3.5
			c0.3,2,0.5,4,0.7,6c0,0-0.1,0-0.1,0c-0.6,0.5-1.2,0.9-1.8,1.4c0,0,0,0,0,0c-0.6,0.4-1.2,0.8-1.8,1.2l0,0c-0.6,0.4-1.2,0.8-1.8,1.2
			c0,0,0,0,0,0c-0.6,0.4-1.2,0.8-1.8,1.2l0,0c-0.6,0.4-1.2,0.8-1.8,1.2c-0.2,1.8-0.3,3.7-0.5,5.5C29.9,94.9,29,96,28.2,97.2z"/>
		<path class="st2" d="M42.6,11.4c4.6,1.1,9.3,2.2,13.9,3.4c0.5,0.1,1.1,1,1.1,1.5c-0.1,2.5-0.3,5-0.7,7.4c-0.1,0.5-1.1,1-1.8,1.2
			c-2.8,0.9-5.7,1.8-8.6,2.5c-3.8,0.9-7.1-2.5-6.2-6.2C41,17.9,41.8,14.7,42.6,11.4C42.6,11.4,42.6,11.4,42.6,11.4z"/>
		<path class="st2" d="M36.3,25.5c-4.1-1.1-7.7-2-11.2-3.2c-0.6-0.2-1-1.6-1.1-2.4c0-1.4,0.4-2.7,0.6-4.1c0.9-5.7,6.5-8.4,11.6-5.8
			c0.9,0.5,1.8,0.9,2.7,1.4c1.6,0.7,2.2,1.8,1.6,3.6c-0.8,2.7-1.3,5.4-2.1,8C38.1,24,37,24.8,36.3,25.5z"/>
		<path class="st6" d="M53.9,44.3c0.2-0.4,0.5-0.7,0.7-1.1c1-0.8,2-1.6,3-2.4l0,0c1.2-0.6,2.4-1.2,3.6-1.8c0,0,0,0,0,0
			c3.9-1.7,6.6,1.2,9.7,2.4c-0.5,3.4-1.1,6.8-1.3,10.3c-0.2,2.9-1.8,4.1-4.4,4.4c-3.1-1.9-6.2-3.7-9.2-5.7c-0.8-0.6-1.3-1.7-1.9-2.6
			C53.9,46.6,53.9,45.4,53.9,44.3z"/>
		<path class="st19" d="M38.9,71.6c-2.3-0.5-4.6-1.1-7-1.6c-1.7-0.4-2.2-1.4-1.9-3c0.4-2,0.8-4.1,1.1-6.2c0.3-1.9,0.6-3.9,0.8-5.8
			c3.2-1.8,6-1.2,8.7,0.9c1.5,1.1,3.2,1.9,4.9,2.9c0.2,1.8,0.4,3.5,0.6,5.3c0,0,0,0,0,0c-0.8,0.8-1.6,1.6-2.4,2.5l0,0
			c-0.2,0.4-0.4,0.8-0.6,1.2l0,0c-0.8,0.8-1.6,1.6-2.4,2.4c0,0,0,0,0,0C40.2,70.7,39.6,71.1,38.9,71.6z"/>
		<path class="st2" d="M21.6,39c-3.2-4-2.1-8.7-2.1-13.2c0-0.8,2.9-2.4,4.3-2.3c3.9,0.5,7.7,1.8,11.7,2.9c-1.2,3-2.1,5.6-3.3,8.1
			C31.1,37,24.3,39.7,21.6,39L21.6,39z"/>
		<path class="st19" d="M53.9,44.3c0,1.2,0.1,2.3,0.1,3.5c-0.6,1.4-1.3,2.7-1.9,4.1c0,0.2-0.1,0.3-0.3,0.3c-1.1,1-2.1,2.1-3.2,3.1
			l0,0c-0.2,0.4-0.4,0.8-0.6,1.2l0,0c-0.2,0.2-0.4,0.4-0.6,0.6c0,0,0,0,0,0c-0.6,0.2-1.2,0.5-1.8,0.7c-2.1-1.3-4.3-2.5-6.3-3.9
			c-0.7-0.5-1.4-1.6-1.3-2.3c0.9-3.9,1.7-7.4,6-9.8C48,39.6,51.1,41,53.9,44.3z"/>
		<path class="st2" d="M36,39.9c-0.3,0.1-0.7,0.2-1,0.3c-2.1,4-4.2,8.1-6.3,12.1c-2.8-0.4-4.8-1.5-4.2-4.8c0-0.2,0-0.4,0-0.6
			c-0.7-6.3,0.1-7.8,6.2-9.3c1.1-0.3,2.6,0.8,3.9,1.3c-0.1,0.2,0.1,0,0.1-0.1c-0.5-1.2-1.8-2.6-1.5-3.6c0.9-2.9,2.2-5.7,3.6-8.5
			c0.3-0.5,1.9-0.9,2.6-0.6c2.9,1.4,5.9,2.8,5.6,6.8c-2.3,1.1-4.8,2-7,3.3C36.9,37,35.1,37.8,36,39.9z"/>
		<path class="st2" d="M21.6,39c1.9,3.4,1.6,7.1,1.8,10.7c0.1,1.9-4.2,5-6.3,4.9c-5.1-0.3-6.6-1.7-6.2-6.6c0.2-2.6-2.2-6.2,2.1-7.6
			C15.8,39.4,18.5,37.8,21.6,39C21.6,39,21.6,39,21.6,39z"/>
		<path class="st2" d="M58.2,25.8c0.2-3.2,0.3-6.3,0.6-9.5c0.2-2.5,3.6-4.1,5.8-2.9c1,0.6,2.1,1,3.2,1.5c0.4,0.4,0.7,0.8,1.1,1.2
			c1,1.2,2,2.5,3.1,3.7c0.2,0.4,0.4,0.7,0.6,1.1c-0.2,0.5-0.4,1.1-0.6,1.6c-0.1,0.1-0.2,0.2-0.3,0.3c-1.1,0.6-2.2,1.2-3.2,1.9l0,0
			c-0.8,0.8-1.6,1.6-2.4,2.4c0,0,0,0,0,0c-1.4,0.8-2.8,1.6-4.2,2.4c-0.4-0.2-0.8-0.4-1.2-0.6c0,0,0,0,0,0
			C59.8,27.8,59,26.8,58.2,25.8L58.2,25.8z"/>
		<path class="st19" d="M54.5,42.1c-3.3-1.5-7.3-2.3-7.3-7.2c0.9-0.7,1.8-1.5,2.8-2c2.9-1.6,5.8-3.2,8.7-4.8
			c0.6,0.2,1.2,0.5,1.8,0.7c0,0,0,0,0,0c0.4,0.6,0.8,1.1,1.2,1.7c0,0,0.1,0.2,0.1,0.2c0.4,2.2,0.7,4.3,1.1,6.5
			c-0.6,0.6-1.2,1.2-1.8,1.8c0,0,0,0,0,0c-1.2,0.6-2.4,1.2-3.6,1.8c0,0,0,0,0,0C56.6,41.3,55.6,41.7,54.5,42.1z"/>
		<path class="st19" d="M20.4,69c1.2-2.8,2.4-5.6,3.6-8.5c1-2.3,2-4.5,3-6.8c3.8,0.6,4,0.9,3.3,4.6c-0.6,3-1.2,6.1-1.4,9.1
			c-0.2,2.6-1.6,3-3.6,2.7C23.7,69.9,22,69.4,20.4,69z"/>
		<path class="st19" d="M28.7,52.3c2.1-4,4.2-8.1,6.3-12.1c0.2,0.3,0.3,0.8,0.6,1c3.2,2,2.8,4.7,1.8,7.8
			C36.1,53.4,33,54.7,28.7,52.3z"/>
		<path class="st19" d="M36,39.9c-0.9-2.1,0.9-3,2.1-3.7c2.2-1.3,4.7-2.2,7-3.3c2,6.3,2,6.2-3.6,9.4c-1.6,0.9-2.7,0.8-3.8-0.7
			C37.2,41,36.6,40.5,36,39.9z"/>
		<path class="st2" d="M21,70.7c-0.8,2.1-1.7,4.2-2.5,6.3c-0.6,1.6-1.2,3.1-1.8,4.7c-1.4-0.8-2.8-1.6-4.2-2.4c0,0,0,0,0,0
			c0.2-2.2-0.5-5.2,0.7-6.3C15.1,71.1,17.8,69.1,21,70.7z"/>
		<path class="st2" d="M58.8,28.1c-2.9,1.6-5.8,3.1-8.7,4.8c-1,0.6-1.9,1.3-2.8,2c-0.6-1.9-1.2-3.7-2.1-6.3c4.6-1,8.8-1.9,13-2.9
			c0,0,0,0,0,0C58.4,26.6,58.6,27.3,58.8,28.1z"/>
		<path class="st16" d="M68.9,16.2c-0.4-0.4-0.7-0.8-1.1-1.2c0-0.4,0-0.7,0-1.1c2.9-1.4,5.8-2.6,8.6-4.1c0.7-0.4,1.2-1.8,1.2-2.7
			c0-1.9-0.4-3.7-0.7-5.6c1.2,2.9,2.4,5.7,3.6,8.6c-0.1,0.1-0.2,0.2-0.2,0.3c-3.7,1.5-7.4,2.9-11.1,4.4C68.9,14.9,69,15.7,68.9,16.2
			z"/>
		<path class="st16" d="M45.6,57.7c0.6-0.2,1.2-0.5,1.8-0.7c-1,2.2-1,4.3,0.9,5.9c1.1,0.9,2.6,1.3,3.9,1.9c0.1,0.2,0.3,0.4,0.4,0.7
			c0,0.4-0.1,0.7-0.1,1.1c-0.1,0.2-0.3,0.4-0.4,0.5c-1.4-2.6-3.6-3.6-6-2.8c-0.2-1.8-0.4-3.5-0.6-5.3C45.5,58.5,45.6,58.1,45.6,57.7
			z"/>
		<path class="st16" d="M38.9,71.6c0.6-0.5,1.3-0.9,1.9-1.4c-1.5,3.1,0,6,0.7,8.9c0.3,1.4,0.7,2.6-1.2,2.9c-0.2-2-0.4-4-0.7-6
			c-0.2-1.2-0.5-2.3-0.7-3.5C38.9,72.2,38.9,71.9,38.9,71.6z"/>
		<path class="st16" d="M54.5,42.1c1-0.4,2.1-0.9,3.1-1.3c-1,0.8-2,1.6-3,2.4C54.6,42.8,54.6,42.5,54.5,42.1z"/>
		<path class="st15" d="M166.2,173.4c-1.7,1.6-3.3,3.2-4.7,4.6c-0.1-0.4-0.4-1.6-0.7-2.8c0,0,0,0,0,0
			C162.6,174.6,164.4,174,166.2,173.4L166.2,173.4z"/>
		<path class="st15" d="M158.4,174c-1.2-1-2.4-2-3.6-3c0,0,0,0,0,0C156,172,157.2,173,158.4,174L158.4,174z"/>
		<path class="st15" d="M154.8,171c-0.8-0.4-1.6-0.8-2.4-1.2c0,0,0,0,0,0C153.2,170.2,154,170.6,154.8,171L154.8,171z"/>
		<path class="st15" d="M160.8,175.2c-0.8-0.4-1.6-0.8-2.4-1.2c0,0,0,0,0,0C159.2,174.4,160,174.8,160.8,175.2L160.8,175.2z"/>
		<path class="st15" d="M167.4,172.2c-0.4,0.4-0.8,0.8-1.2,1.2c0,0,0,0,0,0C166.6,173,167,172.6,167.4,172.2L167.4,172.2z"/>
		<path class="st16" d="M167.8,104.4c-0.3,1.5-0.5,3.1-1.1,4.6c-0.2,0.6-1.1,1-1.7,1.5c-1.7,0-3.4,0-5.1-0.1
			c-2.7-0.1-5.4-0.4-8.2-0.6c0,0,0,0,0,0l0.2-0.1l0.2,0c3.9-3.9,5.5-8.8,7.8-14.3c-3.2,0-5.7,0-8.2,0c0-0.4,0-0.8,0-1.2
			c2.6,0,5.2,0,7.8,0c0.6,0.2,1.1,0.5,1.7,0.7C163.5,98.1,165.6,101.2,167.8,104.4z"/>
		<path class="st0" d="M168,81.6c0.2,0,0.4,0,0.6,0c2.2,0.8,4.5,1.6,6.7,2.4c1.4,0.5,2.8,0.8,4.2,1.2c-1.6,0-3.2,0.2-4.7-0.2
			c-2.9-0.8-5.6-1.3-8.1,0.8c0,0-0.1-0.1-0.1-0.1c0.4-0.9,0.8-1.9,1.2-2.8C167.9,82.5,168,82,168,81.6z"/>
		<path class="st0" d="M161.3,94.9c-0.6-0.2-1.1-0.5-1.7-0.7c1-0.8,1.9-1.7,2.9-2.5l0.1,0.1C162.1,92.8,161.7,93.9,161.3,94.9z"/>
		<path class="st15" d="M174,100.2c-0.8,0.6-1.6,1.2-2.5,1.8C172.3,101.4,173.2,100.8,174,100.2z"/>
		<path class="st0" d="M165.6,87.6c-0.6,0.8-1.2,1.6-1.8,2.4c0,0-0.1-0.1-0.1-0.1c0.6-0.8,1.2-1.6,1.8-2.4L165.6,87.6z"/>
		<path class="st15" d="M176.4,98.4c-0.8,0.6-1.6,1.2-2.4,1.8C174.8,99.6,175.6,99,176.4,98.4z"/>
		<path class="st0" d="M166.8,85.8c-0.4,0.6-0.8,1.2-1.2,1.8c0,0-0.1-0.1-0.1-0.1C165.9,86.9,166.3,86.3,166.8,85.8L166.8,85.8z"/>
		<path class="st0" d="M163.8,90c-0.4,0.6-0.8,1.2-1.2,1.8c0,0-0.1-0.1-0.1-0.1C162.9,91.1,163.3,90.5,163.8,90L163.8,90z"/>
		<path class="st15" d="M171,102.5c-0.4,0.4-0.8,0.9-1.2,1.3C170.2,103.4,170.6,103,171,102.5z"/>
		<path class="st20" d="M109.8,56.4c0.8-2.4,1.6-4.7,2.4-7.1c0.2-0.6,0.4-1.3,0.6-1.9c2.5,1.3,5.1,2.4,7.6,3.9
			c0.9,0.5,1.4,1.6,2.1,2.5c-0.4,0.3-0.8,0.5-1.3,0.8c-2.4,1.5-3.2,6.5-1.8,10.2c0.7-3.2,1.4-6.6,2.1-9.9c0.3-0.1,0.7-0.2,1-0.3
			c1.9,2.8,3.8,5.5,5.6,8.3c0.6,0.9,1.2,1.8,1.7,2.7c-1.5,0.7-2.9,1.7-4.5,2.1c-2.6,0.7-3.3,2.2-3.6,4.8c-0.5,4.1,0.2,9.2-5.3,11
			c-0.1,0-0.3,0-0.4,0c-2.7-5.2-5.5-10.4-8.2-15.6c-0.2,0.1-0.5,0.3-0.7,0.4c2.5,4.9,4.9,9.9,7.6,15.1c-1.8,0.3-3.3,0.5-4.7,0.7
			c-0.8-1.5-1.6-2.9-2.3-4.4c-1.5-3.2-3.7-5.4-7.3-5.8c0.6-2,1.1-4,1.7-6c1.5-0.6,3.1-1.1,4.7-1.7c0.2-2.7,0.5-5.4,0.7-8
			c0.2-0.4,0.4-0.7,0.7-1.1C108.7,56.8,109.2,56.6,109.8,56.4z"/>
		<path class="st10" d="M120,34.2c0.6-2.2,1.2-4.4,1.8-6.6c0,0,0,0,0,0c0.4-0.2,0.8-0.4,1.2-0.6c0,0,0,0,0,0c1-0.8,2-1.6,3-2.4
			c0,0,0,0,0,0c0.2-0.2,0.4-0.4,0.6-0.6l0,0c1.9,0.5,3.8,1,5.7,1.5c0.1-0.2,0.1-0.3,0.2-0.5c-1.8-0.8-3.6-1.5-5.4-2.3
			c-0.2-2.7-0.3-5.3-0.5-8c3.4-4.8,11.7-6.4,17.3-3.3c0.4,0.2,0.9,0.4,1.3,0.5c0,0,0,0,0,0c0,0.1,0,0.3,0,0.4
			c-0.4,0.8-1,1.6-1.1,2.4c-0.3,1.9-0.5,3.9-0.6,5.8c0,1.3,0.3,2.6,0.5,3.9c0.8,1.2,1.6,2.4,2.4,3.6c1.7,3,1.6,5.7-1.4,7.8
			c-0.3,0.3-0.6,0.6-1,1c-0.4,0.5-0.8,0.9-1.2,1.4l0,0c-0.2,0.2-0.4,0.4-0.6,0.6l0,0c-1.2,0-2.7,0.4-3.6-0.1
			c-3.2-2.1-6.3-2.6-9.5-0.3C126,37.1,123,35.7,120,34.2z M132.8,35.6c0.3,0,0.6,0,1,0c-0.3-3-0.6-5.9-0.9-8.9
			c-0.3,0-0.6,0.1-0.9,0.1C132.3,29.7,132.6,32.7,132.8,35.6z"/>
		<path class="st14" d="M120,34.2c3,1.4,6,2.9,9,4.3c-2.6,1.1-5.2,2.3-7.8,3.4c-0.2-0.2-0.5-0.4-0.7-0.5c-0.1,0.1-0.1,0.2-0.2,0.3
			c0.3,0.1,0.5,0.3,0.8,0.4c1,2,2.2,3.9,2.9,6c0.4,1.2,0.1,2.6,0.1,3.9c-0.3,0.1-0.5,0.3-0.8,0.4c0.1,0.1,0.2,0.2,0.2,0.4
			c0.2-0.2,0.5-0.4,0.7-0.5c2.7-1.5,4.4,0.9,6.5,1.7c4,1.6,2.9,5.5,3.4,8.5c0.1,0.7-2.8,2-4.4,2.9c-0.6-0.9-1.1-1.8-1.7-2.7
			c-1.9-2.8-3.8-5.5-5.6-8.3c0-0.3,0-0.6,0-0.8c-0.7-0.8-1.2-2-2.1-2.5c-2.4-1.4-5-2.6-7.6-3.9c0.4-2.2,0.7-4.5,1.3-6.7
			c0.1-0.5,1.1-0.8,1.6-1.1c0.3,0,0.6,0.1,0.9,0.1c0.7,0.2,1.4,0.4,2.1,0.6c0.1,0.1,0.2,0.2,0.4,0.3c-0.1-0.2-0.1-0.4-0.2-0.5
			C119.3,38.1,119.7,36.2,120,34.2z"/>
		<path class="st21" d="M93.5,21c3.5,1.3,6.9,2.6,10,3.8c0.3,3.6,0.6,6.5,0.9,9.4c0.2,1.8,0.4,3.5-1.4,4.8c-1.8,1.3-3.3,1.2-5.2,0.3
			c-2.9-1.5-6-2.7-8.9-4c0-3.5,0-7,0-10.5c0.2-0.1,0.4-0.1,0.6-0.2c0.6-0.6,1.2-1.2,1.8-1.8c0,0,0,0,0,0C92,22.2,92.8,21.6,93.5,21
			L93.5,21z"/>
		<path class="st21" d="M87.5,36.6c3.8,1.5,7.7,3,11.5,4.5c0.3,0.1,0.6,1.1,0.5,1.6c-0.9,3.1-0.2,7-4.3,8.5
			c-0.7,0.2-1.1,1.1-1.6,1.7c0,0,0,0,0,0c-0.4,0.4-0.8,0.8-1.2,1.2c0,0,0,0,0,0c-0.4,0-0.8,0.1-1.2,0.1c-1.8-0.7-3.6-1.3-5.4-2
			c-1.3-3-2.7-5.9-4-8.9c0.3-1.2,0.7-2.4,1-3.7l0,0c1-0.6,2-1.2,3-1.8c0,0,0,0,0,0C86.4,37.4,87,37,87.5,36.6
			C87.6,36.6,87.5,36.6,87.5,36.6z"/>
		<path class="st9" d="M88.8,24.8c0,3.5,0,7,0,10.5c-0.4,0.4-0.8,0.9-1.3,1.3c0,0,0.1,0,0.1,0c-0.6,0.4-1.2,0.8-1.8,1.2c0,0,0,0,0,0
			c-1,0.6-2,1.2-3,1.8c0,0,0,0,0,0c-0.8,0.2-1.6,0.5-2.4,0.7c-2,0-4-0.1-6-0.1c0-1.1-0.1-2.2,0-3.3c0.6-4.2,1.4-8.3,2.1-12.5
			c0.1-0.3,0.2-0.6,0.3-0.9c0.2-0.1,0.5-0.3,0.7-0.4l0.1-0.1C81.7,21.2,85.2,23.1,88.8,24.8z"/>
		<path class="st22" d="M107.4,58.1c-0.2,2.6-0.5,5.3-0.7,8c-1.6,0.6-3.1,1.2-4.7,1.7c-3.2-1.3-6.5-2.6-9.7-3.9
			c-0.3-2.6-0.6-5.2-0.9-7.8c0.4-0.7,0.7-1.5,1.1-2.2c0,0,0,0,0,0c0.4-0.4,0.8-0.8,1.2-1.2c0,0,0,0,0,0c0.7-0.2,1.6-0.3,2.1-0.7
			c1.5-1.3,3.2-1.8,5.1-1.1c0,0,0,0,0,0c0.4,0.4,0.8,0.8,1.2,1.2l0,0c0.8,0.8,1.6,1.6,2.4,2.4l0,0c0.4,0.4,0.8,0.8,1.2,1.2l0,0
			C106.2,56.6,106.8,57.3,107.4,58.1z"/>
		<path class="st8" d="M126.6,14.8c0.2,2.7,0.3,5.3,0.5,8c-0.2,0.4-0.4,0.8-0.5,1.2c0,0,0,0,0,0c-0.2,0.2-0.4,0.4-0.6,0.6
			c0,0,0,0,0,0c-1,0.8-2,1.6-3,2.4c0,0,0,0,0,0c-0.4,0.2-0.8,0.4-1.2,0.6c0,0,0,0,0,0c-3.5-1.6-7-3.2-10.5-4.8
			c-0.4-0.2-0.7-0.7-0.8-1.2c-0.3-3.6,6.1-11.1,9.6-10.6C122.5,11.4,124.5,13.5,126.6,14.8z"/>
		<path class="st8" d="M116.6,39.7c-0.3,0-0.6-0.1-0.9-0.1c-2.8-0.5-5.6-1-8.3-1.7c-0.7-0.2-1.6-0.9-1.7-1.5c-0.4-3-0.6-5.9-0.7-8.9
			c-0.1-2.8,2.9-4.8,5.5-3.7c2.7,1.2,5.4,2.6,8,4.1c0.6,0.4,1.5,1.5,1.3,2C118.9,33.2,117.7,36.4,116.6,39.7z"/>
		<path class="st11" d="M100.1,9.5c4,1.3,8,2.6,12.6,4.1c-2.4,3.4-1.6,7.8-5.9,9.5c-1.8,0.7-3.4,1.1-5-0.1c-0.6-0.5-1.4-0.8-2.1-1.1
			c-3.2-1.1-4.6-2.9-3.1-6.3c0.1-0.3,0-0.8,0-1.2c0.1-0.3,0.2-0.5,0.2-0.8c0.1-0.4,0.3-0.8,0.4-1.2c0,0,0,0,0,0
			c0.2-0.2,0.4-0.4,0.6-0.6c0,0,0,0,0,0c0.2-0.2,0.4-0.4,0.6-0.6c0,0,0,0,0,0c0.2-0.2,0.4-0.4,0.6-0.6c0,0,0,0,0,0
			c0.2-0.2,0.4-0.4,0.6-0.6c0,0,0,0,0,0C99.8,10,100,9.8,100.1,9.5C100.2,9.6,100.1,9.5,100.1,9.5z"/>
		<path class="st9" d="M95.5,15.1c-0.6,2-1.3,3.9-1.9,5.9c0,0,0,0,0,0c-0.8,0.6-1.6,1.2-2.4,1.8c0,0,0,0,0,0
			c-0.6,0.2-1.1,0.5-1.7,0.7c-2.4-0.9-4.8-1.7-7.2-2.6c-0.1-0.9-0.1-1.8-0.3-2.7c-0.3-1.7-0.6-3.4-1-5.1c0.2-0.6,0.4-1.1,0.6-1.7
			l0.1,0c2.8-0.8,5.5-1.6,8.3-2.4c0,0,0,0,0,0c1,0.6,2,1.2,3,1.8c0,0,0,0,0,0c0.8,0.6,1.6,1.2,2.4,1.8c0,0,0,0,0,0
			C95.4,13.4,95.4,14.3,95.5,15.1z"/>
		<path class="st23" d="M109.8,56.4c-0.6,0.2-1.1,0.4-1.7,0.6c-0.8-0.4-1.7-0.8-2.5-1.2c0,0,0,0,0,0c-0.4-0.4-0.8-0.8-1.2-1.2
			c0,0,0,0,0,0c-0.8-0.8-1.6-1.6-2.4-2.4c0,0,0,0,0,0c-0.4-0.4-0.8-0.8-1.2-1.2c0,0,0,0,0,0c-2.2-2.4-0.9-4.8-0.2-7.3
			c3.5,1.6,6.9,3.3,10.4,4.9C110.6,51.2,110.2,53.8,109.8,56.4z"/>
		<path class="st20" d="M111,48.6c-3.5-1.6-6.9-3.3-10.4-4.9c0.5-2.6,2.9-4.7,5.5-4.8c0.4,0,0.8,0,1.2,0.1c5.5,0.6,5.9,1.2,4.6,6.5
			C111.7,46.6,111.3,47.6,111,48.6z"/>
		<path class="st24" d="M95.5,15.1c0-0.8-0.1-1.7-0.1-2.5c0.4,0,0.8,0,1.3,0c0,0.4,0,0.8,0.1,1.2c-0.1,0.3-0.2,0.5-0.2,0.8
			C96.1,14.7,95.8,14.9,95.5,15.1z"/>
		<path class="st19" d="M16.8,82.8c-0.3,3.6-0.5,7.1-0.8,10.7c-0.1,0.8-0.4,1.5-0.7,2.5c-2.3-1.1-4.6-2.1-6.8-3.1
			c1-2.8,2-5.7,3.1-8.5c0.5-1.4,1.1-2.7,1.7-4C14.4,81.2,15.6,82,16.8,82.8C16.8,82.8,16.8,82.8,16.8,82.8z"/>
		<path class="st1" d="M3.7,83.5c1.3-1.1,2.5-2.3,3.8-3.4c-0.9,1.5-1.8,3-2.6,4.5C4.5,84.3,4.1,83.9,3.7,83.5z"/>
		<path class="st1" d="M16.8,82.8c-1.2-0.8-2.4-1.6-3.6-2.4c-0.2-0.4-0.4-0.8-0.6-1.2c1.4,0.8,2.8,1.6,4.2,2.4
			C16.8,82,16.8,82.4,16.8,82.8z"/>
		<path class="st18" d="M21.7,124.2c-0.4-0.4-0.8-0.9-1.2-1.3c0.2-2.3,0.4-4.6,0.5-6.9c0,0,0.2-0.1,0.2-0.1c0.2-0.2,0.4-0.5,0.7-0.7
			c0.1-0.1,0.2-0.2,0.3-0.3c0.7-0.6,1.3-1.2,2-1.8l0.2-0.1c0.3-0.2,0.6-0.5,0.9-0.7l0,0c0.8-0.6,1.6-1.2,2.4-1.8c0,0,0,0,0,0
			c1.9,0.9,3.9,1.8,5.8,2.7c1.7,0.8,2.1,2,2,3.8c-0.3,5.8-1.9,10.3-8.5,11.2c-0.4,0.1-0.8,0.2-1.1,0.3c-0.6-0.2-1.1-0.5-1.7-0.7
			l0,0.1c-0.2-0.4-0.4-0.8-0.6-1.2l0,0C22.8,125.8,22.2,125,21.7,124.2C21.6,124.2,21.7,124.2,21.7,124.2z"/>
		<path class="st7" d="M162.5,59.5c0.1,1.4,0.1,2.8,0.2,4.2c0,0.6,0,1.2,0,1.8c0,0.4-0.1,0.7-0.1,1.1c-0.8,0.4-1.7,0.8-2.5,1.1
			c-0.4-1-0.7-2-1.2-3c-1.6-3.3-3.2-6.5-4.8-9.8c0.1-1.9,1.3-1.6,2.5-1.2c1.8,0.5,3.6,1,5.4,1.5c0,0.8,0.1,1.6,0.1,2.4
			C162.3,58.2,162.4,58.8,162.5,59.5z"/>
		<path class="st16" d="M160.2,67.7c0.8-0.4,1.7-0.8,2.5-1.1c0.6,0.4,1.2,0.8,1.8,1.2c0,0-0.2,0.1-0.2,0.1c-2.9,1.2-6.5,1.8-8.6,3.9
			c-1.8,1.8-1.8,5.3-2.6,8c-0.4,0-0.9,0-1.3,0c0.7-2.4,1.5-4.7,2-7.1c0.2-0.9-0.3-2.2-0.9-2.9c-1.6-1.6-3.5-2.8-5.3-4.2
			c0.2-0.2,0.3-0.3,0.5-0.5c0.9,0.5,1.9,0.8,2.5,1.5C153.4,69.5,156.6,70.1,160.2,67.7z"/>
		<path class="st1" d="M162.8,65.4c0-0.6,0-1.2,0-1.8c0.1,0.6,0.2,1.2,0.4,1.8C163,65.4,162.9,65.4,162.8,65.4z"/>
		<path class="st15" d="M178.2,126.6c-1.6,1-3.2,2-4.8,3C175,128.6,176.6,127.6,178.2,126.6z"/>
		<path class="st3" d="M154.8,141.6c-0.6,0.4-1.2,0.8-1.8,1.2c-0.8,0.6-1.6,1.2-2.4,1.8c-0.6,0.4-1.2,0.8-1.8,1.2
			c-0.6,0-1.2,0-1.8,0c-1.8-1.4-3.4-3-5.4-4.1c-2-1.2-2.9-2.4-1.9-4.8c0.4-0.9,0-2.1-0.1-3.2c0.1-0.4,0.2-0.8,0.2-1.1
			c0.1-0.4,0.3-0.9,0.4-1.3c0.1-0.6,0.2-1.1,0.2-1.7c0.1,0,0.3,0,0.4,0c4.3-1.8,8.4-5.4,13.3-1.2
			C154.4,132.8,154.6,137.2,154.8,141.6z"/>
		<path class="st1" d="M138.6,160.8c0,0.1,0.1,0.2,0.1,0.3c3,5.6,3,5.6-1.9,9.3c0,0,0,0,0,0c-0.8,0.6-1.6,1.2-2.4,1.8c0,0,0,0,0,0
			c-0.2,0-0.4,0-0.7,0c-3-0.8-6.1-1.6-9-2.6c-0.5-0.2-1-1.4-1-2.2c0.1-2.6,0.3-5.1,0.6-7.7c0.1-0.5,0.8-1.3,1.2-1.3
			c4,0.3,7.9,0.8,11.9,1.2c0,0,0,0,0,0C137.8,160,138.2,160.4,138.6,160.8z"/>
		<path class="st5" d="M132.5,142.2c0.9,4.8,1.8,9.7,2.8,15c-4.5,0-8.4,0-12.4,0c-0.6-1-1.2-1.9-1.8-2.9c1.8-3.8,3.6-7.6,5.4-11.5
			C128.6,142.6,130.6,142.4,132.5,142.2z"/>
		<path class="st25" d="M121.2,154.3c0.6,1,1.2,1.9,1.8,2.9c-0.2,3.5-0.1,7-0.8,10.4c-0.3,1.5-2.3,2.6-3.6,3.8c0,0,0.1,0.1,0.1,0.1
			c-0.3,0.2-0.6,0.4-0.8,0.7c0,0,0,0,0,0c-1.4-0.6-2.9-1.3-4.3-1.9c0.1-1.2,0.3-2.3,0.1-3.5c-0.5-4.1-1.1-8.1-1.7-12.2
			c3-0.4,5.5-0.7,8-1.1C120.4,153.8,120.8,154,121.2,154.3z"/>
		<path class="st1" d="M145.9,146.4c-3.4,1.6-6.8,3.2-10.3,4.8c-0.4-2.2-1-4.4-1.1-6.7c-0.2-2.4,3-4.2,5-2.9
			C141.7,143.1,143.7,144.8,145.9,146.4z"/>
		<path class="st25" d="M132.5,142.2c-2,0.2-3.9,0.4-5.9,0.6c-0.5-0.3-1.1-0.5-1.6-0.8c-0.1-0.1-0.2-0.2-0.2-0.3
			c0.4-0.2,0.8-0.5,1.2-0.7c4.5-2.6,10.3-3.6,12.4-9.5c0.3-0.7,1.3-1.2,1.9-1.8c0,0,0.2,0,0.2,0c-0.1,0.6-0.2,1.1-0.2,1.7
			c-0.1,0.4-0.3,0.9-0.4,1.3c-0.1,0.4-0.2,0.8-0.2,1.1c-0.2,0.5-0.4,0.9-0.4,1.4C138.8,139.2,136.4,141.4,132.5,142.2z"/>
		<path class="st15" d="M134.4,172.2c0.8-0.6,1.6-1.2,2.4-1.8C136,171,135.2,171.6,134.4,172.2z"/>
		<path class="st15" d="M133.7,172.1c0.2,0,0.4,0,0.7,0C134.2,172.2,133.9,172.1,133.7,172.1z"/>
		<path class="st26" d="M19.8,151.6c0-3.5,0-6.9,0-10.4c0.2-0.4,0.5-0.9,0.7-1.3c0,0,0,0,0,0c0.8-0.4,1.5-0.9,2.3-1.3c0,0,0,0,0,0
			c3,1.5,5.9,2.9,8.9,4.4c0.9,0.5,1.7,1.1,2.6,1.6c0.2,0,0.3,0.1,0.5,0.1c0,1.7,0,3.4,0,5.1c-0.2,0.4-0.4,0.9-0.6,1.3c0,0,0,0,0,0
			c-0.2,0.2-0.4,0.4-0.6,0.6c0,0,0,0,0,0c-0.2,0.2-0.4,0.4-0.6,0.6c0,0,0,0,0,0c-0.2,0.2-0.4,0.4-0.6,0.6c0,0,0,0,0,0
			c-0.2,0.2-0.4,0.4-0.6,0.6l0,0c-0.2,0.2-0.4,0.4-0.6,0.6l0,0c-0.2,0.2-0.4,0.4-0.6,0.6l0,0c-0.2,0.2-0.4,0.4-0.6,0.6l0,0
			c-0.2,0.2-0.4,0.4-0.6,0.6l0,0c-0.2,0.2-0.4,0.4-0.6,0.6c0,0,0,0,0,0c-0.2,0.2-0.4,0.4-0.6,0.6c0,0,0,0,0,0
			c-0.2,0.2-0.4,0.4-0.6,0.6l0,0c-0.2,0.2-0.4,0.4-0.6,0.6c0,0,0,0,0,0c-0.2,0-0.4,0-0.6,0c-0.7-0.5-1.4-1-2.1-1.4
			c-0.2-0.2-0.4-0.4-0.6-0.6c-0.5-0.5-0.9-1.1-1.4-1.6c-0.2-0.2-0.4-0.4-0.6-0.6c-0.2-0.2-0.4-0.4-0.6-0.6
			C20.7,152.8,20.3,152.2,19.8,151.6z"/>
		<path class="st19" d="M11.4,139.2c-1-4-1.9-8-3-12.7c4.5-0.8,8.9-1.6,13.3-2.4c0,0,0,0,0,0c0.6,0.8,1.2,1.6,1.8,2.4c0,0,0,0,0,0
			c0.2,0.4,0.4,0.8,0.6,1.2c0,0,0-0.1,0-0.1c0.2,0.8,0.4,1.6,0.7,2.5c-0.6,2.8-1.3,5.6-1.9,8.4c0,0,0,0,0,0
			c-0.8,0.4-1.5,0.9-2.3,1.3c0,0,0,0,0,0c-0.5,0.2-1,0.4-1.5,0.6c-2.5-0.3-5-0.5-7.5-0.8C11.5,139.6,11.4,139.4,11.4,139.2z"/>
		<path class="st24" d="M19.8,151.6c0.4,0.6,0.9,1.2,1.3,1.8c-0.2,0.2-0.3,0.4-0.5,0.6c-1.9-2.1-3.7-0.4-5.4,0.2
			c-5.4,1.8-5.4,1.9-4.1,7.3c1.2,5.2,1.4,5.3,6.7,6c0.3,0,0.6,0,0.9,0c0,0.4,0,0.7,0,1.1c-0.1,0.2-0.1,0.5-0.2,0.7
			c-0.3,0.2-0.7,0.3-1,0.5c-1.3-2.2-4.8-3.1-7.4-1.9c-3,1.4-6.1,2.8-9.1,4.3c0-0.4,0.1-0.8,0.1-1.3c3.3-1.5,6.6-3,9.6-4.4
			c-0.4-3.8-0.8-7.2-1.2-10.7c0-0.3,0-0.6-0.1-0.9C12.9,153.9,16.4,152.7,19.8,151.6z"/>
		<path class="st16" d="M11.4,139.2c0.1,0.2,0.1,0.4,0.2,0.6c-2.9,1.5-5.7,2.9-8.6,4.4c1.1-0.9,2.2-1.9,3.5-2.8
			c1.2-0.8,2.5-1.5,3.8-2.2C10.6,139.2,11,139.2,11.4,139.2z"/>
		<path class="st24" d="M19,140.5c0.5-0.2,1-0.4,1.5-0.6c-0.2,0.4-0.5,0.9-0.7,1.3C19.6,141,19.3,140.8,19,140.5z"/>
		<path class="st16" d="M1.2,145.1c0-0.4,0-0.8,0-1.1c0.3,0.2,0.6,0.4,0.9,0.6C1.8,144.7,1.5,144.9,1.2,145.1z"/>
		<path class="st16" d="M180.1,31c-0.5,0.1-1,0.2-1.4,0.2c-2.5-1.5-5.1-3.1-7.6-4.6c0-0.3,0-0.5-0.1-0.8
			C174,27.6,177.1,29.3,180.1,31z"/>
		<path class="st4" d="M30.6,176.4c-0.6-1.9-1.2-3.8-1.8-5.7c-0.5-1.5-1.2-3-1.8-4.5c0.1-0.1,0.2-0.2,0.3-0.4
			c5.3-0.3,10.6-0.7,15.9-1c0.3,0.4,0.5,0.7,0.8,1.1c-0.1,0.1-0.3,0.3-0.4,0.4c-4.6,0.3-9.2,0.5-14,0.8
			C30,170.6,30.3,173.5,30.6,176.4z"/>
		<path class="st12" d="M99.5,167.4c-0.2,0-0.4,0-0.5,0c-0.9-0.2-1.8-0.5-2.8-0.5c-4.3-0.1-8.5-0.1-12.8-0.1c0-0.6-0.1-1.1-0.1-1.7
			c0-0.6,0-1.1,0.1-1.7c0.6-1,1.2-1.9,1.8-2.9c0.1-0.2,0.2-0.3,0.3-0.3c0.3-0.2,0.6-0.4,0.9-0.6c0,0,0,0,0,0
			c0.2-0.2,0.4-0.4,0.6-0.6l0,0c2-0.5,3.1-1.7,3-3.9c0-0.2,0.1-0.3,0.3-0.3c0.3-0.2,0.6-0.4,0.9-0.6l0,0c3.6,0.8,7.2,1.6,10.9,2.3
			C101.2,160.1,100.4,163.8,99.5,167.4z"/>
		<path class="st17" d="M103.8,171.6c-1-1.2-2-2.4-3-3.5c0.7-4.8,0.8-9.8,4.4-13.6c0.8-0.3,1.7-0.9,2.5-0.8c1.1,0.2,3,0.8,3.1,1.4
			c0.8,5,1.3,10.1,1.9,15.2C109.7,170.8,106.8,171.2,103.8,171.6z"/>
		<path class="st1" d="M103.8,171.6c3-0.4,5.9-0.9,8.9-1.3c0.3,0,0.6,0,0.9,0c1.4,0.6,2.9,1.3,4.3,1.9c-3.4,0.1-6.8,0.1-10.2,0.2
			c-1.3,0-2.5,0.2-3.8,0.3C103.9,172.4,103.9,172,103.8,171.6z"/>
		<path class="st16" d="M105.2,154.5c-3.6,3.9-3.7,8.8-4.4,13.6c-0.4-0.2-0.9-0.5-1.3-0.7c0.8-3.6,1.7-7.3,2.5-10.9
			c0.4-0.5,0.8-1.1,1.2-1.6c0.6-0.2,1.2-0.5,1.7-0.7C105,154.3,105.1,154.4,105.2,154.5z"/>
		<path class="st16" d="M89.5,179.6c-2-3.7-3.9-7.3-5.9-11c0.2,0,0.4,0,0.5,0c1.9,3.2,3.8,6.5,5.6,9.7
			C89.9,178.6,89.6,179.2,89.5,179.6z"/>
		<path class="st3" d="M84.1,168.6c-0.2,0-0.4,0-0.5,0c-0.5-0.4-1-0.7-1.5-1.1c0.4-0.3,0.9-0.5,1.3-0.8c4.3,0,8.5,0.1,12.8,0.1
			c0.9,0,1.9,0.3,2.8,0.5c-4.2,0-8.5-0.1-12.7,0C85.5,167.4,84.8,168.2,84.1,168.6z"/>
		<path class="st7" d="M171,26.7c2.5,1.5,5.1,3.1,7.6,4.6c-0.2,0.6-0.3,1.1-0.5,1.7c0,0,0,0,0,0c-1.3,0.8-2.6,1.6-3.8,2.4
			c-0.1,0.1-0.3,0.2-0.4,0.3c-1,0.9-2,1.8-3,2.7c0,0,0,0,0,0c-0.4,0.2-0.8,0.4-1.2,0.6c-3.5-0.9-7-1.9-10.6-2.8
			c1.5-3.3,2.8-6.2,4.1-9.1c0.6,0,1.1-0.1,1.7-0.1c1.1-0.2,2.1-0.4,3.2-0.5c0,0,0.2,0,0.2,0l0.2,0C169.3,26.5,170.2,26.6,171,26.7z"
			/>
		<path class="st1" d="M169,49.9c-0.3,0-0.6,0-0.9,0c0.2-2.4,0.4-4.8,0.5-7.2c0.4-0.8,0.8-1.6,1.2-2.4l0.1,0
			C169.6,43.4,169.3,46.6,169,49.9z"/>
		<path class="st1" d="M174.4,35.4c1.3-0.8,2.6-1.6,3.8-2.4C176.9,33.8,175.6,34.6,174.4,35.4z"/>
		<path class="st1" d="M171,38.4c1-0.9,2-1.8,3-2.7C173,36.6,172,37.5,171,38.4z"/>
		<path class="st1" d="M169.8,39c0.4-0.2,0.8-0.4,1.2-0.6c-0.4,0.6-0.8,1.2-1.1,1.8c0,0-0.1,0-0.1,0C169.8,39.8,169.8,39.4,169.8,39
			z"/>
		<path class="st14" d="M146.4,28.2c-0.8-1.2-1.6-2.4-2.4-3.6c0.4-4,0.8-8.1,1.2-12.1c0-0.1,0-0.3,0-0.4c3.8,0,7.6,0,11.4,0
			c-0.3,3.5-0.6,7-0.9,10.4c-2.6,1.8-5.1,3.7-7.7,5.5C147.5,28.1,146.9,28.1,146.4,28.2z"/>
		<path class="st4" d="M155.7,22.5c0.3-3.5,0.6-7,0.9-10.4c0.5-0.5,1.1-0.9,1.6-1.4c0.1,0.1,0.2,0.3,0.4,0.4c-0.3,3.3-1,6.7-0.6,10
			c0.2,1.4,2.5,2.5,3.9,3.8c0.3,0.3,0.5,0.6,0.8,0.9c-0.1,0.1-0.2,0.3-0.4,0.4c-2.1-1-4.2-2.1-6.3-3.1
			C156,22.8,155.9,22.6,155.7,22.5z"/>
		<path class="st4" d="M167.4,9.5c-0.3,0.2-0.5,0.5-0.8,0.7c-1.7-0.4-3.4-0.7-5.1-1.1c-0.1-0.2-0.2-0.3-0.4-0.4
			c0.5-0.4,0.9-0.7,1.4-1.1C164.2,8.2,165.8,8.9,167.4,9.5z"/>
		<path class="st4" d="M158.3,10.7c0.6-0.4,1.2-0.8,1.8-1.2c0.1,0.1,0.3,0.3,0.4,0.4c-0.6,0.4-1.2,0.8-1.8,1.2
			C158.5,10.9,158.4,10.8,158.3,10.7z"/>
		<path class="st4" d="M160,9.4c0.4-0.2,0.7-0.5,1.1-0.7c0.1,0.1,0.3,0.3,0.4,0.4c-0.4,0.2-0.7,0.4-1.1,0.7
			C160.3,9.7,160.2,9.5,160,9.4z"/>
		<path class="st4" d="M26.9,166.3c-1.5,0.2-3.1,0.4-4.6,0.6c-0.1-0.1-0.2-0.2-0.3-0.3c1.2-0.6,2.5-1.2,3.7-1.8
			c0.5,0.4,1,0.7,1.5,1.1C27.1,166,27,166.2,26.9,166.3z"/>
		<path class="st4" d="M18.7,168.6c0-0.4,0-0.7,0-1.1c1.1-0.3,2.2-0.6,3.4-0.9c0.1,0.1,0.2,0.2,0.3,0.3
			C21.1,167.5,19.9,168.1,18.7,168.6z"/>
		<path class="st14" d="M44,166c-0.3-0.4-0.5-0.7-0.8-1.1c0.4-2.4,0.8-4.8,1.2-7.1c1.6-0.8,3.2-2,4.9-2.3c2.2-0.4,4.5-0.1,7.1-0.1
			c-1.3,5.2-2.4,10-3.6,14.9c-1.7,0-3.5,0-5.2,0C46.3,168.9,45.1,167.5,44,166z"/>
		<path class="st15" d="M171,137.4c0.6,1,1.2,2,1.8,3c0,0,0,0,0,0C172.2,139.4,171.6,138.4,171,137.4L171,137.4z"/>
		<path class="st15" d="M172.8,140.4c0.6,0.8,1.2,1.6,1.8,2.4l0,0C174,142,173.4,141.2,172.8,140.4L172.8,140.4z"/>
		<path class="st15" d="M174.6,142.8c0.6,0.8,1.2,1.6,1.8,2.4c0,0,0,0,0,0C175.8,144.4,175.2,143.6,174.6,142.8L174.6,142.8z"/>
		<path class="st3" d="M165,111c0.4,0.5,1.1,1,1,1.4c-1.4,4.4-2.4,9.1-4.7,13.1c-0.9,1.6-4.7,1.6-7.1,2.4c-3.7-2-3.9-5.4-3.6-9
			c0.2-2.4,0-4.8,0-7.1C155.4,111.4,160.2,111.2,165,111z"/>
		<path class="st0" d="M155.9,132.6c0.1-3.8,3.6-5.9,7.5-4.4c1.5,0.6,2.8,1.5,4.3,2.1c1.6,0.7,2.6,1.7,2.1,3.4c-0.4,1.3-1,2.6-2,3.5
			c-1.6,1.3-3.4,2.3-5.3,3.3c-3.1,1.6-5.6,0.2-5.9-3.1C156.4,135.7,156.1,134.2,155.9,132.6z"/>
		<path class="st0" d="M174.6,142.8c0.6,0.8,1.2,1.6,1.8,2.4c0.4,0.9,0.8,1.8,1.3,3.2c-3.3,1.1-6.5,2.3-9.8,3.2
			c-0.5,0.1-1.5-0.6-1.8-1.1c-1.5-2.7-2.8-5.5-4.4-8.7c3.2-1.5,6.2-3,9.2-4.4c0.6,1,1.2,2,1.8,3C173.4,141.2,174,142,174.6,142.8z"
			/>
		<path class="st0" d="M150.6,111.6c0,2.4,0.1,4.8,0,7.1c-0.3,3.7-0.1,7,3.6,9c0,0.2,0,0.4,0,0.6c-4.8-4.2-9-0.7-13.3,1.2
			c0.1-0.5,0.1-1.1,0.2-1.6c2.3-0.9,4.6-1.7,6.9-2.7c0.6-0.3,1.3-1.3,1.3-2c0.3-3.7,0.3-7.3,0.5-11
			C150,112.1,150.3,111.8,150.6,111.6C150.5,111.5,150.6,111.6,150.6,111.6z"/>
		<path class="st0" d="M165,111c-4.8,0.2-9.6,0.4-14.4,0.6c0,0-0.1-0.1-0.1-0.1c0-0.2,0-0.4,0-0.6c0.1-0.2,0.1-0.3,0.3-0.5
			c0.3-0.2,0.7-0.4,1-0.7c2.7,0.2,5.4,0.4,8.2,0.6c1.7,0.1,3.4,0,5.1,0.1C165,110.6,165,110.8,165,111z"/>
		<path class="st0" d="M117.9,172.2c0.3-0.2,0.6-0.4,0.8-0.7c-0.2,2.6-0.4,5.3-0.6,7.9C118.1,177,118,174.6,117.9,172.2z"/>
		<path class="st24" d="M90,9c-2.8,0.8-5.5,1.6-8.3,2.5c-0.1-0.4-0.1-0.8-0.2-1.2c2.6-0.9,5.3-1.8,7.9-2.7C89.6,8.1,89.8,8.6,90,9z"
			/>
		<path class="st24" d="M93,10.8c-1-0.6-2-1.2-3-1.8C91,9.6,92,10.2,93,10.8z"/>
		<path class="st24" d="M95.4,12.6c-0.8-0.6-1.6-1.2-2.4-1.8C93.8,11.4,94.6,12,95.4,12.6z"/>
		<path class="st18" d="M88.9,4.2c0-0.8,0-1.6,0-2.4C88.9,2.6,88.9,3.4,88.9,4.2z"/>
		<path class="st4" d="M96.7,13.7c0-0.4,0-0.8-0.1-1.2c0.2-0.2,0.3-0.2,0.5,0C97,12.9,96.9,13.3,96.7,13.7z"/>
		<path class="st4" d="M100.2,9.6c-0.2,0.2-0.4,0.4-0.6,0.6C99.8,10,100,9.8,100.2,9.6z"/>
		<path class="st4" d="M99,10.8c-0.2,0.2-0.4,0.4-0.6,0.6C98.6,11.2,98.8,11,99,10.8z"/>
		<path class="st4" d="M98.4,11.4c-0.2,0.2-0.4,0.4-0.6,0.6C98,11.8,98.2,11.6,98.4,11.4z"/>
		<path class="st4" d="M97.8,12c-0.2,0.2-0.4,0.4-0.6,0.6C97.4,12.4,97.6,12.2,97.8,12z"/>
		<path class="st4" d="M99.6,10.2c-0.2,0.2-0.4,0.4-0.6,0.6C99.2,10.6,99.4,10.4,99.6,10.2z"/>
		<path class="st14" d="M83.3,163.4c0,0.6,0,1.1-0.1,1.7c-2.6-1.1-5.3-2.3-7.9-3.4c-3.3-1.5-6.7-3-10-4.4c-0.4-1-0.9-1.9-1.5-3.3
			c4.3-0.6,8.2-1.2,12-1.8c0-0.2-0.1-0.5-0.1-0.7c-4.2,0.4-8.4,0.7-12.6,1.1c-0.5,0-1-0.1-1.6-0.1c-0.4-3-0.7-6.1-1.1-9.1
			c0,0,0-0.3,0-0.3c3.2-1.8,6.3-3.7,9.5-5.5c0.6,0.4,1.1,0.9,1.7,1.3c0.6,0.6,1.3,1.1,1.9,1.7c0.6,0.4,1.1,0.9,1.7,1.3
			c0.6,0.6,1.3,1.1,1.9,1.7c0.6,0.4,1.1,0.9,1.7,1.3c-0.2,1.3-0.3,2.7-0.5,4l0,0c-2,1-2.2,2.5-1.1,4.3
			C79.4,156.5,81.4,159.9,83.3,163.4z"/>
		<path class="st11" d="M44.4,157.8c-0.4,2.4-0.8,4.8-1.2,7.1c-5.3,0.3-10.6,0.7-15.9,1c-0.5-0.4-1-0.7-1.5-1.1c0-1.7,0-3.4,0-5.1
			c0.2-0.2,0.4-0.4,0.7-0.6c0.2-0.2,0.4-0.5,0.5-0.7c0,0,0,0,0,0c0.2-0.2,0.4-0.4,0.6-0.6c0,0,0,0,0,0c0.2-0.2,0.4-0.4,0.6-0.6
			c0,0,0,0,0,0c0.2-0.2,0.4-0.4,0.6-0.6c0,0,0,0,0,0c0.2-0.2,0.4-0.4,0.6-0.6c0,0,0,0,0,0c0.2-0.2,0.4-0.4,0.6-0.6c0,0,0,0,0,0
			c0.2-0.2,0.4-0.4,0.6-0.6c0,0,0,0,0,0c0.2-0.2,0.4-0.4,0.6-0.6c0,0,0,0,0,0c0.2-0.2,0.4-0.4,0.6-0.6c0,0,0,0,0,0
			c0.2-0.2,0.4-0.4,0.6-0.6c0,0,0,0,0,0c0.2-0.2,0.4-0.4,0.6-0.6c0,0,0,0,0,0c0.2-0.2,0.4-0.4,0.6-0.6c0,0,0,0,0,0
			c0.2-0.2,0.4-0.4,0.6-0.6c0,0,0,0,0,0c1,0.2,2,0.4,3,0.6c0,0,0,0,0,0c1.6,1,3.2,2,4.8,3l0,0C42.8,155.8,43.6,156.8,44.4,157.8z"/>
		<path class="st10" d="M61.7,152.4c0.5,0,1,0.1,1.6,0.1c0.4,1.8,0.6,3.7,1.1,5.4c0.7,2.3,1.4,4.6,2.5,6.7c1.3,2.6,0.6,4.2-1.3,6.2
			c-2.1,2.4-3.9,1.8-6.3,0.9c-5.4-2-5.5-1.9-4.1-7.4c0.8-3.4,1.7-6.7,2.5-10.1c0.9-0.4,1.7-0.9,2.6-1.3c0.1-0.2,0.3-0.3,0.4-0.5l0,0
			C61,152.4,61.4,152.4,61.7,152.4z"/>
		<path class="st8" d="M60.2,152.9c-0.9,0.4-1.7,0.9-2.6,1.3c-3.4-0.1-6.8-0.1-10.3-0.2c0-3.5,0-7,0-10.5c1.2-0.3,2.5-0.5,3.7-0.9
			c3.2-1,6.4-2.6,9.5,0.4c0,0,0,0.3,0,0.3c0,3.1,0,6.1,0.1,9.2c0,0,0,0,0,0C60.5,152.6,60.4,152.7,60.2,152.9z"/>
		<path class="st11" d="M47.4,143.6c0,3.5,0,7,0,10.5c-1.8,0.2-3.6,0.5-5.4,0.7c0,0,0,0,0,0c-1.6-1-3.2-2-4.8-3c0,0,0,0,0,0
			c-0.8-0.7-1.6-1.3-2.4-2c0-1.7,0-3.4,0-5.1c0.7-0.6,1.3-1.1,2-1.7c2.8-2.2,5.6-2.2,8.5-0.2C45.8,143.3,46.7,143.3,47.4,143.6z"/>
		<path class="st10" d="M65.4,157.2c3.3,1.5,6.7,3,10,4.4c2.6,1.2,5.2,2.3,7.9,3.4c0,0.6,0.1,1.1,0.1,1.7c-0.4,0.3-0.8,0.5-1.3,0.8
			c-1.2,0.6-2.3,1.2-3.5,1.8c-2.6-0.4-5.3-0.8-7.9-1.3c-0.8-0.2-1.9-0.8-2.2-1.5C67.4,163.4,66.4,160.3,65.4,157.2z"/>
		<path class="st16" d="M81.5,10.3c0.1,0.4,0.1,0.8,0.2,1.2c0,0-0.1,0-0.1,0c-0.5-0.4-0.9-0.8-1.4-1.2c0.1-0.1,0.2-0.2,0.2-0.3
			C80.9,10.2,81.2,10.2,81.5,10.3z"/>
		<path class="st19" d="M16.1,99.6c0.8-0.6,1.7-1.7,2.5-1.7c2.9,0,5.9,0.4,8.8,0.6c0.1,3.6,0.2,7.3,0.3,10.9
			c-0.1,0.4-0.1,0.7-0.2,1.1c0,0,0,0,0,0c-0.8,0.6-1.6,1.2-2.4,1.8c0,0,0,0,0,0c-0.4,0-0.7,0-1.1,0c-0.8-0.8-1.7-1.5-2.2-2.5
			C19.9,106.4,18,103,16.1,99.6z"/>
		<path class="st2" d="M16.1,99.6c1.9,3.4,3.8,6.8,5.8,10.2c0.6,0.9,1.5,1.6,2.2,2.5c0,0.2,0.1,0.5,0.1,0.7c0,0-0.2,0.1-0.2,0.1
			c-0.7,0.6-1.3,1.2-2,1.8c-0.1,0.1-0.2,0.1-0.3,0.3c-0.3-0.1-0.5-0.1-0.8-0.2c-2.6-1.3-5.1-2.6-7.7-3.9c-1.7-0.8-2.2-1.7-1.2-3.5
			C13.6,105,14.8,102.2,16.1,99.6z"/>
		<path class="st24" d="M28.2,97.2c0.9-1.1,1.7-2.3,2.6-3.4c0.9,0.8,1.7,1.8,2.8,2.2c3,1.2,6.1,2.1,9.2,3.1
			c-0.2,2.2-0.5,4.3-0.7,6.5c-0.7,7.3-0.7,7.3,6.7,8.5c0,0.4-0.1,0.8-0.1,1.2c-3.2-0.7-6.3-1.3-9.5-2c0.4-0.4,1-0.8,1.1-1.3
			c0.5-3.2,0.8-6.5,1.3-9.7c0.3-2.1-0.4-3.1-2.5-3.5c-1.7-0.3-3.4-0.8-5.1-1.5c-2.2-0.9-4-0.9-5.5,1.1c-0.1,0.1-0.3,0-0.4,0
			C28,98,28.1,97.6,28.2,97.2z"/>
		<path class="st16" d="M27.8,109.4c-0.1-3.6-0.2-7.3-0.3-10.9c0.2,0,0.3-0.1,0.5-0.1c0.1,0.1,0.3,0.1,0.4,0
			c0.2,3.6,0.4,7.2,0.6,10.8C28.6,109.3,28.2,109.3,27.8,109.4z"/>
		<path class="st24" d="M21.1,114.9c0.3,0.1,0.5,0.1,0.8,0.2c-0.2,0.2-0.4,0.5-0.7,0.7C21.2,115.5,21.1,115.2,21.1,114.9z"/>
		<path class="st0" d="M167.4,172.2c-0.4,0.4-0.8,0.8-1.2,1.2c-1.8,0.6-3.6,1.2-5.4,1.8c-0.8-0.4-1.6-0.8-2.4-1.2
			c-1.2-1-2.4-2-3.6-3c-0.8-0.4-1.6-0.8-2.4-1.2c2.2-3.7,4.3-7.5,6.9-11c0.7-0.9,3-0.7,4.5-1c0.4,0.8,0.8,1.6,1.2,2.4
			c0.6,0.6,1.2,1.2,1.8,1.8c0.4,0.8,0.8,1.6,1.2,2.4c0.6,0.6,1.2,1.2,1.8,1.8c0.4,0.8,0.8,1.6,1.2,2.4
			C169.8,169.8,168.6,171,167.4,172.2z"/>
		<path class="st0" d="M138.6,160.8c-0.4-0.4-0.8-0.8-1.2-1.2c0.6,0.2,1.2,0.4,1.8,0.6C139,160.4,138.8,160.6,138.6,160.8z"/>
		<path class="st25" d="M153,79.8c0.8-2.7,0.8-6.3,2.6-8c2.1-2.1,5.7-2.7,8.6-3.9c0.6,1.4,1.4,2.8,1.7,4.2c0.7,3.2,1.1,6.4,1.6,9.5
			c-4.1-0.5-8.1-0.9-12.2-1.4c0,0.3-0.1,0.6-0.1,0.8c4.2,0.6,8.5,1.2,12.7,1.8c-0.4,0.9-0.8,1.9-1.2,2.8c-0.4,0.6-0.8,1.2-1.2,1.8
			c-0.6,0.8-1.2,1.6-1.8,2.4c-0.4,0.6-0.8,1.2-1.2,1.8c-1,0.8-1.9,1.7-2.9,2.5c-2.6,0-5.2,0-7.8,0c-0.2,0-0.3-0.1-0.5-0.1
			c-0.2-0.4-0.4-0.8-0.7-1.2c0-0.2,0-0.4-0.1-0.5c-0.1-1-0.4-1.9-0.4-2.9c0.1-2.9-2.5-6.1,1.1-8.5C151.9,80.6,152.5,80.2,153,79.8z"
			/>
		<path class="st1" d="M167.9,82.9c-4.2-0.6-8.5-1.2-12.7-1.8c0-0.3,0.1-0.6,0.1-0.8c4.1,0.5,8.1,0.9,12.2,1.4c0.2,0,0.3,0,0.5,0
			C168,82,167.9,82.5,167.9,82.9z"/>
		<path class="st16" d="M150.6,93c0.2,0.4,0.4,0.8,0.7,1.2c-0.3,0.3-0.5,0.5-0.8,0.8c-1.6-0.6-9.6,1.4-10.5,2.7
			c-0.2,0.2-0.2,0.5-0.3,0.8c-0.4,2.8-1,5.7-1.1,8.5c0,0.8,0.9,2.3,1.6,2.5c3.4,0.7,6.8,1.1,10.2,1.5c0,0.2,0,0.4,0,0.6
			c-0.2,0.3-0.5,0.5-0.7,0.8c-4-0.7-8.1-1.4-12.1-2.1c-0.6,2.9-0.8,5.3-1.5,7.6c-1.2,4.4-0.8,8,4.2,9.7c0.3,0.1,0.5,0.4,0.7,0.5
			c-0.1,0.5-0.1,1.1-0.2,1.6c-0.1,0-0.3,0-0.4,0c0,0-0.2,0-0.2,0c-0.9-0.9-1.7-1.8-2.6-2.6c-1.1-1-2.3-2-3.5-2.9
			c0.7-4.7,1.4-9.3,2.1-13.9c-1.3-0.4-2.1-0.8-3-0.9c-2.2-0.2-4.8-1.1-6.6-0.4c-4.3,1.7-5.8,5.8-4.5,10.3c0.3,0.9,1.1,1.6,1.8,2.2
			c1.4,1.2,3,2.2,4.4,3.3c-0.8,5.4-1.7,10.9-2.5,16.3c-0.4,0.2-0.8,0.5-1.2,0.7c-0.6-0.3-1.2-0.5-1.7-0.7c-1.7-1.3-3.4-2.6-5.1-3.9
			c0.1-0.1,0.2-0.2,0.3-0.3c0.8,0.3,1.5,0.6,2.3,0.9c1.3,0.9,2.5,1.8,4.1,2.9c0.4-2.3,0.6-4.2,0.9-6c0.4-2.1,0.8-4.2,1.2-6.4
			c0.8-4-2.2-6.8-6.3-5.8c0-1.7,0.4-3.5,0-5.1c-0.6-2.2-0.7-4,1.4-5.4c3.4-2.4,5.1-5.4,3.4-9.6c0-0.1,0-0.2,0-0.3c0-1.2,0-2.3,0-3.5
			c5.1-2.8,9.2-6.2,6.7-12.9c-0.2-0.5,0-1.1-0.1-1.6c0.2-0.4,0.4-0.7,0.6-1.1c0.8-0.4,1.6-0.9,2.3-1.3c0,0.2,0,0.4-0.1,0.6
			c-1.8,2.1-2.3,8.7-0.8,10.8c1.4,1.9,5.7,3.3,8,2.5c1.6-0.5,3.2-1.2,4.8-1.6c2.4-0.5,2.7-1.9,2.3-4c-0.5-2.3-0.8-4.6-1.3-7.4
			c-2.9-1.1-6.2-2.2-9.4-3.4c-0.2-4-0.4-7.9-0.6-11.9c0.3-0.4,0.5-0.8,0.8-1.2c1.7-0.5,3.5-0.9,5.2-1.4c1-0.5,2.4-0.7,3-1.6
			c2.3-3.3,4.4-6.8,6.5-10.2c0.7-0.3,1.3-0.5,2-0.8c2.4,0.7,4.8,1.3,7.2,2c-0.2,0.4-0.4,0.7-0.6,1.1c-1.8-0.5-3.6-1-5.4-1.5
			c-1.2-0.4-2.4-0.7-2.5,1.3c-2.1,3.4-4.1,6.8-6.2,10.1c-0.2,0.2-0.3,0.3-0.5,0.5c-1,0.1-2,0-2.9,0.2c-5.9,1.4-5.2,1.4-5.1,7.6
			c0.1,5.3,3.6,5.9,6.8,7.5c1.6,0.8,3,0.8,4.3-0.5c0.2,0.2,0.4,0.4,0.7,0.7c-3.6,2.4-1,5.7-1.1,8.5c0,1,0.2,1.9,0.4,2.9
			c-0.1,0.1-0.1,0.1-0.2,0.2C150.4,92.7,150.5,92.9,150.6,93z M137.2,108.8c0.5-3.7,1.1-6.7,1.4-9.8c0.1-0.8-0.3-2-0.9-2.6
			c-3.1-2.7-4.1-2.6-7.4-0.3c-1,0.7-2.1,1.3-2.8,2.2c-0.7,0.9-1.4,2.1-1.3,3.2c0.1,1.9,0.8,3.8,1.3,5.7
			C130.7,107.8,133.8,108.3,137.2,108.8z"/>
		<path class="st7" d="M162.6,54.1c-2.4-0.7-4.8-1.3-7.2-2c0-0.2,0-0.3,0-0.5c0-3.6,0-7.2,0-10.7c0-3.4,1.3-4.4,4.6-3.4
			c2.2,0.6,4.3,1.5,6.5,2.1c1.7,0.4,2.2,1.4,2.1,3c-0.2,2.4-0.4,4.8-0.5,7.2C167.7,53.1,164.6,52.8,162.6,54.1z"/>
		<path class="st1" d="M162.5,59.5c-0.1-0.6-0.3-1.2-0.4-1.8C162.3,58.2,162.4,58.8,162.5,59.5z"/>
		<path class="st12" d="M160.4,9.8c0.4-0.2,0.7-0.4,1.1-0.7c1.7,0.4,3.4,0.7,5.1,1.1c0.6,3.7,1.1,7.5,1.8,11.2
			c0.7,3.7,0.6,3.9-3.3,4.5c-0.8-0.1-1.6-0.1-2.3-0.2c-0.3-0.3-0.5-0.6-0.8-0.9c-1.4-1.3-3.7-2.4-3.9-3.8c-0.4-3.3,0.3-6.7,0.6-10
			C159.2,10.6,159.8,10.2,160.4,9.8z"/>
		<path class="st4" d="M162.7,25.7c0.8,0.1,1.6,0.1,2.3,0.2c0,0.4,0,0.7,0,1.1c-0.6,0-1.1,0.1-1.7,0.1c-0.2,0-0.5,0-0.7,0
			c-0.1-0.4-0.1-0.7-0.2-1.1C162.5,25.9,162.6,25.8,162.7,25.7z"/>
		<polygon class="st12" points="168.5,26.4 168.3,26.4 168.2,26.4 168.3,26.2 		"/>
		<path class="st6" d="M42.7,99.1c-3.1-1-6.2-1.9-9.2-3.1c-1-0.4-1.8-1.5-2.8-2.2c0.2-1.8,0.3-3.7,0.5-5.5c0.6-0.4,1.2-0.8,1.8-1.2
			c0,0,0,0,0,0c0.6-0.4,1.2-0.8,1.8-1.2c0,0,0,0,0,0c0.6-0.4,1.2-0.8,1.8-1.2c0,0,0,0,0,0c0.6-0.4,1.2-0.8,1.8-1.2c0,0,0,0,0,0
			c0.6-0.5,1.2-0.9,1.8-1.4c0,0,0.1,0,0.1,0c1.9-0.3,1.6-1.5,1.2-2.9c-0.7-2.9-2.3-5.8-0.7-8.9c0,0,0,0,0,0c0.8-0.8,1.6-1.6,2.4-2.4
			c0,0,0,0,0,0c0.2-0.4,0.4-0.8,0.6-1.2c0,0,0,0,0,0c0.8-0.8,1.6-1.6,2.4-2.5c0,0,0,0,0,0c2.4-0.8,4.5,0.2,6,2.8
			c0.8,2.9,1.6,5.8,2.4,8.7c0.5,1.8,1,3.7,1.4,5.4c-3.2,0.9-5.8,1.7-8.6,2.6c0,4.7,0,9.3,0,13.8C45.7,98.1,44.2,98.6,42.7,99.1z"/>
		<path class="st7" d="M33,87c-0.6,0.4-1.2,0.8-1.8,1.2C31.8,87.8,32.4,87.4,33,87z"/>
		<path class="st7" d="M40.3,82c-0.6,0.5-1.2,0.9-1.8,1.4C39,83,39.7,82.5,40.3,82z"/>
		<path class="st7" d="M36.6,84.6c-0.6,0.4-1.2,0.8-1.8,1.2C35.4,85.4,36,85,36.6,84.6z"/>
		<path class="st7" d="M34.8,85.8c-0.6,0.4-1.2,0.8-1.8,1.2C33.6,86.6,34.2,86.2,34.8,85.8z"/>
		<path class="st7" d="M38.4,83.4c-0.6,0.4-1.2,0.8-1.8,1.2C37.2,84.2,37.8,83.8,38.4,83.4z"/>
		<path class="st24" d="M65.1,56.1c2.6-0.3,4.2-1.5,4.4-4.4c0.3-3.4,0.9-6.9,1.3-10.3c0.3,0,0.7,0,1,0c-0.3,2.2-0.6,4.5-0.9,6.7
			c-0.5,4-2.5,8.4,2.8,10.8c-0.2,0.4-0.5,0.8-0.7,1.2c-0.7-0.7-1.4-1.3-2.1-2c-2.2-2.1-4.8-2.1-6.9,0c-0.7,0.7-1.5,1.4-2.2,2.1
			c0.6-1,1.2-2.1,1.8-3.1C64.1,56.7,64.6,56.4,65.1,56.1z"/>
		<path class="st16" d="M65.1,56.1c-0.5,0.3-1,0.6-1.5,0.9c-2.6-1.8-5.4-3.6-7.9-5.6c-1.6-1.3-2.6-0.8-3.7,0.4
			c0.6-1.4,1.3-2.7,1.9-4.1c0.6,0.9,1.1,2,1.9,2.6C58.9,52.4,62,54.2,65.1,56.1z"/>
		<path class="st16" d="M71.9,41.4c-0.3,0-0.7,0-1,0c-3.1-1.2-5.8-4.1-9.7-2.4c0.6-0.6,1.2-1.2,1.8-1.8c0.9,0.3,1.8,0.6,2.7,0.9
			c2.3,0.7,4.6,1.5,6.8,2.2C72.3,40.6,72.1,41,71.9,41.4z"/>
		<path class="st16" d="M57.6,40.8c1.2-0.6,2.4-1.2,3.6-1.8C60,39.6,58.8,40.2,57.6,40.8z"/>
		<path class="st16" d="M43.2,67.8c-0.8,0.8-1.6,1.6-2.4,2.4C41.6,69.4,42.4,68.6,43.2,67.8z"/>
		<path class="st16" d="M46.2,64.2c-0.8,0.8-1.6,1.6-2.4,2.5C44.6,65.8,45.4,65,46.2,64.2z"/>
		<path class="st16" d="M43.8,66.6c-0.2,0.4-0.4,0.8-0.6,1.2C43.4,67.4,43.6,67,43.8,66.6z"/>
		<path class="st6" d="M52.1,51.8c1.1-1.2,2.1-1.7,3.7-0.4c2.5,2,5.2,3.7,7.9,5.6c-0.6,1-1.2,2.1-1.8,3.1c0,0,0-0.1,0-0.1
			c-0.2,0.4-0.4,0.8-0.6,1.2c0,0,0,0,0,0c-0.4,0.4-0.8,0.8-1.2,1.2c0,0,0,0,0,0c-0.2,0.4-0.4,0.8-0.6,1.2l0,0
			c-0.5,0.2-0.9,0.4-1.4,0.7l-0.3,0c-1.8,0.2-3.6,0.3-5.5,0.5c-1.3-0.6-2.8-1-3.9-1.9c-2-1.6-1.9-3.7-0.9-5.9c0,0,0,0,0,0
			c0.2-0.2,0.4-0.4,0.6-0.6c0,0,0,0,0,0c0.2-0.4,0.4-0.8,0.6-1.2c0,0,0,0,0,0c1.1-1,2.1-2.1,3.2-3.1C52,52.1,52.1,52,52.1,51.8z"/>
		<path class="st16" d="M51.8,52.2c-1.1,1-2.1,2.1-3.2,3.1C49.7,54.2,50.8,53.2,51.8,52.2z"/>
		<path class="st16" d="M48.6,55.2c-0.2,0.4-0.4,0.8-0.6,1.2C48.2,56,48.4,55.6,48.6,55.2z"/>
		<path class="st16" d="M48,56.4c-0.2,0.2-0.4,0.4-0.6,0.6C47.6,56.8,47.8,56.6,48,56.4z"/>
		<path class="st13" d="M72.5,40.3c-2.3-0.7-4.6-1.5-6.8-2.2c-0.9-0.3-1.8-0.6-2.7-0.9c-0.4-2.2-0.7-4.3-1.1-6.5
			c1.4-1.2,2.8-2.5,4.2-3.7c0,0,0,0,0,0c0.8-0.8,1.6-1.6,2.4-2.4c0,0,0,0,0,0c1.1-0.6,2.2-1.2,3.2-1.9c0.1-0.1,0.3-0.1,0.3-0.3
			c1.9-0.5,3.3-0.1,3.8,2c-0.8,5.2-1.7,10.4-2.5,15.6C73,40.2,72.8,40.2,72.5,40.3z"/>
		<path class="st17" d="M81,13.2c0.3,1.7,0.7,3.4,1,5.1c0.1,0.9,0.2,1.8,0.3,2.7c-1.6,0.5-3.3,1-4.9,1.4c-1.6-0.5-3.2-0.9-4.8-1.4
			c-0.2-0.4-0.4-0.7-0.6-1.1c0.7-0.9,1.3-2,2.3-2.6C76.4,15.8,78.8,14.5,81,13.2z"/>
		<path class="st25" d="M81,13.2c-2.3,1.3-4.6,2.6-6.8,4.1c-0.9,0.6-1.5,1.7-2.3,2.6c-1-1.2-2-2.5-3.1-3.7c0.1-0.5,0-1.3,0.3-1.4
			c3.7-1.5,7.4-3,11.1-4.4c0.4,0.4,0.9,0.8,1.4,1.2C81.4,12.1,81.2,12.6,81,13.2z"/>
		<path class="st16" d="M72.6,20.9c1.6,0.5,3.2,0.9,4.8,1.4c0.1,0.2,0.2,0.4,0.3,0.6c0,0-0.1,0.1-0.1,0.1c-0.2,0.1-0.5,0.3-0.7,0.4
			c-0.1,0.3-0.2,0.6-0.3,0.9c-0.3,0-0.6,0.1-0.8,0.1c-0.5-2.1-1.9-2.5-3.8-2C72.2,22,72.4,21.4,72.6,20.9z"/>
		<path class="st16" d="M66,27c-1.4,1.2-2.8,2.5-4.2,3.7c0,0-0.1-0.2-0.1-0.2c0-0.3,0-0.7,0-1.1C63.2,28.6,64.6,27.8,66,27z"/>
		<path class="st1" d="M58.8,28.1c-0.2-0.8-0.4-1.5-0.6-2.3c0.8,1,1.6,2,2.4,3C60,28.6,59.4,28.3,58.8,28.1z"/>
		<path class="st16" d="M68.4,24.6c-0.8,0.8-1.6,1.6-2.4,2.4C66.8,26.2,67.6,25.4,68.4,24.6z"/>
		<path class="st16" d="M71.6,22.8c-1.1,0.6-2.2,1.2-3.2,1.9C69.5,24,70.6,23.4,71.6,22.8z"/>
		<path class="st1" d="M61.8,29.4c0,0.4,0,0.7,0,1.1c-0.4-0.6-0.8-1.1-1.2-1.7C61,29,61.4,29.2,61.8,29.4z"/>
		<path class="st9" d="M57.8,64.3c0,0,0.3,0,0.3,0c2.8,2.8,5.7,5.6,8.5,8.4c0,0.2,0,0.3,0,0.5c0,0,0,0,0,0c-0.6,1-1.2,2-1.8,3
			c0,0,0,0,0,0c-0.4,0.6-0.8,1.2-1.2,1.8l0,0c-0.6,1-1.2,2-1.8,3l0,0c-0.5,0.3-1.1,0.6-1.8,1c0.5,0.4,0.8,0.7,1.2,1
			c0.4,0.7,0.9,1.5,1.3,2.2c0.2,0.4,0.4,0.8,0.6,1.3c-0.4,2.6-0.8,5.2-1.3,7.7c-2.1,0.7-4.3,1.5-6.4,2.2c-6.6,2.2-6.6,2.2-4.2,8.8
			c0.1,0.2,0.3,0.4,0.5,0.6c0.4,1.3,0.8,2.6,1.3,4c-0.1,0.2-0.1,0.4-0.2,0.6c-0.4,0.4-0.8,0.8-1.2,1.2c-1,0.9-1.9,1.7-2.9,2.6
			c-7.3-1.2-7.4-1.2-6.7-8.5c0.2-2.2,0.5-4.3,0.7-6.5c1.5-0.5,3-1,4.7-1.7c0-4.5,0-9.1,0-13.8c2.8-0.8,5.4-1.6,8.6-2.6
			c-0.5-1.8-1-3.6-1.4-5.4c-0.7-3.1-1.3-6.1-2-9.2c0-0.4,0.1-0.7,0.1-1.1C54.4,65,56.1,64.7,57.8,64.3z"/>
		<path class="st24" d="M52.6,66.5c0.7,3.1,1.3,6.1,2,9.2c-0.8-2.9-1.6-5.8-2.4-8.7C52.3,66.8,52.4,66.7,52.6,66.5z"/>
		<path class="st24" d="M57.8,64.3c-1.7,0.4-3.4,0.8-5.1,1.2c-0.1-0.2-0.3-0.4-0.4-0.7C54.1,64.6,55.9,64.4,57.8,64.3z"/>
		<path class="st5" d="M151.8,95.4c2.5,0,5,0,8.2,0c-2.3,5.5-3.9,10.5-7.8,14.3c-0.1-0.2-0.3-0.4-0.4-0.6
			C151.8,104.6,151.8,100,151.8,95.4z"/>
		<path class="st1" d="M151.8,95.4c0,4.6,0,9.2,0,13.7c0,0.2,0,0.4,0,0.6c0,0,0,0,0,0c-0.3,0.2-0.7,0.4-1,0.7
			c-0.1-5.2-0.2-10.4-0.2-15.6c0.3-0.3,0.5-0.5,0.8-0.8c0.2,0,0.3,0.1,0.5,0.1C151.8,94.6,151.8,95,151.8,95.4z"/>
		<path class="st0" d="M151.8,109.8c0-0.2,0-0.4,0-0.6c0.1,0.2,0.3,0.4,0.4,0.6c0,0-0.2,0-0.2,0L151.8,109.8z"/>
		<path class="st23" d="M116,83.4c0.1,0,0.3,0,0.4,0c0.2,2.1,0.5,4.3,0.7,6.4c0.2,1.9,0.9,4.1,0.2,5.6c-0.7,1.7-2.8,2.8-4.4,4.2
			c0.5,0.2,1,0.4,1.5,0.7c0,0.2-0.1,0.5-0.1,0.7c-1.4,1.8-1.2,7.9,0.2,10.1c-1.6,0.6-3.2,1.2-4.8,1.8c-0.6-0.2-1.2-0.4-1.7-0.7
			c-2.4-1.6-4.8-3.2-7.2-4.9c-2.7-2.7-3.3,0.3-4.4,1.7c-0.2,0.2-0.4,0.4-0.6,0.6c-0.1,0.1-0.2,0.2-0.3,0.4c0.2,0,0.4-0.1,0.5-0.1
			c0.2-0.2,0.4-0.4,0.6-0.6c1.3-0.6,2.6-1.1,4-1.7c2.4,1.6,4.8,3.2,7.2,4.7c-1,2.7-2.1,5.5-3.1,8.2c-1.2,3.4-4.4,4.2-7.3,4.7
			c-1.3,0.2-3.5-0.7-4.4-1.8c-2.5-2.9-2.5-7.5-0.5-10.5c0.2-0.2,0.4-0.4,0.6-0.6c0.3-0.2,0.5-0.3,0.8-0.5c-0.1-0.1-0.2-0.2-0.2-0.3
			c-0.3,0.2-0.5,0.4-0.8,0.6c-0.2,0.2-0.4,0.4-0.6,0.6c-1.6,0.6-2.6,2.4-5,1c-5.9-3.5-4.9-1.8-3.2-8c0.2-0.9,0.6-1.7,0.9-2.5
			c1.3-4.3,4.4-6.1,8.8-4.9c1.2,0.3,2.5,0.8,3.7,1c2.1,0.5,3.6,0.2,3.9-2.5c0.2-2.1,1.2-4.2,1.4-6.4c0.3-3.2,2-4.4,5.1-4.8
			C110.7,85.3,113.3,84.2,116,83.4z"/>
		<path class="st4" d="M108,112.2c0.6,0.2,1.2,0.4,1.7,0.7c-1.6,3.3-3.3,6.7-5,10.2c3.8,1.6,7.1,2.9,10.4,4.3c0,0.4,0,0.7,0,1.1
			c-2.3-0.9-4.8-1.4-6.8-2.7c-3.7-2.2-6.7-1.3-10,1.2c1.8,3.7,3.5,7.3,5.3,10.9c0.4,0.8,1.2,1.4,1.9,2.1c-0.2,0.4-0.5,0.8-0.7,1.2
			c-3.9,0.9-7.7,1.9-11.6,2.7c-2,0.4-3.5,1-3.3,3.4c-0.8-1.2-1.6-2.4-2.5-3.7c0.1-0.1,0.2-0.2,0.3-0.4c5.1-1,10.1-1.9,15.6-3
			c-2.2-4.7-4-8.7-6-12.5c-1.2-2.3-4.6-2.5-6.5-0.6c-1.4,1.3-2.7,2.6-4.1,4c-0.5-0.3-1.1-0.5-1.6-0.8c1.4-1.2,3-2.2,4.3-3.5
			c2.6-2.5,1.4-9.7-1.8-11.5c-2.2-1.3-4.2-2.7-6.3-4.1c0.3-1,0.6-2.1,0.9-3.1c2.5-8.1,2.5-8.1-4.9-12.3c-0.1,0-0.2,0-0.4,0
			c-2.7,2.3-5.5,4.7-8.2,7.1c2.8-2.8,5.6-5.6,8.4-8.5c2.2,1.4,4.4,2.6,6.5,4.1c2.3,1.6,3.8-0.2,5.3-1.2c0.5-0.3,0.5-2.1,0.2-3
			c-0.7-2.7-1.8-5.2-2.5-7.9c-0.7-2.6-1.9-4-4.7-3.4c0.4-0.4,0.8-0.9,1.2-1.3c4.7,0,9.4,0,14.2,0c0.9-3.8,1.7-7.4,2.5-11
			c0.1-0.6,0.1-1.5-0.2-2c-0.9-1.7-7.9-3.2-9.7-2.2c-2.3,1.3-4.6,2.6-6.9,3.8c3-2.1,5.9-4.1,8.9-6.2c3.2,1.3,6.5,2.6,9.7,3.9
			c-0.6,2-1.1,4-1.7,6c-0.4,3-0.9,6-1.3,9c-3.9,0-7.9,0-12.3,0c1.5,4.6,2.2,9.1,4.5,12.4c1.3,1.9,5.3,2.1,8.1,2.9
			c0.2,0.1,0.8-0.7,0.8-1.1c0.9-4,1.6-7.9,2.4-11.9c2.4-0.4,4.9-0.7,7.3-1.1c1.5-0.2,2.9-0.4,4.7-0.7c-2.6-5.3-5.1-10.2-7.6-15.1
			c0.2-0.1,0.5-0.3,0.7-0.4c2.7,5.2,5.5,10.4,8.2,15.6c-2.7,0.8-5.3,1.9-8,2.3c-3.1,0.4-4.8,1.5-5.1,4.8c-0.2,2.1-1.2,4.2-1.4,6.4
			c-0.2,2.8-1.7,3-3.9,2.5c-1.3-0.3-2.5-0.7-3.7-1c-4.4-1.2-7.5,0.6-8.8,4.9c-0.3,0.9-0.6,1.7-0.9,2.5c-1.8,6.2-2.7,4.5,3.2,8
			c2.4,1.4,3.4-0.5,5-1c0.1,0.1,0.2,0.2,0.2,0.2c-1.9,3-2,7.6,0.5,10.5c0.9,1.1,3,2.1,4.4,1.8c2.9-0.5,6.1-1.3,7.3-4.7
			c1-2.8,2.1-5.5,3.1-8.2L108,112.2z"/>
		<path class="st4" d="M114.4,100.2c-0.5-0.2-1.1-0.5-1.5-0.7c1.6-1.4,3.6-2.5,4.4-4.2c0.7-1.5,0-3.7-0.2-5.6
			c-0.2-2.1-0.5-4.3-0.7-6.4c5.5-1.8,4.8-6.9,5.3-11c0.3-2.6,1-4.1,3.6-4.8c1.6-0.4,3-1.4,4.5-2.1c1.5-1,4.5-2.2,4.4-2.9
			c-0.5-3,0.6-6.9-3.4-8.5c-2.1-0.8-3.8-3.2-6.5-1.7l-0.2-0.2c0-1.3,0.3-2.7-0.1-3.9c-0.7-2.1-1.9-4-2.9-6c0.1-0.1,0.1-0.2,0.2-0.2
			c2.6-1.1,5.2-2.3,7.8-3.4c3.3-2.3,6.3-1.8,9.5,0.3c0.9,0.6,2.4,0.1,3.6,0.1c-0.4,0.6-0.8,1.3-1.2,1.9c-1.4-0.6-2.7-1.3-4.1-1.8
			c-1.3-0.5-2.9-1.5-3.8-1.1c-3.5,1.4-6.9,3.3-10.1,5c1.6,6.5,5.3,10,11.4,11.1c0.6,4.3-0.3,9.2,4.3,12.1c-0.3,0.4-0.5,0.8-0.8,1.2
			c-1.8-2.4-3.9-2.8-6.6-1.1c-2,1.2-4.4,1.8-6.5,2.9c-0.7,0.3-1.6,1-1.7,1.7c-0.6,2.6-0.9,5.3-1.3,7.9c-0.3,1.5,0.2,2.5,1.8,2.8
			c3,0.5,6,1,9.1,1.5c-0.2,0.4-0.4,0.7-0.6,1.1c-3-0.6-6-1.2-9.1-1.7c-3.9-0.7-5.9,1.4-5.2,5.1c0.4,2,0.6,3.9,1.1,5.9
			c0.2,0.8,0.6,1.7,1.2,2.1c1.7,1.2,3.6,2.1,5.4,3.1c0,1.2,0,2.3,0,3.5c-0.9-3.5-4.3-4.2-6.8-6.3C117.1,97.3,115.7,98.8,114.4,100.2
			z"/>
		<path class="st23" d="M99,82.8c0.4-3,0.9-6,1.3-9c3.6,0.4,5.8,2.6,7.3,5.8c0.7,1.5,1.5,3,2.3,4.4c-2.4,0.4-4.9,0.7-7.3,1.1
			c0,0,0,0,0,0C101.4,84.4,100.2,83.6,99,82.8L99,82.8z"/>
		<path class="st4" d="M121.4,54.8c-0.7,3.4-1.4,6.7-2.1,9.9c-1.4-3.7-0.5-8.7,1.8-10.2C121.2,54.6,121.3,54.7,121.4,54.8z"/>
		<path class="st4" d="M105.6,55.8c0.8,0.4,1.7,0.8,2.5,1.2c-0.2,0.4-0.4,0.7-0.7,1.1C106.8,57.3,106.2,56.6,105.6,55.8z"/>
		<path class="st4" d="M122.4,53.7c0,0.3,0,0.6,0,0.8c-0.3,0.1-0.7,0.2-1,0.3c-0.1-0.1-0.1-0.2-0.2-0.3
			C121.5,54.2,122,54,122.4,53.7z"/>
		<path class="st12" d="M141,40.9c0.4-0.6,0.8-1.3,1.2-1.9c0,0,0,0,0,0c0.2-0.2,0.4-0.4,0.6-0.6c0,0,0,0,0,0
			c0.4-0.5,0.8-0.9,1.2-1.4c0.3-0.3,0.6-0.6,1-1c1.3-0.5,2.6-0.9,4.1-1.5c0.6,0.2,1.3,0.5,2.1,0.8c0,0,0,0,0,0
			c1.2,0.8,2.3,1.7,3.5,2.5c-0.2,2.1-0.3,4.3-0.5,6.4c0,2.4,0,4.7,0,7.4c-2.8-0.5-5.2-0.8-7.4-1.4c-2.1-0.6-4.2-1.5-6.2-2.2
			C140.7,45.7,140.8,43.3,141,40.9z"/>
		<path class="st4" d="M151.2,35.4c-0.8-0.3-1.6-0.6-2.1-0.8c-1.5,0.5-2.8,1-4.1,1.5c3-2.1,3.1-4.8,1.4-7.8c0.5-0.1,1.1-0.1,1.6-0.2
			c0.1,0.1,0.3,0.3,0.4,0.4c0.1,1.3,0,2.6,0.5,3.7C149.4,33.4,150.4,34.3,151.2,35.4z"/>
		<path class="st4" d="M145.2,12.5c-0.4,4-0.8,8.1-1.2,12.1c-0.2-1.3-0.5-2.6-0.5-3.9c0-1.9,0.2-3.9,0.6-5.8
			C144.2,14,144.8,13.3,145.2,12.5z"/>
		<path class="st4" d="M132.8,35.6c-0.3-2.9-0.6-5.9-0.8-8.8c0.3,0,0.6-0.1,0.9-0.1c0.3,3,0.6,5.9,0.9,8.9
			C133.5,35.6,133.2,35.6,132.8,35.6z"/>
		<path class="st4" d="M126.6,24c0.2-0.4,0.4-0.8,0.5-1.2c1.8,0.8,3.6,1.5,5.4,2.3c-0.1,0.2-0.1,0.3-0.2,0.5
			C130.4,25,128.5,24.5,126.6,24z"/>
		<path class="st4" d="M123,27c1-0.8,2-1.6,3-2.4C125,25.4,124,26.2,123,27z"/>
		<path class="st4" d="M144,37c-0.4,0.5-0.8,0.9-1.2,1.4C143.2,37.9,143.6,37.4,144,37z"/>
		<path class="st4" d="M121.8,27.6c0.4-0.2,0.8-0.4,1.2-0.6C122.6,27.2,122.2,27.4,121.8,27.6z"/>
		<path class="st4" d="M142.8,38.4c-0.2,0.2-0.4,0.4-0.6,0.6C142.4,38.8,142.6,38.6,142.8,38.4z"/>
		<path class="st4" d="M126,24.6c0.2-0.2,0.4-0.4,0.6-0.6C126.4,24.2,126.2,24.4,126,24.6z"/>
		<path class="st4" d="M121.1,42.2c-0.3-0.1-0.5-0.3-0.8-0.4c0.1-0.1,0.1-0.2,0.2-0.3c0.2,0.2,0.5,0.4,0.7,0.5
			C121.2,42,121.1,42.1,121.1,42.2z"/>
		<path class="st4" d="M124.3,52.3c-0.2,0.2-0.5,0.4-0.7,0.5c-0.1-0.1-0.2-0.2-0.2-0.4c0.3-0.1,0.5-0.3,0.8-0.4
			C124.1,52,124.3,52.3,124.3,52.3z"/>
		<path class="st4" d="M118.9,40.1c0.1,0.2,0.1,0.4,0.2,0.5c-0.1-0.1-0.2-0.2-0.4-0.3C118.7,40.3,118.9,40.1,118.9,40.1z"/>
		<path class="st24" d="M77.7,23c-0.1-0.2-0.2-0.4-0.3-0.6c1.6-0.5,3.3-1,4.9-1.4c2.4,0.9,4.8,1.7,7.2,2.6c0,0.4-0.1,0.7-0.1,1.1
			c-0.2,0.1-0.4,0.1-0.6,0.2C85.2,23.1,81.7,21.2,77.7,23z"/>
		<path class="st4" d="M91.2,22.8c0.8-0.6,1.6-1.2,2.4-1.8C92.8,21.6,92,22.2,91.2,22.8z"/>
		<path class="st4" d="M89.4,24.6c0-0.4,0.1-0.7,0.1-1.1c0.6-0.2,1.1-0.5,1.7-0.7C90.6,23.4,90,24,89.4,24.6z"/>
		<path class="st26" d="M72.5,40.3c0.2,0,0.4-0.1,0.7-0.1c0.4,0,0.8,0,1.2,0c2,0,4,0.1,6,0.1c0.5,1,0.9,2,1.4,3c1.3,3,2.7,5.9,4,8.9
			c-4,2.3-8,4.5-11.9,6.8c-5.4-2.4-3.4-6.8-2.8-10.8c0.3-2.2,0.6-4.5,0.9-6.7C72.1,41,72.3,40.6,72.5,40.3z"/>
		<path class="st7" d="M73.9,58.9c4-2.3,8-4.5,11.9-6.8c1.8,0.7,3.6,1.3,5.4,2c0,0.4-0.1,0.8-0.1,1.2c-4.5-2.9-8.1-0.6-11.8,1.8
			c-1.1,0.7-2.4,1.1-3.3,2c-0.7,0.6-1.3,2-1,2.8c1,2.9,2.4,5.6,3.7,8.4c-1.7,0.2-3.5,0.1-5.2,0.5c-2.3,0.6-4.6,1.6-6.8,2.4
			c0-0.2,0-0.3,0-0.5c0-0.2,0-0.4,0.1-0.6c3-1.2,5.9-2.4,8.9-3.6c-0.7-2.5-1.4-5-2.1-7.5c-0.1-0.3-0.2-0.6-0.3-0.8
			C73.4,59.7,73.6,59.3,73.9,58.9z"/>
		<path class="st4" d="M81.8,43.2c-0.5-1-0.9-2-1.4-3c0.8-0.2,1.6-0.5,2.4-0.7C82.5,40.8,82.1,42,81.8,43.2z"/>
		<path class="st4" d="M82.8,39.6c1-0.6,2-1.2,3-1.8C84.8,38.4,83.8,39,82.8,39.6z"/>
		<path class="st4" d="M91,55.2c0-0.4,0.1-0.8,0.1-1.2c0.4,0,0.8-0.1,1.2-0.1c-0.4,0.7-0.7,1.5-1.1,2.2C91.2,55.9,91.1,55.6,91,55.2
			z"/>
		<path class="st4" d="M85.8,37.8c0.6-0.4,1.2-0.8,1.8-1.2C87,37,86.4,37.4,85.8,37.8z"/>
		<path class="st4" d="M93.6,52.8c-0.4,0.4-0.8,0.8-1.2,1.2C92.8,53.6,93.2,53.2,93.6,52.8z"/>
		<path class="st24" d="M74.4,40.2c-0.4,0-0.8,0-1.2,0c0.8-5.2,1.7-10.4,2.5-15.6c0.3,0,0.6,0,0.8-0.1c-0.7,4.2-1.4,8.3-2.1,12.5
			C74.3,38,74.4,39.1,74.4,40.2z"/>
		<path class="st24" d="M76.9,23.5c0.2-0.1,0.5-0.3,0.7-0.4C77.3,23.2,77.1,23.4,76.9,23.5z"/>
		<path class="st27" d="M91,55.2c0.1,0.3,0.2,0.6,0.3,1c0.3,2.6,0.6,5.2,0.9,7.8c-3,2.1-5.9,4.1-8.9,6.2c0,0,0,0,0,0
			c-0.6,0.2-1.2,0.5-1.8,0.7c-1-0.2-2-0.5-3-0.7l0,0c-1.3-2.8-2.7-5.5-3.7-8.4c-0.3-0.7,0.4-2.1,1-2.8c0.9-0.9,2.2-1.3,3.3-2
			C82.9,54.7,86.6,52.3,91,55.2z"/>
		<path class="st4" d="M102,52.2c0.8,0.8,1.6,1.6,2.4,2.4C103.6,53.8,102.8,53,102,52.2z"/>
		<path class="st4" d="M100.8,51c0.4,0.4,0.8,0.8,1.2,1.2C101.6,51.8,101.2,51.4,100.8,51z"/>
		<path class="st4" d="M104.4,54.6c0.4,0.4,0.8,0.8,1.2,1.2C105.2,55.4,104.8,55,104.4,54.6z"/>
		<path class="st24" d="M27.8,109.4c0.4,0,0.8-0.1,1.2-0.1c2.5,1.6,5.1,3.2,7.6,4.8c-0.4,2.6-0.7,5.2-1.1,7.9
			c-0.4,2.3-0.2,4.2,2.5,5.1c1.8,0.6,3.5,1.7,5.3,2.6c-0.1,0.4-0.1,0.8-0.2,1.2c-0.3,0-0.6,0-0.9,0c-2.7-3.3-7.4-4.7-11-3.3
			c-1.7,0.7-3.5,1.4-5.2,2.1l-0.2-0.2c0-0.4,0-0.7,0-1.1c0.4-0.1,0.8-0.2,1.1-0.3c6.6-0.9,8.3-5.5,8.5-11.2c0.1-1.8-0.3-3.1-2-3.8
			c-2-0.9-3.9-1.8-5.8-2.7C27.7,110.1,27.7,109.7,27.8,109.4z"/>
		<path class="st24" d="M25.2,112.2c0.8-0.6,1.6-1.2,2.4-1.8C26.8,111,26,111.6,25.2,112.2z"/>
		<path class="st1" d="M23.4,126.6c-0.6-0.8-1.2-1.6-1.8-2.4C22.2,125,22.8,125.8,23.4,126.6z"/>
		<path class="st1" d="M25.7,128.5c0,0.4,0,0.7,0,1.1c-0.3,0.2-0.7,0.4-1,0.6c-0.2-0.8-0.4-1.6-0.7-2.5
			C24.6,128,25.2,128.2,25.7,128.5z"/>
		<path class="st24" d="M22.2,114.9c0.7-0.6,1.3-1.2,2-1.8C23.5,113.7,22.8,114.3,22.2,114.9z"/>
		<path class="st24" d="M24.3,112.9c0-0.2-0.1-0.5-0.1-0.7c0.4,0,0.7,0,1.1,0C24.9,112.5,24.6,112.7,24.3,112.9z"/>
		<path class="st1" d="M24.1,127.8c-0.2-0.4-0.4-0.8-0.6-1.2C23.6,127,23.9,127.4,24.1,127.8z"/>
		<path class="st17" d="M147.9,65.1c2.1-3.4,4.1-6.8,6.2-10.1c1.6,3.3,3.2,6.5,4.8,9.8c0.5,1,0.8,2,1.2,3c-3.6,2.4-6.7,1.8-9.7-1.1
			C149.8,65.9,148.8,65.5,147.9,65.1z"/>
		<path class="st28" d="M150.6,80.4c-1.3,1.3-2.8,1.3-4.3,0.5c-3.2-1.7-6.7-2.3-6.8-7.5c-0.1-6.2-0.8-6.2,5.1-7.6
			c0.9-0.2,2-0.1,2.9-0.2c1.8,1.4,3.7,2.7,5.3,4.2c0.7,0.6,1.1,2,0.9,2.9c-0.5,2.4-1.3,4.7-2,7.1C151.3,80,151,80.2,150.6,80.4z"/>
		<path class="st1" d="M150.6,80.4c0.4-0.2,0.7-0.4,1.1-0.6c0.4,0,0.9,0,1.3,0c-0.6,0.4-1.2,0.8-1.8,1.2
			C151,80.8,150.8,80.6,150.6,80.4z"/>
		<path class="st0" d="M139.9,132.6c0.1-0.4,0.3-0.9,0.4-1.3C140.1,131.7,140,132.2,139.9,132.6z"/>
		<path class="st3" d="M125,142c0.5,0.3,1.1,0.5,1.6,0.8c-1.8,3.8-3.6,7.6-5.4,11.5c-0.4-0.2-0.8-0.5-1.2-0.7c0,0,0,0,0,0
			c1.4-2.8,2.9-5.6,4.2-8.4C124.7,144.2,124.8,143.1,125,142z"/>
		<path class="st16" d="M104.9,141.1c0.2-0.4,0.5-0.8,0.7-1.2c3.4-1.7,6.8-3.4,10.2-5.1c0.8,0.7,1.6,1.3,2.5,2
			c-0.1,0.1-0.2,0.2-0.3,0.3c-1.7-0.8-3.2-0.8-5,0.2c-7.1,3.8-7.1,3.7-5.5,11.6c0.6,4.3,1.1,4.1,5.2,4.3c2.4,0.1,4.9,0.4,7.3,0.6
			c0,0,0,0,0,0c-2.5,0.3-5,0.7-8,1.1c0.6,4.1,1.2,8.1,1.7,12.2c0.1,1.1-0.1,2.3-0.1,3.5c-0.3,0-0.6,0-0.9,0
			c-0.6-5.1-1.1-10.2-1.9-15.2c-0.1-0.7-2-1.3-3.1-1.4c-0.8-0.1-1.7,0.5-2.5,0.8c-0.1-0.1-0.2-0.2-0.2-0.3c1.7-1.3,2.7-2.7,1.4-4.9
			C105.9,146.6,105.4,143.8,104.9,141.1z"/>
		<path class="st17" d="M134.2,124.1c1.2,1,2.4,1.9,3.5,2.9c0.9,0.8,1.7,1.7,2.6,2.6c-0.7,0.6-1.7,1.1-1.9,1.8
			c-2,5.9-7.8,6.9-12.4,9.5c0.8-5.4,1.7-10.9,2.5-16.3C130.4,124.5,132.3,124.3,134.2,124.1z"/>
		<path class="st17" d="M120,153.6c-2.4-0.2-4.9-0.4-7.3-0.6c-4.1-0.2-4.6,0-5.2-4.3c5.2-2.6,10.4-5.2,15.6-7.8
			c0.6,0.2,1.2,0.5,1.7,0.7c0,0.1,0.1,0.2,0.2,0.3c-0.3,1.1-0.3,2.2-0.8,3.2C122.9,148,121.4,150.8,120,153.6z"/>
		<path class="st24" d="M24.7,130.2c0.3-0.2,0.7-0.4,1-0.6c0,0,0.2,0.2,0.2,0.2c-0.3,1.6-0.5,3.3-1,4.9c-0.6,2-0.2,3.3,1.8,4.3
			c1.9,1,3.7,2.3,5.5,3.5c-0.2,0.2-0.3,0.4-0.5,0.6c-3-1.5-5.9-2.9-8.9-4.4C23.4,135.8,24,133,24.7,130.2z"/>
		<path class="st4" d="M34.8,149.8c0.8,0.7,1.6,1.3,2.4,2c-1-0.2-2-0.4-3-0.6C34.4,150.7,34.6,150.3,34.8,149.8z"/>
		<path class="st24" d="M26.4,159.1c-0.2,0.2-0.4,0.4-0.7,0.6c-0.6-0.8-1.3-1.6-1.9-2.4c0.1-0.1,0.3-0.3,0.4-0.4
			c0.7,0.5,1.4,1,2.1,1.4C26.4,158.6,26.4,158.8,26.4,159.1z"/>
		<path class="st24" d="M34.3,144.6c-0.9-0.5-1.7-1.1-2.6-1.6c0.2-0.2,0.3-0.4,0.5-0.6c0.9,0.4,1.8,0.7,2.6,1.1
			C34.6,143.8,34.4,144.2,34.3,144.6z"/>
		<path class="st4" d="M34.3,144.6c0.2-0.4,0.4-0.7,0.6-1.1c0.5-0.3,1.1-0.6,1.6-0.8c0.1,0.1,0.2,0.3,0.3,0.4
			c-0.7,0.6-1.3,1.1-2,1.7C34.6,144.6,34.4,144.6,34.3,144.6z"/>
		<path class="st24" d="M20.5,139.9c0.8-0.4,1.5-0.9,2.3-1.3C22,139,21.3,139.5,20.5,139.9z"/>
		<path class="st24" d="M22.3,154.7c0.5,0.5,0.9,1.1,1.4,1.6c-0.1,0.1-0.3,0.2-0.4,0.4c-0.5-0.5-1-1-1.5-1.5
			C21.9,155,22.1,154.9,22.3,154.7z"/>
		<path class="st4" d="M26.4,159.1c0-0.3,0-0.5,0-0.8c0.2,0,0.4,0,0.6,0C26.8,158.6,26.6,158.8,26.4,159.1z"/>
		<path class="st4" d="M34.2,151.2c-0.2,0.2-0.4,0.4-0.6,0.6C33.8,151.6,34,151.4,34.2,151.2z"/>
		<path class="st4" d="M31.2,154.2c-0.2,0.2-0.4,0.4-0.6,0.6C30.8,154.6,31,154.4,31.2,154.2z"/>
		<path class="st24" d="M21.7,154.1c0.2,0.2,0.4,0.4,0.6,0.6c-0.2,0.2-0.3,0.3-0.5,0.5c-0.2-0.2-0.4-0.4-0.6-0.6
			C21.4,154.4,21.6,154.2,21.7,154.1z"/>
		<path class="st4" d="M28.8,156.6c-0.2,0.2-0.4,0.4-0.6,0.6C28.4,157,28.6,156.8,28.8,156.6z"/>
		<path class="st24" d="M21.2,153.4c0.2,0.2,0.4,0.4,0.6,0.6c-0.2,0.2-0.3,0.4-0.5,0.5c-0.2-0.2-0.4-0.4-0.6-0.6
			C20.8,153.8,21,153.6,21.2,153.4z"/>
		<path class="st4" d="M30,155.4c-0.2,0.2-0.4,0.4-0.6,0.6C29.6,155.8,29.8,155.6,30,155.4z"/>
		<path class="st4" d="M28.2,157.2c-0.2,0.2-0.4,0.4-0.6,0.6C27.8,157.6,28,157.4,28.2,157.2z"/>
		<path class="st4" d="M32.4,153c-0.2,0.2-0.4,0.4-0.6,0.6C32,153.4,32.2,153.2,32.4,153z"/>
		<path class="st4" d="M33,152.4c-0.2,0.2-0.4,0.4-0.6,0.6C32.6,152.8,32.8,152.6,33,152.4z"/>
		<path class="st4" d="M29.4,156c-0.2,0.2-0.4,0.4-0.6,0.6C29,156.4,29.2,156.2,29.4,156z"/>
		<path class="st4" d="M33.6,151.8c-0.2,0.2-0.4,0.4-0.6,0.6C33.2,152.2,33.4,152,33.6,151.8z"/>
		<path class="st4" d="M27.6,157.8c-0.2,0.2-0.4,0.4-0.6,0.6C27.2,158.2,27.4,158,27.6,157.8z"/>
		<path class="st4" d="M31.8,153.6c-0.2,0.2-0.4,0.4-0.6,0.6C31.4,154,31.6,153.8,31.8,153.6z"/>
		<path class="st4" d="M30.6,154.8c-0.2,0.2-0.4,0.4-0.6,0.6C30.2,155.2,30.4,155,30.6,154.8z"/>
		<path class="st24" d="M23.7,156.3c0.2,0.2,0.4,0.4,0.6,0.6c-0.1,0.1-0.3,0.3-0.4,0.4c-0.2-0.2-0.4-0.4-0.6-0.6
			C23.4,156.6,23.6,156.4,23.7,156.3z"/>
		<path class="st9" d="M23.3,156.7c0.2,0.2,0.4,0.4,0.6,0.6c0.6,0.8,1.3,1.6,1.9,2.4c0,1.7,0,3.4,0,5.1c-1.2,0.6-2.5,1.2-3.7,1.8
			c-1.1,0.3-2.2,0.6-3.4,0.9c-0.3,0-0.6,0-0.9,0c-5.3-0.7-5.5-0.8-6.7-6c-1.3-5.4-1.3-5.4,4.1-7.3c1.8-0.6,3.6-2.3,5.4-0.2
			c0.2,0.2,0.4,0.4,0.6,0.6c0.2,0.2,0.4,0.4,0.6,0.6C22.3,155.7,22.8,156.2,23.3,156.7z"/>
		<path class="st20" d="M87.5,143.5c0.8,1.2,1.6,2.4,2.5,3.7c0.6,1.9,1.2,3.9,1.8,5.8c-0.2,0.4-0.4,0.8-0.6,1.3c0,0,0,0,0,0
			c-0.3,0.2-0.6,0.4-0.9,0.6c-0.2,0.1-0.3,0.2-0.3,0.3c-1,1.3-2,2.6-3,3.9c0,0,0,0,0,0c-0.2,0.2-0.4,0.4-0.6,0.6c0,0,0,0,0,0
			c-0.3,0.2-0.6,0.4-0.9,0.6c-0.2,0.1-0.3,0.2-0.3,0.3c-0.5,0.4-1,0.8-1.6,1.1c-1.3-2.2-2.4-4.3-3.7-6.3c-1.4-2-2.4-4.1-1.3-6.5
			c0,0,0,0,0,0C80.5,145.3,83.7,143.8,87.5,143.5z"/>
		<path class="st4" d="M78.6,148.8c-1.1,2.5,0,4.5,1.3,6.5c1.3,2,2.4,4.1,3.7,6.3c0.5-0.4,1.1-0.8,1.6-1.1c-0.6,1-1.2,1.9-1.8,2.9
			c-2-3.4-3.9-6.9-5.9-10.3C76.4,151.3,76.6,149.8,78.6,148.8z"/>
		<path class="st4" d="M91.2,154.2c0.2-0.4,0.4-0.8,0.6-1.3c1.8,0.2,3.6,0.5,5.4,0.7c2,0.4,4,0.8,6,1.3c-0.4,0.5-0.8,1.1-1.2,1.6
			C98.4,155.7,94.8,155,91.2,154.2z"/>
		<path class="st4" d="M87,159c1-1.3,2-2.6,3-3.9C90.1,157.2,89,158.5,87,159z"/>
		<path class="st4" d="M86.4,159.6c0.2-0.2,0.4-0.4,0.6-0.6C86.8,159.2,86.6,159.4,86.4,159.6z"/>
		<path class="st4" d="M85.5,160.2c0.3-0.2,0.6-0.4,0.9-0.6C86.1,159.8,85.8,160,85.5,160.2z"/>
		<path class="st4" d="M90.3,154.8c0.3-0.2,0.6-0.4,0.9-0.6C90.9,154.4,90.6,154.6,90.3,154.8z"/>
		<path class="st12" d="M103.2,154.9c-2-0.4-4-0.8-6-1.3c3.1-1.4,6.1-2.9,9.2-4.3c1.3,2.1,0.3,3.6-1.4,4.9
			C104.4,154.4,103.8,154.6,103.2,154.9z"/>
		<path class="st16" d="M154.2,44.3c0.2-2.1,0.3-4.3,0.5-6.4c0.3-0.4,0.5-0.8,0.8-1.3c1.1-0.8,2.4-1.3,3.1-2.3
			c1.5-2.3,2.7-4.8,4-7.2c0.2,0,0.5,0,0.7,0c-1.3,2.9-2.6,5.8-4.1,9.1c3.5,0.9,7,1.9,10.6,2.8c0,0.4,0,0.8,0,1.2
			c-0.4,0.8-0.8,1.6-1.2,2.4c0.1-1.6-0.4-2.6-2.1-3c-2.2-0.6-4.3-1.5-6.5-2.1c-3.3-1-4.7,0.1-4.6,3.4c0,3.6,0,7.2,0,10.7
			C155,49.2,154.6,46.7,154.2,44.3z"/>
		<path class="st4" d="M148,28c2.6-1.8,5.1-3.7,7.7-5.5c0.1,0.1,0.3,0.3,0.4,0.4c-2.6,1.8-5.1,3.7-7.7,5.5
			C148.3,28.3,148.2,28.2,148,28z"/>
		<path class="st12" d="M148.4,28.4c2.6-1.8,5.1-3.7,7.7-5.5c2.1,1,4.2,2.1,6.3,3.1c0.1,0.4,0.1,0.7,0.2,1.1c-1.3,2.4-2.5,4.9-4,7.2
			c-0.7,1-2,1.6-3.1,2.3c-1.4-0.4-2.9-0.8-4.3-1.2c0,0,0,0,0,0c-0.8-1.1-1.8-2-2.3-3.2C148.5,31.1,148.6,29.7,148.4,28.4z"/>
		<path class="st25" d="M141.1,128c-0.2-0.2-0.4-0.4-0.7-0.5c-4.9-1.7-5.4-5.3-4.2-9.7c0.6-2.3,0.9-4.7,1.5-7.6
			c4.1,0.7,8.1,1.4,12.1,2.1c-0.1,3.7-0.2,7.3-0.5,11c-0.1,0.7-0.7,1.7-1.3,2C145.7,126.3,143.4,127.1,141.1,128z"/>
		<path class="st17" d="M150.6,94.9c0.1,5.2,0.2,10.4,0.2,15.6c-0.1,0.1-0.2,0.3-0.3,0.5c-3.4-0.5-6.9-0.8-10.2-1.5
			c-0.7-0.1-1.7-1.6-1.6-2.5c0.2-2.9,0.7-5.7,1.1-8.5c0-0.3,0.1-0.6,0.3-0.8C141,96.3,149,94.3,150.6,94.9z"/>
		<path class="st4" d="M42.1,130.8c0.3,0,0.6,0,0.9,0c-0.5,2.2-0.8,4.5-1.4,6.6c-0.5,1.7,0.2,2.4,1.5,3.3c4.9,3.1,9.1-0.1,13.8-1
			c-2.1-4.4-4-8.5-6-12.6c0.1-0.7,0.3-1.5,0.2-2.2c-0.8-3.3-1.7-6.5-2.6-9.7c0-0.4,0.1-0.8,0.1-1.2c1-0.9,1.9-1.7,2.9-2.6l0.1,0.1
			c-3.4,4.9-0.4,9.2,0.8,13.9c3.6-1,6.9-1.9,10.1-2.9c0.8-0.3,1.7-1.1,2-1.8c1.4-3.4,2.5-6.9,3.8-10.3c0.2-0.4,0.4-0.8,0.6-1.2
			c0.2,0,0.4-0.1,0.7-0.1c0,0,0,0.2,0,0.2c-0.5,1.6-0.9,3.2-1.4,4.8c-0.9,3.2-1.9,6.4-2.8,9.5c-4.4,1-8.8,2-13.7,3.1
			c3.1,5.5,4.8,10.8,8.7,15c2.1-1.4,3.8-2.7,5.6-3.6c3.2-1.7,4.3-4.5,4.2-7.9c0.4,0.2,0.9,0.4,1.3,0.6c-0.4,2.1-0.7,4.3-1.1,6.4
			c-0.1,0.1-0.2,0.2-0.2,0.2c-3.2,1.8-6.3,3.7-9.5,5.5c-3.1-3-6.3-1.4-9.5-0.4c-1.2,0.4-2.5,0.6-3.7,0.9c-0.7-0.2-1.6-0.3-2.2-0.7
			c-2.9-2-5.7-2.1-8.5,0.2c-0.1-0.1-0.2-0.3-0.3-0.4c1.4-1.4,3.2-2.7,3.9-4.4C41.4,136,41.6,133.3,42.1,130.8z"/>
		<path class="st4" d="M87.5,143.5c-3.9,0.3-7,1.8-8.9,5.4c0.2-1.3,0.3-2.7,0.5-4c0.1-0.1,0.1-0.2,0.2-0.2c2.6-0.8,5.2-1.6,7.8-2.5
			c0.3,0.3,0.6,0.7,0.8,1C87.8,143.2,87.7,143.3,87.5,143.5z"/>
		<path class="st4" d="M60.7,152.4c0-3.1,0-6.1-0.1-9.2c0.4,3,0.7,6.1,1.1,9.1C61.4,152.4,61,152.4,60.7,152.4z"/>
		<path class="st4" d="M77.3,143.5c-0.6-0.6-1.3-1.1-1.9-1.7c0.1-0.1,0.1-0.2,0.2-0.2c0.6,0.6,1.3,1.1,1.9,1.7
			C77.5,143.3,77.4,143.4,77.3,143.5z"/>
		<path class="st4" d="M73.7,140.5c-0.6-0.6-1.3-1.1-1.9-1.7c0.1-0.1,0.1-0.2,0.2-0.2c0.6,0.6,1.3,1.1,1.9,1.7
			C73.9,140.3,73.8,140.4,73.7,140.5z"/>
		<path class="st4" d="M79.1,144.8c-0.6-0.4-1.1-0.9-1.7-1.3c0.1-0.1,0.1-0.2,0.2-0.2c0.6,0.4,1.1,0.9,1.7,1.3
			C79.2,144.6,79.1,144.7,79.1,144.8z"/>
		<path class="st4" d="M75.5,141.8c-0.6-0.4-1.1-0.9-1.7-1.3c0.1-0.1,0.1-0.2,0.2-0.2c0.6,0.4,1.1,0.9,1.7,1.3
			C75.6,141.6,75.5,141.7,75.5,141.8z"/>
		<path class="st4" d="M71.9,138.8c-0.6-0.4-1.1-0.9-1.7-1.3c0.1-0.1,0.2-0.2,0.2-0.2c0.6,0.4,1.1,0.9,1.7,1.3
			C72,138.6,71.9,138.7,71.9,138.8z"/>
		<path class="st4" d="M37.2,151.8c1.6,1,3.2,2,4.8,3C40.4,153.8,38.8,152.8,37.2,151.8z"/>
		<path class="st4" d="M60.2,152.9c0.1-0.2,0.3-0.3,0.4-0.5C60.5,152.6,60.4,152.7,60.2,152.9z"/>
		<path class="st26" d="M48.6,115.3c0.9,3.2,1.8,6.5,2.6,9.7c0.2,0.7-0.1,1.4-0.2,2.2c-2.6,0.8-5.2,1.6-7.7,2.4
			c-1.7-0.9-3.4-2-5.3-2.6c-2.7-0.9-2.9-2.8-2.5-5.1c0.4-2.6,0.7-5.2,1.1-7.9c0.8-0.2,1.7-0.5,2.5-0.7
			C42.3,114,45.4,114.6,48.6,115.3z"/>
		<path class="st18" d="M39.1,113.3c-0.8,0.2-1.7,0.5-2.5,0.7c-2.5-1.6-5.1-3.2-7.6-4.8c-0.2-3.6-0.4-7.2-0.6-10.8
			c1.5-2,3.3-2.1,5.5-1.1c1.6,0.7,3.3,1.2,5.1,1.5c2.1,0.4,2.8,1.4,2.5,3.5c-0.5,3.2-0.8,6.5-1.3,9.7
			C40.1,112.5,39.5,112.9,39.1,113.3z"/>
		<path class="st1" d="M150.6,93c-0.1-0.1-0.2-0.2-0.3-0.4c0.1-0.1,0.1-0.1,0.2-0.2C150.6,92.6,150.6,92.8,150.6,93z"/>
		<path class="st29" d="M114.4,100.2c1.3-1.4,2.7-2.9,4.2-4.5c2.5,2,5.9,2.7,6.8,6.3c0,0.1,0,0.2,0,0.3c1.6,4.2,0,7.2-3.4,9.6
			c-2.1,1.5-2,3.2-1.4,5.4c0.4,1.6,0,3.4,0,5.1c0,0,0,0,0,0c-0.2,0.2-0.4,0.4-0.6,0.6l0,0c-0.2,0.2-0.4,0.4-0.6,0.6c0,0,0,0,0,0
			c-0.4,0.4-0.8,0.8-1.2,1.2c0,0,0,0,0,0c-1,0.8-2,1.7-3,2.5c-3.3-1.4-6.6-2.7-10.4-4.3c1.7-3.5,3.3-6.9,5-10.2
			c1.6-0.6,3.2-1.2,4.8-1.8c-0.1-3.4-0.2-6.7-0.2-10.1C114.3,100.7,114.4,100.5,114.4,100.2z"/>
		<path class="st22" d="M132.7,82.9c-3-0.5-6-1-9.1-1.5c-1.6-0.3-2.1-1.2-1.8-2.8c0.4-2.6,0.7-5.3,1.3-7.9c0.1-0.7,1-1.4,1.7-1.7
			c2.1-1,4.5-1.6,6.5-2.9c2.7-1.6,4.7-1.3,6.6,1.1c0.2,4,0.4,7.9,0.6,11.9l0,0c-0.4,0.2-0.8,0.4-1.2,0.6l0,0
			c-0.8,0.6-1.6,1.2-2.4,1.8l0,0C134.2,82,133.4,82.5,132.7,82.9z"/>
		<path class="st28" d="M138.6,79.2c3.2,1.2,6.5,2.3,9.4,3.4c0.5,2.7,0.8,5.1,1.3,7.4c0.4,2,0.1,3.5-2.3,4c-1.6,0.3-3.2,1-4.8,1.6
			c-2.3,0.8-6.6-0.6-8-2.5c-1.5-2.1-1-8.7,0.8-10.8c0.1-0.1,0.1-0.4,0.1-0.6c0,0,0,0,0,0c0.8-0.6,1.6-1.2,2.4-1.8c0,0,0,0,0,0
			C137.8,79.6,138.2,79.4,138.6,79.2L138.6,79.2z"/>
		<path class="st29" d="M125.4,98.5c-1.8-1-3.7-1.9-5.4-3.1c-0.6-0.4-1-1.4-1.2-2.1c-0.5-1.9-0.7-3.9-1.1-5.9
			c-0.7-3.7,1.4-5.8,5.2-5.1c3,0.5,6,1.2,9.1,1.7c0,0.5-0.1,1.1,0.1,1.6C134.6,92.3,130.5,95.7,125.4,98.5z"/>
		<path class="st28" d="M134.2,124.1c-1.9,0.2-3.8,0.4-5.7,0.6c-1.5-1.1-3-2.1-4.4-3.3c-0.7-0.6-1.6-1.4-1.8-2.2
			c-1.4-4.4,0.2-8.6,4.5-10.3c1.9-0.7,4.4,0.1,6.6,0.4c0.9,0.1,1.7,0.5,3,0.9C135.6,114.8,134.9,119.5,134.2,124.1z"/>
		<path class="st28" d="M137.2,108.8c-3.3-0.5-6.4-1-9.7-1.5c-0.5-1.9-1.2-3.8-1.3-5.7c-0.1-1,0.6-2.3,1.3-3.2
			c0.7-0.9,1.9-1.5,2.8-2.2c3.3-2.3,4.3-2.3,7.4,0.3c0.6,0.5,1,1.7,0.9,2.6C138.3,102.1,137.7,105.2,137.2,108.8z"/>
		<path class="st28" d="M118.2,136.7c-0.8-0.7-1.6-1.3-2.5-2c0-2,0-4.1,0-6.1c0.8-1.3,1.6-2.6,2.4-3.8c0,0,0,0,0,0
			c0.4-0.4,0.8-0.8,1.2-1.2c0,0,0,0,0,0c0.2-0.2,0.4-0.4,0.6-0.6c0,0,0,0,0,0c0.2-0.2,0.4-0.4,0.6-0.6c0,0,0,0,0,0
			c4-1.1,7.1,1.8,6.3,5.8c-0.4,2.1-0.8,4.2-1.2,6.4c-1.7,1-3.4,2.1-5.1,3.1C119.8,137.3,119,137,118.2,136.7z"/>
		<path class="st12" d="M153.5,52.9c-2.2,3.4-4.2,6.9-6.5,10.2c-0.6,0.8-2,1.1-3,1.6c-1.5-3.3-3-6.6-4.7-9.9c-0.4-0.8-1.2-1.4-1.9-2
			c0-0.4,0-0.8,0-1.2l0,0c0.2-0.2,0.4-0.4,0.6-0.6l0,0c1.5-0.1,3.1-0.6,4.6-0.3C146.2,51.2,149.8,52.1,153.5,52.9z"/>
		<path class="st28" d="M123.1,141c-5.2,2.6-10.4,5.2-15.6,7.8c-1.6-7.9-1.6-7.8,5.5-11.6c1.8-1,3.3-0.9,5-0.2
			C119.7,138.4,121.4,139.7,123.1,141z"/>
		<path class="st29" d="M137.4,52.8c0.6,0.7,1.5,1.2,1.9,2c1.6,3.3,3.1,6.6,4.7,9.9c-1.7,0.5-3.5,0.9-5.2,1.4
			c-4.6-2.9-3.7-7.7-4.3-12.1c0,0,0,0,0,0c0.2-0.2,0.4-0.4,0.6-0.6l0,0C135.8,53.2,136.6,53,137.4,52.8z"/>
		<path class="st4" d="M153.5,52.9c-3.6-0.8-7.2-1.7-10.9-2.2c-1.5-0.2-3.1,0.2-4.6,0.3c0.9-1,1.7-1.9,2.6-2.9
			c2.1,0.8,4.1,1.7,6.2,2.2c2.3,0.6,4.6,0.9,7.4,1.4c0-2.7,0-5.1,0-7.4c0.4,2.5,0.8,4.9,1.2,7.4c0,0.2,0,0.3,0,0.5
			C154.8,52.4,154.1,52.6,153.5,52.9z"/>
		<path class="st17" d="M120.6,137.6c1.7-1,3.4-2.1,5.1-3.1c-0.3,1.8-0.6,3.7-0.9,6C123.1,139.4,121.8,138.5,120.6,137.6z"/>
		<path class="st9" d="M73.2,60.1c0.1,0.3,0.2,0.6,0.3,0.8c0.7,2.5,1.4,5,2.1,7.5c-3,1.2-5.9,2.4-8.9,3.6c-1-1.1-2.1-2.1-3-3.3
			c-1.4-1.7-2.8-3.5-4.2-5.2c0,0,0,0,0,0c0.2-0.4,0.4-0.8,0.6-1.2c0,0,0,0,0,0c0.4-0.4,0.8-0.8,1.2-1.2c0,0,0,0,0,0
			c0.2-0.4,0.4-0.8,0.6-1.2c0,0,0,0.1,0,0.1c0.7-0.7,1.5-1.4,2.2-2.1c2.2-2.1,4.8-2.1,6.9,0C71.7,58.7,72.5,59.4,73.2,60.1z"/>
		<path class="st24" d="M59.4,63.6c1.4,1.7,2.7,3.5,4.2,5.2c1,1.1,2,2.2,3,3.3c0,0.2,0,0.4-0.1,0.6c-2.8-2.8-5.7-5.6-8.5-8.4
			C58.5,64.1,59,63.8,59.4,63.6z"/>
		<path class="st24" d="M61.2,61.2c-0.4,0.4-0.8,0.8-1.2,1.2C60.4,62,60.8,61.6,61.2,61.2z"/>
		<path class="st24" d="M61.8,60c-0.2,0.4-0.4,0.8-0.6,1.2C61.4,60.8,61.6,60.4,61.8,60z"/>
		<path class="st24" d="M60,62.4c-0.2,0.4-0.4,0.8-0.6,1.2C59.6,63.2,59.8,62.8,60,62.4z"/>
		<path class="st27" d="M66.6,73.2c2.3-0.8,4.5-1.8,6.8-2.4c1.7-0.4,3.5-0.4,5.2-0.5c0,0,0,0,0,0c1,1.4,2,2.8,2.9,4.2
			c0.2,0.4,0.4,0.9,0.7,1.3c0.4,1.9,0.8,3.9,1.2,5.8c-0.4,0.4-0.8,0.9-1.2,1.3c0,0,0,0,0,0c-0.2,0.2-0.4,0.4-0.6,0.6l0,0
			c-0.8,0.6-1.6,1.2-2.4,1.8l0,0c-0.2,0-0.4,0-0.6,0.1c-5.4-0.1-10.8-0.1-16.1-0.2c-0.4-0.7-0.9-1.5-1.3-2.2
			c0.2-0.6,0.4-1.3,0.6-1.9c0,0,0,0,0,0c0.6-1,1.2-2,1.8-3c0,0,0,0,0,0c0.4-0.6,0.8-1.2,1.2-1.8c0,0,0,0,0,0
			C65.4,75.2,66,74.2,66.6,73.2C66.6,73.2,66.6,73.2,66.6,73.2z"/>
		<path class="st27" d="M69.6,109.1c-0.2,0-0.4,0.1-0.7,0.1c-2.6,0.1-5.2,0.1-7.8,0.2c-1,0-2,0.1-3,0.1c-0.6,0.1-1.1,0.1-1.7,0.2
			c-1.2,0-2.3,0-3.5,0.1c-0.4-1.3-0.8-2.6-1.3-4c-0.3-1.7-0.8-3.3-0.9-5c-0.1-0.7,0.2-2,0.6-2.2c3.8-1.2,7.7-2.2,11.6-3.2
			c0,0,0,0,0,0c0.2,0.4,0.4,0.8,0.6,1.2l0,0c0.6,0.8,1.2,1.6,1.8,2.4l0,0c1,1.4,2,2.8,3,4.2C68.8,105.2,69.2,107.2,69.6,109.1z"/>
		<path class="st21" d="M77.4,94.2c-2.8,2.8-5.6,5.6-8.4,8.5c0,0-0.1-0.1-0.1-0.1c-1.2-1.2-2.4-2.4-3.6-3.6c0,0,0,0,0,0
			c-0.6-0.8-1.2-1.6-1.8-2.4c0,0,0,0,0,0c-0.2-0.4-0.4-0.8-0.6-1.2c0,0,0,0,0,0c-0.4-0.4-0.8-0.9-1.2-1.3c0.4-2.6,0.8-5.2,1.3-7.7
			c4.7,0,9.3,0,13.8,0c0.5,1,0.8,1.7,1.1,2.4C77.8,90.6,77.6,92.4,77.4,94.2z"/>
		<path class="st7" d="M61.8,94.1c0.4,0.4,0.8,0.9,1.2,1.3c-3.9,1.1-7.8,2-11.6,3.2c-0.4,0.1-0.7,1.4-0.6,2.2c0.2,1.7,0.6,3.3,0.9,5
			c-0.2-0.2-0.4-0.4-0.5-0.6c-2.4-6.6-2.4-6.6,4.2-8.8C57.5,95.6,59.7,94.8,61.8,94.1z"/>
		<path class="st12" d="M78,88.8c-0.3-0.7-0.6-1.4-1.1-2.4c-4.5,0-9.1,0-13.8,0c-0.2-0.4-0.4-0.8-0.6-1.3c5.4,0.1,10.8,0.1,16.1,0.2
			c0,0.3,0,0.7,0,1C78.4,87.2,78.2,88,78,88.8z"/>
		<path class="st4" d="M52.9,109.8c1.2,0,2.3,0,3.5-0.1c0.6-0.1,1.1-0.1,1.7-0.2c1,0,2-0.1,3-0.1c-0.2,0.3-0.4,0.6-0.5,0.9
			c-2.6,0-5.2,0.1-7.8,0.1c0,0-0.1-0.1-0.1-0.1C52.8,110.2,52.9,110,52.9,109.8z"/>
		<path class="st7" d="M66.6,73.2c-0.6,1-1.2,2-1.8,3C65.4,75.2,66,74.2,66.6,73.2z"/>
		<path class="st7" d="M63.6,78c-0.6,1-1.2,2-1.8,3C62.4,80,63,79,63.6,78z"/>
		<path class="st7" d="M61.8,81c-0.2,0.6-0.4,1.3-0.6,1.9c-0.4-0.3-0.7-0.6-1.2-1C60.7,81.6,61.2,81.3,61.8,81z"/>
		<path class="st7" d="M64.8,76.2c-0.4,0.6-0.8,1.2-1.2,1.8C64,77.4,64.4,76.8,64.8,76.2z"/>
		<path class="st4" d="M51.5,111.5c0.4-0.4,0.8-0.8,1.2-1.2c0,0,0.1,0.1,0.1,0.1c-0.4,0.4-0.8,0.8-1.1,1.3L51.5,111.5z"/>
		<path class="st4" d="M114.3,100.9c0.1,3.4,0.2,6.7,0.2,10.1C113.1,108.8,112.9,102.7,114.3,100.9z"/>
		<path class="st4" d="M107.9,112.4c-2.4-1.6-4.8-3.2-7.2-4.7c0.1-0.1,0.2-0.2,0.2-0.3c2.4,1.6,4.8,3.2,7.2,4.9
			C108,112.2,107.9,112.4,107.9,112.4z"/>
		<path class="st4" d="M100.6,107.6c-1.3,0.6-2.6,1.1-4,1.7c-0.1-0.1-0.1-0.2-0.2-0.2c1.2-1.4,1.7-4.4,4.4-1.7
			C100.8,107.4,100.7,107.5,100.6,107.6z"/>
		<path class="st4" d="M92.9,112.1c0.3-0.2,0.5-0.4,0.8-0.6c0.1,0.1,0.2,0.2,0.2,0.3c-0.3,0.2-0.5,0.3-0.8,0.5
			C93.1,112.3,93,112.2,92.9,112.1z"/>
		<path class="st4" d="M92.3,112.7c0.2-0.2,0.4-0.4,0.6-0.6c0.1,0.1,0.2,0.1,0.2,0.2c-0.2,0.2-0.4,0.4-0.6,0.6
			C92.5,112.9,92.4,112.8,92.3,112.7z"/>
		<path class="st4" d="M96.7,109.3c-0.2,0.2-0.4,0.4-0.6,0.6c-0.1-0.1-0.1-0.1-0.2-0.2c0.2-0.2,0.4-0.4,0.6-0.6
			C96.5,109.1,96.6,109.2,96.7,109.3z"/>
		<path class="st4" d="M96.1,109.9c-0.2,0-0.4,0.1-0.5,0.1c0.1-0.1,0.2-0.2,0.3-0.4C95.9,109.7,96,109.8,96.1,109.9z"/>
		<path class="st22" d="M83.4,81.5c-0.4-1.9-0.8-3.9-1.2-5.8c0.4-1.8,0.8-3.7,1.2-5.5c0,0,0,0,0,0c2.3-1.3,4.6-2.5,6.9-3.8
			c1.8-1,8.8,0.4,9.7,2.2c0.3,0.6,0.3,1.4,0.2,2c-0.8,3.6-1.6,7.1-2.5,11C92.9,81.5,88.1,81.5,83.4,81.5z"/>
		<path class="st20" d="M81.6,111c2.1,1.4,4.2,2.8,6.3,4.1c3.2,1.9,4.5,9,1.8,11.5c-1.3,1.3-2.9,2.3-4.3,3.5
			c-2.6-0.2-5.2-0.3-7.8-0.5c0-6,0-12,0-18C78.9,111.4,80.3,111.2,81.6,111z"/>
		<path class="st23" d="M87.9,143.1c-0.3-0.3-0.6-0.7-0.8-1c0-3.7,0-7.4,0-11.1c1.4-1.3,2.7-2.6,4.1-4c1.9-1.9,5.3-1.7,6.5,0.6
			c2,3.8,3.8,7.8,6,12.5C98,141.2,93,142.1,87.9,143.1z"/>
		<path class="st14" d="M87,130.9c0,3.7,0,7.4,0,11.1c-2.6,0.8-5.2,1.6-7.8,2.5c-0.6-0.4-1.1-0.9-1.7-1.3c-0.6-0.6-1.3-1.1-1.9-1.7
			c-0.6-0.4-1.1-0.9-1.7-1.3c-0.6-0.6-1.3-1.1-1.9-1.7c-0.6-0.4-1.1-0.9-1.7-1.3c0.4-2.2,0.7-4.3,1.1-6.5c1.7-0.4,3.5-0.8,5.2-1.2
			c0.3,0,0.6,0,0.9,0c2.6,0.2,5.2,0.3,7.8,0.5C85.9,130.4,86.5,130.7,87,130.9z"/>
		<path class="st23" d="M102.6,85.2c-0.8,4-1.6,7.9-2.4,11.9c-0.1,0.4-0.7,1.1-0.8,1.1c-2.8-0.9-6.8-1-8.1-2.9
			c-2.3-3.4-2.9-7.9-4.5-12.4c4.4,0,8.3,0,12.3,0c0,0,0,0,0,0C100.2,83.6,101.4,84.4,102.6,85.2C102.6,85.2,102.6,85.2,102.6,85.2z"
			/>
		<path class="st29" d="M115.8,128.6c0,2,0,4.1,0,6.1c-3.4,1.7-6.8,3.4-10.2,5.1c-0.6-0.7-1.4-1.3-1.9-2.1
			c-1.8-3.6-3.6-7.2-5.3-10.9c3.3-2.4,6.3-3.4,10-1.2c2.1,1.3,4.5,1.8,6.8,2.7C115.4,128.4,115.6,128.5,115.8,128.6z"/>
		<path class="st22" d="M81.6,111c-1.3,0.2-2.6,0.4-4,0.6c-0.3-0.2-0.6-0.4-0.9-0.6c-2.4-0.6-4.7-1.1-7.1-1.7c0,0,0-0.2,0-0.2
			c-0.4-2-0.8-3.9-1.2-5.9c0.2-0.2,0.4-0.5,0.6-0.7c0,0,0.1,0.1,0.1,0.1c2.7-2.4,5.5-4.8,8.2-7.1c0.2,0,0.3,0,0.4,0
			c7.4,4.2,7.4,4.2,4.9,12.3C82.2,108.9,81.9,109.9,81.6,111z"/>
		<path class="st29" d="M106.4,149.3c-3.1,1.4-6.1,2.9-9.2,4.3c-1.8-0.2-3.6-0.5-5.4-0.7c-0.6-1.9-1.2-3.9-1.8-5.8
			c-0.2-2.4,1.3-3,3.3-3.4c3.9-0.8,7.7-1.8,11.6-2.7C105.4,143.8,105.9,146.6,106.4,149.3z"/>
		<path class="st22" d="M78,88.8c0.2-0.8,0.5-1.6,0.7-2.4c0.2-0.4,0.4-0.8,0.5-1.2c0,0,0,0,0,0c0.8-0.6,1.6-1.2,2.4-1.8l0,0
			c0.2-0.2,0.4-0.4,0.6-0.6c0,0,0,0,0,0c2.8-0.6,4.1,0.7,4.7,3.4c0.7,2.7,1.8,5.2,2.5,7.9c0.3,1,0.3,2.7-0.2,3
			c-1.5,0.9-3,2.8-5.3,1.2c-2.1-1.5-4.3-2.8-6.5-4.1C77.6,92.4,77.8,90.6,78,88.8z"/>
		<path class="st16" d="M115.8,128.6c-0.2-0.1-0.4-0.2-0.6-0.3c0-0.4,0-0.7,0-1.1c1-0.8,2-1.7,3-2.5
			C117.4,126.1,116.6,127.3,115.8,128.6z"/>
		<path class="st14" d="M140.5,48.1c-0.9,1-1.7,1.9-2.6,2.9c0,0,0,0,0,0c-0.2,0.2-0.4,0.4-0.6,0.6c0,0,0,0,0,0
			c-0.8,0.6-1.6,1.2-2.4,1.8c0,0,0,0,0,0c-0.2,0.2-0.4,0.4-0.6,0.6c0,0,0,0,0,0c-6.1-1-9.8-4.6-11.4-11.1c3.2-1.6,6.6-3.5,10.1-5
			c1-0.4,2.6,0.6,3.8,1.1c1.4,0.5,2.7,1.2,4.1,1.8C140.8,43.3,140.7,45.7,140.5,48.1z"/>
		<path class="st4" d="M102.6,85.2c-1.2-0.8-2.4-1.6-3.6-2.4C100.2,83.6,101.4,84.4,102.6,85.2z"/>
		<path class="st4" d="M151.2,35.4c1.4,0.4,2.9,0.8,4.3,1.2c-0.3,0.4-0.5,0.8-0.8,1.3C153.6,37.1,152.4,36.2,151.2,35.4z"/>
		<path class="st7" d="M81.5,74.4c-1-1.4-2-2.8-2.9-4.2c1,0.2,2,0.5,3,0.7C81.5,72,81.5,73.2,81.5,74.4z"/>
		<path class="st4" d="M81.5,74.4c0-1.2,0-2.3,0-3.5c0.6-0.2,1.2-0.5,1.8-0.7c-0.4,1.8-0.8,3.7-1.2,5.5C82,75.2,81.8,74.8,81.5,74.4
			z"/>
		<path class="st26" d="M42.1,130.8c-0.5,2.5-0.7,5.1-1.7,7.4c-0.8,1.7-2.6,2.9-3.9,4.4c-0.5,0.3-1.1,0.6-1.6,0.8
			c-0.9-0.4-1.8-0.7-2.6-1.1c-1.8-1.2-3.6-2.5-5.5-3.5c-2-1-2.4-2.3-1.8-4.3c0.5-1.6,0.7-3.3,1-4.9c1.7-0.7,3.5-1.4,5.2-2.1
			C34.8,126.1,39.4,127.5,42.1,130.8z"/>
		<path class="st11" d="M43.2,129.6c2.6-0.8,5.2-1.6,7.7-2.4c2,4.1,3.9,8.2,6,12.6c-4.7,0.9-8.9,4.1-13.8,1c-1.4-0.9-2-1.6-1.5-3.3
			c0.6-2.2,1-4.4,1.4-6.6C43.1,130.4,43.2,130,43.2,129.6z"/>
		<path class="st22" d="M70.2,130.2c0.1,3.4-1,6.2-4.2,7.9c-1.8,1-3.5,2.3-5.6,3.6c-3.9-4.2-5.7-9.6-8.7-15c5-1.1,9.4-2.1,13.7-3.1
			c0,0,0,0,0,0c0.2,0.4,0.4,0.8,0.6,1.2l0,0c1.2,1.4,2.4,2.8,3.6,4.2l0,0C69.8,129.4,70,129.8,70.2,130.2L70.2,130.2z"/>
		<path class="st21" d="M51.7,111.7c0.4-0.4,0.8-0.8,1.1-1.3c2.6,0,5.2-0.1,7.8-0.1c2.6,0,5.2,0.1,7.8,0.1
			c-1.2,3.5-2.4,6.9-3.8,10.3c-0.3,0.8-1.2,1.6-2,1.8c-3.2,1.1-6.5,1.9-10.1,2.9C51.3,120.9,48.3,116.5,51.7,111.7z"/>
		<path class="st23" d="M69.6,109.3c2.4,0.6,4.7,1.1,7.1,1.7c0,6.2,0,12.4,0,18.6c-1.7,0.4-3.5,0.8-5.2,1.2
			c-0.4-0.2-0.9-0.4-1.3-0.6c0,0,0,0,0,0c-0.2-0.4-0.4-0.8-0.6-1.2c0,0,0,0,0,0c-1.2-1.4-2.4-2.8-3.6-4.2c0,0,0,0,0,0
			c-0.2-0.4-0.4-0.8-0.6-1.2c0,0,0,0,0,0c0.9-3.2,1.9-6.4,2.8-9.5C68.7,112.5,69.2,110.9,69.6,109.3z"/>
		<path class="st12" d="M68.4,110.4c-2.6,0-5.2-0.1-7.8-0.1c0.2-0.3,0.4-0.6,0.5-0.9c2.6-0.1,5.2-0.1,7.8-0.2
			C68.7,109.6,68.6,110,68.4,110.4z"/>
		<path class="st16" d="M119.4,123.6c-0.4,0.4-0.8,0.8-1.2,1.2C118.6,124.4,119,124,119.4,123.6z"/>
		<path class="st16" d="M120.6,122.4c-0.2,0.2-0.4,0.4-0.6,0.6C120.2,122.8,120.4,122.6,120.6,122.4z"/>
		<path class="st16" d="M120,123c-0.2,0.2-0.4,0.4-0.6,0.6C119.6,123.4,119.8,123.2,120,123z"/>
		<path class="st16" d="M137.4,79.8c-0.8,0.6-1.6,1.2-2.4,1.8C135.8,81,136.6,80.4,137.4,79.8z"/>
		<path class="st16" d="M138.6,79.2c-0.4,0.2-0.8,0.4-1.2,0.6C137.8,79.6,138.2,79.4,138.6,79.2z"/>
		<path class="st4" d="M135,53.4c0.8-0.6,1.6-1.2,2.4-1.8c0,0.4,0,0.8,0,1.2C136.6,53,135.8,53.2,135,53.4z"/>
		<path class="st4" d="M137.4,51.6c0.2-0.2,0.4-0.4,0.6-0.6C137.8,51.2,137.6,51.4,137.4,51.6z"/>
		<path class="st4" d="M134.4,54c0.2-0.2,0.4-0.4,0.6-0.6C134.8,53.6,134.6,53.8,134.4,54z"/>
		<path class="st4" d="M81.6,83.4c-0.8,0.6-1.6,1.2-2.4,1.8C80,84.6,80.8,84,81.6,83.4z"/>
		<path class="st4" d="M79.2,85.2c-0.2,0.4-0.4,0.8-0.5,1.2c0-0.3,0-0.7,0-1C78.8,85.2,79,85.2,79.2,85.2z"/>
		<path class="st4" d="M82.2,82.8c-0.2,0.2-0.4,0.4-0.6,0.6C81.8,83.2,82,83,82.2,82.8z"/>
		<path class="st7" d="M69,102.6c-0.2,0.2-0.4,0.5-0.6,0.7c-1-1.4-2-2.8-3-4.2C66.6,100.2,67.8,101.4,69,102.6z"/>
		<path class="st7" d="M63.6,96.6c0.6,0.8,1.2,1.6,1.8,2.4C64.8,98.2,64.2,97.4,63.6,96.6z"/>
		<path class="st12" d="M58.1,109.5c-0.6,0.1-1.1,0.1-1.7,0.2C56.9,109.6,57.5,109.6,58.1,109.5z"/>
		<path class="st7" d="M63,95.4c0.2,0.4,0.4,0.8,0.6,1.2C63.4,96.2,63.2,95.8,63,95.4z"/>
		<path class="st4" d="M76.7,129.6c0-6.2,0-12.4,0-18.6c0.3,0.2,0.6,0.4,0.9,0.6c0,6,0,12,0,18C77.3,129.6,77,129.6,76.7,129.6z"/>
		<path class="st4" d="M66,124.8c1.2,1.4,2.4,2.8,3.6,4.2C68.4,127.6,67.2,126.2,66,124.8z"/>
		<path class="st4" d="M65.4,123.6c0.2,0.4,0.4,0.8,0.6,1.2C65.8,124.4,65.6,124,65.4,123.6z"/>
		<path class="st4" d="M69.6,129c0.2,0.4,0.4,0.8,0.6,1.2C70,129.8,69.8,129.4,69.6,129z"/>
	</g>
</g>
</svg>
